<?xml version="1.0" standalone="no"?>
<!DOCTYPE svg PUBLIC "-//W3C//DTD SVG 20010904//EN"
 "http://www.w3.org/TR/2001/REC-SVG-20010904/DTD/svg10.dtd">
<svg version="1.0" xmlns="http://www.w3.org/2000/svg"
 width="700.000000pt" height="700.000000pt" viewBox="0 0 700.000000 700.000000"
 preserveAspectRatio="xMidYMid meet">
<metadata>
Created by potrace 1.14, written by Peter Selinger 2001-2017
</metadata>
<g transform="translate(0.000000,700.000000) scale(0.100000,-0.100000)"
fill="#000000" stroke="none">
<path d="M3314 6401 c-8 -8 -132 -22 -221 -25 -18 -1 -33 -4 -33 -7 0 -4 -10
-5 -22 -5 -13 1 -27 0 -33 -3 -5 -3 -14 -6 -20 -7 -5 -1 -26 -5 -45 -9 -19 -3
-53 -10 -75 -16 -22 -5 -51 -12 -65 -15 -14 -3 -42 -9 -63 -15 -20 -5 -43 -7
-49 -3 -6 4 -8 3 -4 -4 4 -6 -7 -13 -26 -17 -18 -4 -39 -12 -45 -17 -7 -6 -13
-8 -13 -5 0 4 -95 -27 -142 -47 -9 -4 -21 -5 -26 -2 -6 3 -13 -1 -16 -9 -3 -8
-9 -14 -13 -13 -8 2 -74 -27 -146 -63 -21 -11 -43 -17 -49 -13 -6 4 -8 3 -5
-2 3 -5 -22 -23 -56 -39 -34 -16 -64 -31 -67 -35 -3 -4 -25 -17 -50 -31 -25
-13 -48 -28 -51 -33 -4 -5 -14 -6 -23 -3 -9 4 -15 1 -13 -5 1 -7 -8 -17 -20
-23 -13 -5 -23 -13 -23 -17 0 -5 -5 -8 -10 -8 -6 0 -20 -9 -32 -20 -12 -11
-27 -20 -34 -20 -6 0 -15 -7 -18 -16 -4 -9 -13 -14 -22 -10 -8 3 -13 2 -10 -3
3 -5 -6 -17 -21 -27 -15 -9 -39 -28 -52 -40 -14 -13 -29 -20 -34 -17 -6 3 -7
1 -3 -6 4 -6 0 -14 -9 -17 -31 -12 -235 -209 -341 -330 -32 -37 -66 -75 -75
-84 -8 -9 -19 -24 -22 -34 -4 -10 -12 -14 -19 -10 -7 4 -10 4 -6 -1 6 -6 -22
-57 -42 -75 -3 -3 -18 -24 -34 -47 -16 -24 -32 -40 -37 -37 -5 3 -6 -3 -2 -12
3 -10 0 -22 -8 -28 -14 -11 -27 -32 -74 -118 -14 -27 -30 -48 -35 -48 -6 0 -9
-3 -8 -7 3 -10 -34 -86 -45 -94 -5 -3 -9 -10 -9 -15 -3 -27 -12 -43 -21 -37
-5 3 -7 1 -3 -5 3 -6 -7 -39 -24 -74 -16 -35 -43 -98 -58 -141 -16 -42 -30
-75 -33 -73 -2 2 -5 -7 -5 -20 -1 -13 -5 -32 -9 -42 -5 -9 -10 -26 -12 -37 -2
-10 -9 -23 -16 -27 -6 -4 -9 -8 -5 -8 3 0 0 -24 -7 -52 -8 -29 -16 -64 -19
-78 -3 -14 -15 -68 -26 -120 -19 -85 -32 -163 -33 -197 0 -7 -3 -13 -6 -13 -3
0 -7 -33 -8 -73 -1 -39 -5 -94 -8 -122 -3 -27 -6 -57 -6 -65 2 -112 2 -147 1
-155 -2 -6 -2 -12 -1 -15 8 -21 5 -108 -3 -119 -8 -11 -8 -13 2 -7 9 5 12 -6
13 -46 3 -82 6 -122 12 -138 3 -8 8 -35 11 -60 3 -25 8 -63 12 -85 4 -22 8
-50 8 -62 1 -13 4 -23 9 -23 4 0 7 -12 7 -27 0 -16 7 -46 15 -69 7 -23 16 -52
18 -65 2 -13 14 -58 26 -99 22 -71 29 -90 50 -142 19 -48 36 -93 36 -98 1 -6
33 -77 46 -102 5 -10 9 -24 9 -32 0 -8 3 -16 8 -18 13 -6 82 -149 76 -159 -3
-5 0 -8 8 -7 7 2 12 -5 12 -14 -1 -10 2 -15 7 -12 5 3 9 -1 9 -9 0 -8 7 -20
15 -27 9 -7 14 -19 11 -26 -3 -8 0 -13 7 -11 7 1 12 -5 12 -13 0 -8 8 -21 18
-28 9 -7 15 -18 12 -23 -4 -5 -1 -9 5 -9 6 0 14 -8 17 -17 4 -9 12 -24 19 -33
7 -8 36 -46 64 -85 50 -68 102 -134 147 -183 13 -13 20 -30 16 -36 -3 -6 -2
-8 2 -3 11 9 66 -43 59 -55 -3 -5 -2 -7 3 -6 5 2 41 -28 80 -67 82 -82 162
-151 255 -222 37 -28 64 -55 60 -60 -4 -4 -3 -5 2 -1 4 4 54 -23 110 -60 141
-93 134 -89 276 -163 36 -19 67 -36 70 -39 3 -3 12 -6 20 -8 8 -2 35 -14 60
-26 25 -13 49 -23 53 -23 18 -2 67 -26 67 -34 0 -5 7 -6 15 -3 8 4 21 2 28 -3
6 -6 33 -16 59 -24 26 -7 45 -15 43 -18 -2 -4 13 -7 32 -9 19 -1 43 -7 54 -13
11 -6 29 -12 40 -14 10 -2 45 -10 77 -18 31 -8 87 -20 124 -28 43 -8 65 -16
61 -23 -4 -6 0 -6 8 1 9 7 20 8 29 3 8 -5 18 -6 22 -4 4 3 8 2 8 -3 0 -4 19
-8 43 -9 23 0 83 -4 132 -9 50 -4 101 -8 115 -9 14 -1 30 -5 37 -9 6 -4 14 -1
16 5 4 10 6 10 6 0 1 -7 6 -10 13 -6 10 6 178 10 203 4 6 -1 12 -1 15 0 7 3
41 6 145 14 111 8 145 13 152 20 4 3 13 0 21 -7 13 -9 14 -9 8 0 -5 9 0 13 16
12 13 0 39 4 58 9 20 5 43 8 53 6 9 -1 17 2 17 8 0 6 9 8 20 5 11 -3 22 -2 25
3 2 4 24 11 47 15 24 5 45 9 48 10 3 1 19 5 35 9 28 8 220 71 295 98 19 7 37
15 40 18 12 13 94 39 103 33 6 -3 7 -1 4 4 -8 13 20 26 35 16 7 -3 8 -1 4 5
-6 11 13 17 37 13 5 -1 6 3 3 8 -3 5 14 17 39 28 25 10 45 21 45 26 0 4 9 7
19 7 11 0 21 4 23 9 2 5 10 11 18 13 8 2 23 11 34 21 11 9 26 17 33 17 7 0 13
4 13 9 0 5 13 14 30 21 16 7 42 23 57 36 16 13 34 22 41 19 7 -3 10 -1 7 5 -7
11 29 32 40 22 5 -4 5 -2 1 5 -4 7 2 17 14 23 11 6 45 31 75 56 30 24 55 41
55 37 0 -4 7 3 16 15 8 12 20 19 26 16 6 -4 9 -3 6 2 -3 5 0 15 8 22 8 7 14 9
14 5 0 -4 5 0 11 10 6 9 15 15 20 11 5 -3 8 -2 7 3 -4 10 193 209 204 206 4
-2 7 1 5 6 -1 5 19 33 44 62 59 69 209 269 209 278 0 4 8 16 18 27 9 10 23 30
30 44 7 14 23 43 37 65 14 22 31 51 38 65 6 14 14 27 17 30 3 3 22 37 41 77
20 40 40 69 44 65 5 -4 5 -2 1 5 -6 12 21 82 37 94 5 3 8 10 8 15 -2 11 40
127 48 134 3 3 7 16 9 30 1 13 6 27 10 30 4 3 7 10 8 15 2 29 17 74 24 70 3
-2 6 6 5 18 -1 12 1 27 6 32 4 6 7 13 7 18 1 6 20 101 28 130 1 4 2 14 3 23 0
8 4 13 9 11 4 -3 7 9 7 26 1 29 3 47 22 146 7 43 10 67 12 109 0 18 5 31 10
27 5 -3 13 -1 16 5 4 6 1 9 -6 8 -9 -2 -12 11 -9 47 2 28 3 65 4 83 0 17 4 32
9 32 4 0 5 5 1 12 -9 15 -11 108 -2 108 4 0 3 13 -2 29 -4 15 -4 34 1 42 4 8
3 19 -3 26 -8 10 -7 13 3 13 9 0 10 3 4 8 -6 4 -11 16 -11 27 0 11 5 23 11 27
7 5 6 8 -1 8 -7 0 -12 15 -13 33 0 17 -3 55 -6 82 -3 28 -7 70 -9 95 -5 53
-14 104 -25 145 -4 17 -7 40 -6 53 1 12 -2 22 -6 22 -4 0 -8 8 -8 18 0 18 -3
33 -14 67 -3 11 -8 31 -11 45 -3 14 -9 40 -15 58 -5 17 -7 32 -4 32 3 0 1 6
-5 13 -6 7 -13 24 -16 37 -5 25 -46 138 -85 236 -11 29 -17 55 -13 59 4 5 1 5
-5 1 -7 -4 -13 -2 -13 4 0 14 -53 125 -96 202 -18 31 -30 59 -26 62 3 3 0 6
-6 6 -7 0 -12 5 -12 10 0 6 -8 23 -18 38 -10 15 -38 56 -62 91 -24 35 -43 70
-43 77 0 8 -2 12 -5 9 -8 -8 -61 69 -55 79 4 5 2 6 -4 3 -5 -3 -17 8 -27 24
-10 17 -30 43 -44 58 -15 16 -40 45 -57 65 -38 46 -294 304 -303 306 -4 1 -28
21 -54 44 -27 24 -48 42 -48 40 0 -3 -113 80 -153 112 -9 8 -22 14 -27 14 -6
0 -10 5 -10 10 0 6 -5 10 -10 10 -12 0 -71 40 -82 55 -4 6 -8 7 -8 2 0 -9 -82
41 -92 57 -4 6 -8 8 -8 4 0 -8 -203 92 -211 105 -3 5 -8 7 -10 6 -2 -1 -20 3
-39 10 -19 6 -35 11 -35 9 0 -1 -13 5 -30 14 -28 15 -59 27 -70 28 -3 0 -19 7
-35 15 -16 8 -33 16 -37 16 -26 2 -93 25 -93 32 0 4 -4 6 -9 3 -5 -3 -27 1
-50 9 -23 8 -41 12 -41 10 0 -2 -15 1 -32 6 -40 12 -42 13 -140 33 -42 9 -92
18 -110 21 -18 2 -51 7 -73 10 -81 12 -303 28 -350 26 -107 -6 -145 -4 -145 4
0 7 -3 7 -8 0 -8 -11 -32 -13 -48 -3 -6 4 -15 3 -20 -1z"/>
<path d="M776 4602 c-3 -5 1 -9 9 -9 8 0 12 4 9 9 -3 4 -7 8 -9 8 -2 0 -6 -4
-9 -8z"/>
</g>
</svg>
