<svg width="175" height="76" viewBox="0 0 175 76" fill="none" xmlns="http://www.w3.org/2000/svg">
<path d="M124.26 6.91144V9.71232H148.709C150.748 9.48764 152.796 10.0453 154.425 11.2684C155.672 12.8644 156.241 14.872 156.012 16.8701V40.491C156.241 42.4891 155.672 44.4967 154.425 46.0927C152.779 47.2821 150.745 47.8361 148.709 47.6488H136.961C135.056 47.6488 132.198 47.6488 131.246 45.4703C130.935 44.4856 130.92 43.4343 131.202 42.4413C131.483 41.4484 132.049 40.5554 132.833 39.8685L148.709 19.3287H124.26L114.353 32.1194C112.68 33.834 111.574 36.0031 111.178 38.3436C111.379 40.7419 112.516 42.9717 114.353 44.5678L116.894 47.6799C118.953 50.7906 121.658 53.4415 124.832 55.4602C128.787 56.8876 133.02 57.4196 137.215 57.0162H147.693C153.726 57.0162 162.934 57.0162 168.967 51.1032C175 45.1902 175 36.4764 175 33.3643V23.7168C175 20.6047 175 11.8908 168.967 5.97781C162.934 0.064821 153.79 0.0337001 147.757 0.0337001H130.928C128.991 -0.147931 127.058 0.409422 125.53 1.58975C124.542 3.18676 124.097 5.05042 124.26 6.91144ZM95.048 19.0486H119.497L90.2852 57.0162H65.8361L95.048 19.0486ZM1.69668 20.9159C1.06897 21.5785 0.596098 22.3672 0.310956 23.2271C0.0258131 24.087 -0.0647492 24.9975 0.0455694 25.8952V28.6961H9.88874V76H29.2576V28.6961H48.3089C50.214 28.6961 53.0717 28.6961 54.0243 30.8746C54.3344 31.8593 54.3497 32.9106 54.0682 33.9036C53.7868 34.8965 53.2205 35.7895 52.4366 36.4764L36.5606 57.0162H61.0097L70.8529 44.2566C72.5259 42.5421 73.6325 40.3729 74.0281 38.0324C73.8276 35.6342 72.6901 33.4044 70.8529 31.8082L68.3127 28.6961C66.2531 25.5855 63.5484 22.9346 60.3747 20.9159C56.4195 19.4884 52.186 18.9565 47.9913 19.3598H7.09455C6.13625 19.1004 5.12306 19.1087 4.16928 19.3836C3.2155 19.6586 2.3591 20.1893 1.69668 20.9159Z" fill="white"/>
</svg>
