<svg width="346" height="676" viewBox="0 0 346 676" fill="none" xmlns="http://www.w3.org/2000/svg">
<path d="M251.953 396.391C251.953 386.68 244.081 378.808 234.371 378.808C224.66 378.808 216.788 386.68 216.788 396.391C216.788 406.101 224.66 413.973 234.371 413.973C244.081 413.973 251.953 406.101 251.953 396.391Z" fill="white"/>
<path d="M216.788 396.391L216.788 396.401C220.307 398.973 224.551 400.363 228.91 400.371C237.772 400.371 245.405 394.658 248.864 386.437C246.739 383.343 243.68 381.011 240.135 379.78C236.59 378.55 232.744 378.487 229.159 379.599C225.575 380.711 222.441 382.941 220.215 385.962C217.989 388.984 216.788 392.638 216.788 396.391Z" fill="#F9F9F9"/>
<path d="M281.187 590.602C281.187 583.827 275.695 578.335 268.92 578.335C262.146 578.335 256.653 583.827 256.653 590.602C256.653 597.377 262.146 602.869 268.92 602.869C275.695 602.869 281.187 597.377 281.187 590.602Z" fill="white"/>
<path d="M68.491 12.2671C68.491 5.49219 62.9989 6.97396e-05 56.224 7.00357e-05C49.4491 7.03318e-05 43.957 5.49219 43.957 12.2671C43.957 19.0419 49.4491 24.5341 56.224 24.5341C62.9989 24.5341 68.491 19.0419 68.491 12.2671Z" fill="white"/>
<path d="M268.92 602.869C271.114 602.869 273.268 602.281 275.158 601.166C277.047 600.05 278.602 598.449 279.662 596.527C276.412 594.154 272.662 592.557 268.699 591.86C264.736 591.164 260.666 591.385 256.802 592.508C257.256 595.395 258.727 598.026 260.949 599.925C263.17 601.825 265.997 602.868 268.92 602.869Z" fill="#F9F9F9"/>
<path d="M56.2241 24.5341C58.418 24.5346 60.572 23.9466 62.4612 22.8312C64.3505 21.7159 65.9059 20.114 66.9653 18.1928C63.716 15.8193 59.9656 14.2227 56.0025 13.5258C52.0394 12.829 47.9693 13.0505 44.1052 14.1733C44.5599 17.0608 46.0306 19.691 48.2524 21.5905C50.4741 23.4899 53.3011 24.5338 56.2241 24.5341Z" fill="#F9F9F9"/>
<path d="M28.0304 483.209C28.0304 478.949 24.577 475.496 20.317 475.496C16.057 475.496 12.6036 478.949 12.6036 483.209C12.6036 487.469 16.057 490.923 20.317 490.923C24.577 490.923 28.0304 487.469 28.0304 483.209Z" fill="white"/>
<path d="M43.4572 421.051C43.4572 416.791 40.0038 413.338 35.7438 413.338C31.4838 413.338 28.0304 416.791 28.0304 421.051C28.0304 425.311 31.4838 428.765 35.7438 428.765C40.0038 428.765 43.4572 425.311 43.4572 421.051Z" fill="white"/>
<path d="M29.6087 465.887C29.6087 457.711 22.9805 451.083 14.8043 451.083C6.62812 451.083 -1.00451e-06 457.711 -6.47118e-07 465.887C-2.89725e-07 474.063 6.62812 480.691 14.8043 480.691C22.9805 480.691 29.6087 474.063 29.6087 465.887Z" fill="white"/>
<path d="M50.0105 443.653C50.0105 432.729 41.1549 423.873 30.231 423.873C19.3071 423.873 10.4515 432.729 10.4515 443.653C10.4515 454.577 19.3071 463.432 30.231 463.432C41.1549 463.432 50.0105 454.577 50.0105 443.653Z" fill="white"/>
<path d="M11.1808 438.316C9.80895 443.234 10.3868 448.493 12.7941 452.996C15.0081 451.67 16.5177 449.036 16.5177 446.001C16.5177 442.275 14.2425 439.152 11.1808 438.316Z" fill="#F9F9F9"/>
<path d="M25.9136 462.958C30.6673 464.017 35.6442 463.289 39.8955 460.913C39.1018 459.641 37.9546 458.628 36.5942 457.998C35.2339 457.367 33.7193 457.147 32.2358 457.364C30.7524 457.581 29.3643 458.226 28.2415 459.219C27.1186 460.213 26.3097 461.512 25.9136 462.958Z" fill="#F9F9F9"/>
<path d="M32.5727 414.02C30.7561 414.839 29.327 416.329 28.585 418.179C27.843 420.028 27.8457 422.093 28.5925 423.941C23.429 424.366 18.6398 426.805 15.2584 430.73C16.3168 432.015 17.6297 433.067 19.1144 433.82C20.5991 434.573 22.2236 435.011 23.8857 435.106C25.5478 435.201 27.2115 434.951 28.7723 434.372C30.3332 433.793 31.7573 432.897 32.9552 431.741C34.1531 430.585 35.0988 429.194 35.733 427.654C36.3671 426.115 36.676 424.461 36.64 422.797C36.6041 421.132 36.2242 419.493 35.5243 417.983C34.8243 416.472 33.8194 415.123 32.5727 414.02Z" fill="#F9F9F9"/>
<path d="M22.9831 404.519C22.9831 401.141 20.2448 398.403 16.867 398.403C13.4891 398.403 10.7509 401.141 10.7509 404.519C10.7509 407.897 13.4891 410.635 16.867 410.635C20.2448 410.635 22.9831 407.897 22.9831 404.519Z" fill="white"/>
<path d="M291.367 622.347C291.367 607.839 279.606 596.077 265.098 596.077C250.59 596.077 238.828 607.839 238.828 622.347C238.828 636.855 250.59 648.616 265.098 648.616C279.606 648.616 291.367 636.855 291.367 622.347Z" fill="white"/>
<path d="M78.6707 44.0121C78.6707 29.504 66.9096 17.7428 52.4015 17.7428C37.8934 17.7428 26.1322 29.504 26.1322 44.0121C26.1322 58.5202 37.8934 70.2814 52.4015 70.2814C66.9096 70.2814 78.6707 58.5202 78.6707 44.0121Z" fill="white"/>
<path d="M248.881 374.264C248.881 361.101 238.21 350.43 225.047 350.43C211.884 350.43 201.213 361.101 201.213 374.264C201.213 387.428 211.884 398.099 225.047 398.099C238.21 398.099 248.881 387.428 248.881 374.264Z" fill="white"/>
<path d="M237.216 322.326C237.216 315.605 231.767 310.157 225.047 310.157C218.326 310.157 212.878 315.605 212.878 322.326C212.878 329.046 218.326 334.494 225.047 334.494C231.767 334.494 237.216 329.046 237.216 322.326Z" fill="white"/>
<path d="M251.16 347.753C251.16 341.172 245.824 335.836 239.243 335.836C232.661 335.836 227.325 341.172 227.325 347.753C227.325 354.335 232.661 359.671 239.243 359.671C245.824 359.671 251.16 354.335 251.16 347.753Z" fill="white"/>
<path d="M226.739 347.753C226.739 348.704 226.857 349.652 227.089 350.574C226.19 350.478 225.286 350.43 224.382 350.43C221.163 350.425 217.972 351.035 214.982 352.227C216.532 354.24 218.527 355.867 220.81 356.983C223.093 358.099 225.602 358.672 228.143 358.659C237.171 358.659 244.489 351.583 244.489 342.854C244.491 340.661 244.021 338.493 243.113 336.497C241.808 336.059 240.44 335.835 239.063 335.836C232.257 335.836 226.739 341.171 226.739 347.753Z" fill="#F9F9F9"/>
<path d="M236.391 418.347C236.391 412.595 231.729 407.933 225.978 407.933C220.226 407.933 215.564 412.595 215.564 418.347C215.564 424.098 220.226 428.76 225.978 428.76C231.729 428.76 236.391 424.098 236.391 418.347Z" fill="white"/>
<path d="M218.327 375.848C212.805 373.231 206.373 375.237 203.961 380.327C201.55 385.417 204.071 391.665 209.594 394.281C215.116 396.898 221.548 394.893 223.96 389.802C226.372 384.712 223.85 378.464 218.327 375.848Z" fill="#F9F9F9"/>
<path d="M221.754 384.681C221.754 378.929 217.092 374.267 211.34 374.267C205.589 374.267 200.927 378.929 200.927 384.681C200.927 390.432 205.589 395.094 211.34 395.094C217.092 395.094 221.754 390.432 221.754 384.681Z" fill="white"/>
<path d="M252.249 648.403C255.683 651.088 259.817 652.729 264.158 653.13C268.499 653.531 272.863 652.676 276.732 650.666C276.553 647.7 275.318 644.895 273.251 642.76C271.184 640.626 268.42 639.302 265.461 639.028C262.502 638.755 259.543 639.55 257.119 641.269C254.695 642.989 252.968 645.52 252.249 648.403Z" fill="#F9F9F9"/>
<path d="M39.5522 70.0687C42.9867 72.7536 47.1207 74.3943 51.4615 74.7955C55.8024 75.1967 60.167 74.3413 64.0353 72.3314C63.8569 69.365 62.6222 66.5605 60.5548 64.4257C58.4874 62.2909 55.7239 60.9669 52.7648 60.6935C49.8056 60.42 46.8463 61.2151 44.4227 62.9348C41.9991 64.6546 40.2713 67.1853 39.5522 70.0687Z" fill="#F9F9F9"/>
<path d="M267.553 668.709C267.553 664.726 264.324 661.498 260.341 661.498C256.359 661.498 253.13 664.726 253.13 668.709C253.13 672.691 256.359 675.92 260.341 675.92C264.324 675.92 267.553 672.691 267.553 668.709Z" fill="white"/>
<path d="M54.8563 90.3732C54.8563 86.3906 51.6277 83.162 47.6451 83.162C43.6624 83.162 40.4338 86.3906 40.4338 90.3732C40.4338 94.3559 43.6624 97.5845 47.6451 97.5845C51.6277 97.5845 54.8563 94.3559 54.8563 90.3732Z" fill="white"/>
<path d="M258.074 584.871C257.087 586.741 256.599 588.834 256.658 590.948C256.718 593.063 257.323 595.125 258.414 596.937C254.548 597.958 250.965 599.846 247.937 602.458C244.91 605.071 242.517 608.338 240.94 612.013C242.711 613.496 244.778 614.583 247.004 615.201C249.229 615.819 251.56 615.954 253.842 615.597C256.124 615.239 258.303 614.398 260.232 613.13C262.162 611.861 263.798 610.195 265.031 608.242C266.264 606.289 267.065 604.095 267.38 601.807C267.695 599.519 267.517 597.19 266.858 594.977C266.2 592.764 265.075 590.717 263.56 588.974C262.045 587.231 260.175 585.832 258.074 584.871Z" fill="#F9F9F9"/>
<path d="M45.3782 6.53537C44.3903 8.40532 43.9024 10.4989 43.9619 12.6129C44.0214 14.7269 44.6263 16.7897 45.7178 18.6011C41.8516 19.6223 38.2688 21.5106 35.2412 24.1229C32.2135 26.7351 29.8207 30.0026 28.2441 33.6776C30.0148 35.1602 32.082 36.2471 34.3072 36.8651C36.5324 37.4832 38.8641 37.6181 41.1457 37.2609C43.4274 36.9038 45.6062 36.0627 47.5361 34.7942C49.466 33.5257 51.1022 31.8591 52.335 29.9062C53.5678 27.9533 54.3686 25.7594 54.6838 23.4715C54.9989 21.1837 54.8211 18.8549 54.1622 16.6415C53.5033 14.428 52.3787 12.3811 50.8636 10.638C49.3486 8.895 47.4783 7.49615 45.3782 6.53537Z" fill="#F9F9F9"/>
<path d="M264.721 601.005C264.721 592.838 258.1 586.217 249.933 586.217C241.766 586.217 235.145 592.838 235.145 601.005C235.145 609.172 241.766 615.793 249.933 615.793C258.1 615.793 264.721 609.172 264.721 601.005Z" fill="white"/>
<path d="M52.0248 22.6705C52.0248 14.5034 45.404 7.88255 37.2368 7.88255C29.0696 7.88255 22.4489 14.5034 22.4489 22.6705C22.4489 30.8377 29.0696 37.4585 37.2368 37.4585C45.404 37.4585 52.0248 30.8377 52.0248 22.6705Z" fill="white"/>
<path d="M256.105 647.036C255.322 648.418 254.841 649.951 254.696 651.533C258.462 650.166 261.132 646.754 261.132 642.758C261.132 637.557 256.612 633.341 251.036 633.341C249.554 633.329 248.086 633.635 246.731 634.238C245.377 634.842 244.168 635.729 243.186 636.84C246.293 641.531 250.82 645.104 256.105 647.036Z" fill="#F9F9F9"/>
<path d="M43.4082 68.7006C42.6252 70.0829 42.1451 71.6158 41.9995 73.1978C45.7655 71.8305 48.4359 68.4183 48.4359 64.4222C48.4359 59.2217 43.9158 55.006 38.34 55.006C36.8573 54.9935 35.3892 55.2993 34.0349 55.9028C32.6805 56.5063 31.4714 57.3933 30.4893 58.5041C33.5964 63.1952 38.1236 66.7684 43.4082 68.7006Z" fill="#F9F9F9"/>
<path d="M257.651 643.428C257.651 638.228 253.435 634.012 248.235 634.012C243.034 634.012 238.819 638.228 238.819 643.428C238.819 648.628 243.034 652.844 248.235 652.844C253.435 652.844 257.651 648.628 257.651 643.428Z" fill="white"/>
<path d="M44.9546 65.0933C44.9546 59.8929 40.7389 55.6772 35.5385 55.6772C30.3381 55.6772 26.1223 59.8929 26.1223 65.0934C26.1223 70.2938 30.3381 74.5095 35.5385 74.5095C40.7389 74.5095 44.9546 70.2938 44.9546 65.0933Z" fill="white"/>
<path d="M239.908 343.866C239.908 335.136 232.831 328.06 224.102 328.06C215.372 328.06 208.296 335.136 208.296 343.866C208.296 352.595 215.373 359.672 224.102 359.672C232.831 359.672 239.908 352.595 239.908 343.866Z" fill="white"/>
<path d="M340.394 176.341C340.394 167.03 332.846 159.482 323.535 159.482C314.224 159.482 306.676 167.03 306.676 176.341C306.676 185.652 314.224 193.2 323.535 193.2C332.846 193.2 340.394 185.652 340.394 176.341Z" fill="white"/>
<path d="M323.535 193.2C326.431 193.201 329.278 192.457 331.802 191.037C334.326 189.618 336.442 187.572 337.945 185.097C334.005 181.366 328.848 179.189 323.427 178.967C318.007 178.745 312.689 180.494 308.458 183.89C309.859 186.688 312.012 189.042 314.675 190.686C317.337 192.33 320.405 193.201 323.535 193.2Z" fill="#F9F9F9"/>
<path d="M316.753 184.853C316.753 180.243 313.016 176.505 308.406 176.505C303.796 176.505 300.059 180.243 300.059 184.853C300.059 189.463 303.796 193.2 308.406 193.2C313.016 193.2 316.753 189.463 316.753 184.853Z" fill="white"/>
<path d="M314.566 190.618C315.631 190.161 316.59 189.488 317.38 188.641C318.171 187.793 318.776 186.791 319.158 185.697C319.54 184.603 319.69 183.441 319.598 182.286C319.506 181.131 319.175 180.008 318.626 178.987C318.077 177.967 317.321 177.073 316.407 176.36C315.493 175.648 314.44 175.134 313.317 174.851C312.193 174.568 311.023 174.522 309.88 174.716C308.738 174.909 307.648 175.339 306.681 175.977C306.678 176.098 306.676 176.219 306.676 176.341C306.675 179.194 307.398 182.001 308.778 184.498C310.158 186.995 312.15 189.101 314.566 190.618Z" fill="#F9F9F9"/>
<path d="M345.725 204.183C345.725 191.784 335.673 181.732 323.274 181.732C310.874 181.732 300.823 191.784 300.823 204.183C300.823 216.582 310.874 226.634 323.274 226.634C335.673 226.634 345.725 216.582 345.725 204.183Z" fill="white"/>
<path d="M316.753 184.853C316.753 180.243 313.016 176.505 308.406 176.505C303.796 176.505 300.059 180.243 300.059 184.853C300.059 189.463 303.796 193.2 308.406 193.2C313.016 193.2 316.753 189.463 316.753 184.853Z" fill="white"/>
<path d="M321.497 165.033C323.054 165.033 324.58 164.597 325.903 163.775C327.225 162.954 328.292 161.778 328.981 160.382C326.673 159.597 324.223 159.321 321.798 159.573C319.373 159.824 317.031 160.598 314.934 161.84C315.714 162.835 316.71 163.64 317.847 164.193C318.984 164.746 320.232 165.033 321.497 165.033Z" fill="#F9F9F9"/>
<path d="M326.036 157.846C326.036 153.236 322.299 149.498 317.689 149.498C313.079 149.498 309.341 153.236 309.341 157.846C309.341 162.456 313.079 166.193 317.689 166.193C322.299 166.193 326.036 162.456 326.036 157.846Z" fill="white"/>
<path d="M310.682 222.773C314.559 225.397 319.158 226.745 323.838 226.627C328.518 226.509 333.044 224.931 336.783 222.115C335.521 219.708 333.611 217.703 331.268 216.327C328.926 214.95 326.245 214.257 323.528 214.325C320.812 214.393 318.169 215.221 315.899 216.714C313.628 218.207 311.821 220.306 310.682 222.773Z" fill="#F9F9F9"/>
<path d="M326.265 246.998C326.265 243.343 323.302 240.38 319.648 240.38C315.993 240.38 313.03 243.343 313.03 246.998C313.03 250.653 315.993 253.615 319.648 253.615C323.302 253.615 326.265 250.653 326.265 246.998Z" fill="white"/>
<path d="M313.723 244.048C315.534 245.249 317.59 246.03 319.741 246.333C321.892 246.637 324.084 246.455 326.156 245.802C325.905 244.436 325.231 243.184 324.228 242.222C323.226 241.261 321.947 240.639 320.572 240.445C319.196 240.251 317.795 240.494 316.566 241.141C315.337 241.788 314.342 242.805 313.723 244.048Z" fill="#F9F9F9"/>
<path d="M333.754 229.642C333.754 221.604 327.238 215.088 319.2 215.088C311.162 215.088 304.646 221.604 304.646 229.642C304.646 237.68 311.162 244.195 319.2 244.195C327.238 244.195 333.754 237.68 333.754 229.642Z" fill="white"/>
<path d="M37.322 464.997C37.322 460.737 33.8686 457.284 29.6087 457.284C25.3487 457.284 21.8953 460.737 21.8953 464.997C21.8953 469.257 25.3487 472.711 29.6087 472.711C33.8686 472.711 37.322 469.257 37.322 464.997Z" fill="white"/>
<path d="M34.5909 424.573C34.5909 417.907 29.1871 412.503 22.5212 412.503C15.8553 412.503 10.4515 417.907 10.4515 424.573C10.4515 431.239 15.8553 436.642 22.5212 436.642C29.1871 436.642 34.5909 431.239 34.5909 424.573Z" fill="white"/>
<path d="M15.4155 447.941C15.4155 444.087 12.2911 440.963 8.43704 440.963C4.58297 440.963 1.45862 444.087 1.45862 447.941C1.45862 451.795 4.58297 454.92 8.43704 454.92C12.2911 454.92 15.4155 451.795 15.4155 447.941Z" fill="white"/>
<path d="M277.194 652.579C277.194 646.352 272.146 641.305 265.92 641.305C259.694 641.305 254.647 646.352 254.647 652.579C254.647 658.805 259.694 663.852 265.92 663.852C272.146 663.852 277.194 658.805 277.194 652.579Z" fill="white"/>
<path d="M64.4972 74.243C64.4972 68.0168 59.45 62.9696 53.2238 62.9696C46.9977 62.9696 41.9504 68.0168 41.9504 74.243C41.9504 80.4691 46.9977 85.5164 53.2238 85.5164C59.45 85.5164 64.4972 80.4691 64.4972 74.243Z" fill="white"/>
</svg>
