<svg width="45" height="54" viewBox="0 0 45 54" fill="none" xmlns="http://www.w3.org/2000/svg">
<g clip-path="url(#clip0_6266_40051)">
<path d="M15.5972 14.8879V2.54688H28.5262V14.8879" stroke="#67D672" stroke-width="5" stroke-linecap="round" stroke-linejoin="round"/>
<path d="M33.8465 25.689L40.7835 39.7722C41.388 40.9993 41.6697 42.3603 41.6021 43.7265C41.5345 45.0928 41.1198 46.4193 40.3972 47.5808C39.6746 48.7422 38.6679 49.7004 37.4721 50.3648C36.2763 51.0291 34.9309 51.3778 33.563 51.3778H10.5592C9.19126 51.3778 7.8459 51.0291 6.65012 50.3648C5.45435 49.7004 4.44763 48.7423 3.725 47.5808C3.00237 46.4193 2.58768 45.0928 2.52009 43.7265C2.45249 42.3603 2.73422 40.9993 3.33867 39.7722L15.5967 14.8867" stroke="#67D672" stroke-width="5" stroke-linecap="round" stroke-linejoin="round"/>
<path d="M9.41748 2.54688H34.7043" stroke="#67D672" stroke-width="5" stroke-linecap="round" stroke-linejoin="round"/>
<path d="M6.60938 33.1328H18.784" stroke="#67D672" stroke-width="5" stroke-linecap="round" stroke-linejoin="round"/>
<path d="M11.5879 23.0273H18.784" stroke="#67D672" stroke-width="5" stroke-linecap="round" stroke-linejoin="round"/>
</g>
<defs>
<clipPath id="clip0_6266_40051">
<rect width="44.1222" height="53.8323" fill="white" transform="translate(0 0.046875)"/>
</clipPath>
</defs>
</svg>
