<svg width="262" height="28" viewBox="0 0 262 28" fill="none" xmlns="http://www.w3.org/2000/svg">
<path d="M4.29496 27.6111H0V0.388889H4.29496V27.6111Z" fill="#67D672"/>
<path d="M26.1566 27.6111L13.4279 3.5V27.6111H9.1329V0.388889H16.5905L29.3192 24.5389V0.388889H33.6142V27.6111H26.1566Z" fill="#67D672"/>
<path d="M38.4747 27.6111V0.388889H58.1925V4.47222H42.7696V12.25H57.0211V16.3333H42.7696V27.6111H38.4747Z" fill="#67D672"/>
<path d="M74.6051 28C71.9761 28 69.5683 27.3778 67.3818 26.1333C65.2213 24.8889 63.5033 23.2037 62.2278 21.0778C60.9784 18.9259 60.3537 16.5667 60.3537 14C60.3537 11.4333 60.9784 9.08704 62.2278 6.96111C63.5033 4.80926 65.2213 3.11111 67.3818 1.86667C69.5683 0.622222 71.9761 0 74.6051 0C77.2342 0 79.6289 0.622222 81.7894 1.86667C83.976 3.11111 85.694 4.80926 86.9434 6.96111C88.2189 9.08704 88.8566 11.4333 88.8566 14C88.8566 16.5667 88.2189 18.9259 86.9434 21.0778C85.694 23.2037 83.976 24.8889 81.7894 26.1333C79.6289 27.3778 77.2342 28 74.6051 28ZM74.6051 23.9167C76.4012 23.9167 78.0411 23.5019 79.5248 22.6722C81.0085 21.8426 82.1799 20.6759 83.0389 19.1722C83.9239 17.6685 84.3664 15.9444 84.3664 14C84.3664 12.0556 83.9369 10.3315 83.0779 8.82778C82.2189 7.32408 81.0476 6.15741 79.5639 5.32778C78.0802 4.49815 76.4272 4.08333 74.6051 4.08333C72.783 4.08333 71.1301 4.51111 69.6464 5.36667C68.1627 6.1963 66.9913 7.36296 66.1324 8.86667C65.2734 10.3704 64.8439 12.0944 64.8439 14.0389C64.8439 15.9833 65.2734 17.7074 66.1324 19.2111C67.0174 20.7148 68.2017 21.8815 69.6855 22.7111C71.1692 23.5148 72.8091 23.9167 74.6051 23.9167Z" fill="#67D672"/>
<path d="M114.761 21.8167C112.809 25.9389 109.503 28 104.844 28C102.267 28 99.9501 27.4037 97.8937 26.2111C95.8634 25.0185 94.2625 23.3593 93.0912 21.2333C91.9458 19.1074 91.3732 16.6963 91.3732 14C91.3732 11.3815 91.9589 9.00926 93.1302 6.88333C94.3276 4.73148 95.9675 3.0463 98.0499 1.82778C100.132 0.60926 102.462 0 105.039 0C108.605 0 111.507 0.881481 113.746 2.64444C116.011 4.38148 117.507 6.67593 118.236 9.52778L113.941 10.8889C113.473 8.60741 112.471 6.90926 110.935 5.79444C109.399 4.6537 107.473 4.08333 105.156 4.08333C103.464 4.08333 101.902 4.49815 100.471 5.32778C99.0651 6.13148 97.9458 7.29815 97.1128 8.82778C96.2799 10.3315 95.8634 12.0556 95.8634 14C95.8634 15.9185 96.2668 17.6296 97.0738 19.1333C97.9067 20.637 99.026 21.8167 100.432 22.6722C101.863 23.5019 103.464 23.9167 105.234 23.9167C106.822 23.9167 108.176 23.5796 109.295 22.9056C110.44 22.2056 111.325 21.35 111.95 20.3389C112.575 19.3278 112.978 18.3167 113.16 17.3056H101.33V13.2222H118.431V27.6111H114.761V21.8167Z" fill="#67D672"/>
<path d="M139.438 27.6111C139.1 26.937 138.853 26.1852 138.696 25.3556C138.54 24.5 138.462 23.1778 138.462 21.3889C138.462 19.4963 138.046 18.187 137.213 17.4611C136.38 16.7093 135.169 16.3333 133.582 16.3333H126.944V27.6111H122.649V0.388889H135.729C137.551 0.388889 139.126 0.712963 140.453 1.36111C141.781 2.00926 142.783 2.9037 143.46 4.04444C144.163 5.15926 144.514 6.4037 144.514 7.77778C144.514 9.51481 144.033 11.0056 143.07 12.25C142.106 13.4685 140.766 14.3759 139.048 14.9722C140.375 15.4907 141.404 16.2685 142.132 17.3056C142.861 18.3167 143.265 19.6907 143.343 21.4278C143.421 23.0093 143.525 24.1889 143.655 24.9667C143.811 25.7185 144.163 26.3926 144.709 26.9889V27.6111H139.438ZM135.339 12.25C136.822 12.25 137.968 11.913 138.775 11.2389C139.608 10.5648 140.024 9.60555 140.024 8.36111C140.024 7.11667 139.608 6.15741 138.775 5.48333C137.968 4.80926 136.822 4.47222 135.339 4.47222H126.944V12.25H135.339Z" fill="#67D672"/>
<path d="M151.058 27.6111H146.216L157.461 0.388889H163.396L174.641 27.6111H169.8L167.184 21H153.674L151.058 27.6111ZM160.429 3.92778L155.197 17.1111H165.661L160.429 3.92778Z" fill="#67D672"/>
<path d="M177.138 27.6111V0.388889H196.856V4.47222H181.433V12.25H195.685V16.3333H181.433V27.6111H177.138Z" fill="#67D672"/>
<path d="M205.055 27.6111H200.76V0.388889H205.055V27.6111Z" fill="#67D672"/>
<path d="M232.54 0.388889L222.466 11.0444L233.125 27.6111H227.854L219.42 14.2722L214.188 19.8333V27.6111H209.893V0.388889H214.188V13.8833L226.878 0.388889H232.54Z" fill="#67D672"/>
<path d="M238.417 27.6111H233.575L244.82 0.388889H250.755L262 27.6111H257.158L254.542 21H241.033L238.417 27.6111ZM247.788 3.92778L242.556 17.1111H253.02L247.788 3.92778Z" fill="#67D672"/>
</svg>
