<svg width="453" height="127" viewBox="0 0 453 127" fill="none" xmlns="http://www.w3.org/2000/svg">
<g opacity="0.5">
<path d="M366.945 38.4692H5.28363V105.709H25.0346V116.08H64.586L68.7668 111.482V105.709H114.144V116.08H153.696L157.877 111.482V116.08H197.428L201.609 111.482V126.452H241.16L245.341 121.853V116.08H284.892L289.073 111.482V105.709H315.171V116.08H354.722L358.903 111.482V105.709H366.945C403.201 105.709 434.349 91.7699 434.349 73.2831C434.349 54.7964 403.201 38.4692 366.945 38.4692Z" fill="#BEBEBE"/>
</g>
<path d="M20.6846 72.0888H382.346C418.602 72.0888 449.75 58.1499 449.75 39.6631C449.75 21.1763 418.602 4.84912 382.346 4.84912H20.6846V72.0888Z" fill="#BCCECB"/>
<path d="M382.346 4.84933C418.602 4.84933 449.75 21.1765 449.75 39.6633C449.75 58.15 418.602 72.089 382.346 72.089H20.6848V4.84933H382.346ZM382.346 1.84619H17.6817V75.0922H382.346C400.559 75.0922 417.81 71.6949 430.923 65.5261C445 58.9031 452.753 49.7182 452.753 39.6633C452.753 19.1643 420.511 1.84619 382.346 1.84619Z" fill="#3A8191"/>
<path d="M25.0348 0.250488H16.3351V76.6878H25.0348V0.250488Z" fill="#D2DBD9"/>
<path d="M28.4295 0.250488H25.0346V76.6878H28.4295V0.250488Z" fill="#3A8191"/>
<path d="M35.9142 12.7046H27.2145V64.2335H35.9142V12.7046Z" fill="#D2DBD9"/>
<path d="M43.2221 12.7046H35.914V64.2335H43.2221V12.7046Z" fill="#3A8191"/>
<g style="mix-blend-mode:multiply">
<path d="M10.5674 54.5829L0.835764 43.686C0.297451 43.0833 -9.20299e-05 42.3034 -9.15527e-05 41.4953L-9.15527e-05 35.4431C-9.38747e-05 34.635 0.29745 33.8551 0.835764 33.2523L10.5674 22.3555V54.5829Z" fill="#4F9AAF"/>
</g>
<path d="M29.7424 20.0156H13.4916V55.9474H29.7424L33.726 53.8512V22.1126L29.7424 20.0156Z" fill="#3A8191"/>
<path d="M382.346 4.84912H376.401V72.0888H382.346V4.84912Z" fill="#8AADAA"/>
<path d="M412.624 68.6444C414.665 68.1525 416.646 67.6125 418.569 67.0244V10.6296C416.648 9.97027 414.666 9.36067 412.624 8.80078V68.6444Z" fill="#8AADAA"/>
<path d="M418.569 35.4961H382.346V41.4415H418.569V35.4961Z" fill="#8AADAA"/>
<path d="M399.468 11.917H395.895V26.6166H399.468V11.917Z" fill="#8AADAA"/>
<path d="M392.77 11.917H399.468V14.2083H392.77C392.466 14.2083 392.175 14.0876 391.96 13.8727C391.745 13.6579 391.624 13.3665 391.624 13.0626C391.624 12.7588 391.745 12.4674 391.96 12.2525C392.175 12.0377 392.466 11.917 392.77 11.917Z" fill="#8AADAA"/>
<path d="M397.682 22.5956C399.461 22.5956 400.902 21.1537 400.902 19.375C400.902 17.5962 399.461 16.1543 397.682 16.1543C395.903 16.1543 394.461 17.5962 394.461 19.375C394.461 21.1537 395.903 22.5956 397.682 22.5956Z" fill="#3A8191"/>
<path d="M397.681 21.3041C398.747 21.3041 399.61 20.4405 399.61 19.3752C399.61 18.3099 398.747 17.4463 397.681 17.4463C396.616 17.4463 395.752 18.3099 395.752 19.3752C395.752 20.4405 396.616 21.3041 397.681 21.3041Z" fill="#8AADAA"/>
<path d="M399.468 50.3218H395.895V65.0214H399.468V50.3218Z" fill="#8AADAA"/>
<path d="M392.77 62.73H399.468V65.0213H392.77C392.466 65.0213 392.175 64.9006 391.96 64.6857C391.745 64.4709 391.624 64.1795 391.624 63.8756C391.624 63.7252 391.654 63.5762 391.711 63.4372C391.769 63.2982 391.853 63.1719 391.96 63.0655C392.066 62.9591 392.192 62.8747 392.331 62.8172C392.47 62.7596 392.619 62.73 392.77 62.73Z" fill="#8AADAA"/>
<path d="M397.682 60.7841C399.461 60.7841 400.902 59.3422 400.902 57.5634C400.902 55.7847 399.461 54.3428 397.682 54.3428C395.903 54.3428 394.461 55.7847 394.461 57.5634C394.461 59.3422 395.903 60.7841 397.682 60.7841Z" fill="#3A8191"/>
<path d="M26.818 20.0156H10.5673V55.9474H26.818L30.8025 53.8512V22.1126L26.818 20.0156Z" fill="#D2DBD9"/>
<path d="M397.681 59.6004C398.747 59.6004 399.61 58.7368 399.61 57.6716C399.61 56.6063 398.747 55.7427 397.681 55.7427C396.616 55.7427 395.752 56.6063 395.752 57.6716C395.752 58.7368 396.616 59.6004 397.681 59.6004Z" fill="#8AADAA"/>
<path d="M161.769 0.250488H122.217V20.4082H161.769V0.250488Z" fill="#DEA30A"/>
<path d="M161.769 0.250488V20.4083L165.949 20.9931V4.84904L161.769 0.250488Z" fill="#CE9005"/>
<path d="M161.769 76.688V56.5302L165.949 55.9453V72.0894L161.769 76.688Z" fill="#1E5B40"/>
<path d="M161.769 20.4082H122.217V38.4692H161.769V20.4082Z" fill="#3A8191"/>
<path d="M161.769 38.4692H122.217V56.5302H161.769V38.4692Z" fill="#8AADAA"/>
<path d="M161.769 56.5303H122.217V76.6879H161.769V56.5303Z" fill="#28704A"/>
<path d="M161.769 38.4692H165.949V55.9452L161.769 56.5301V38.4692Z" fill="#6E9999"/>
<path d="M161.769 38.4691H165.949V20.9931L161.769 20.4082V38.4691Z" fill="#286A72"/>
<path d="M203.859 0.250488H164.307V20.4082H203.859V0.250488Z" fill="#8AADAA"/>
<path d="M203.859 0.250488V20.4083L208.04 20.9931V4.84904L203.859 0.250488Z" fill="#6E9999"/>
<path d="M203.859 76.688V56.5302L208.04 55.9453V72.0894L203.859 76.688Z" fill="#6E9999"/>
<path d="M203.859 20.4082H164.307V38.4692H203.859V20.4082Z" fill="#28704A"/>
<path d="M203.859 38.4692H164.307V56.5302H203.859V38.4692Z" fill="#3A8191"/>
<path d="M203.859 56.5303H164.307V76.6879H203.859V56.5303Z" fill="#8AADAA"/>
<path d="M203.859 38.4692H208.04V55.9452L203.859 56.5301V38.4692Z" fill="#286A72"/>
<path d="M203.859 38.4691H208.04V20.9931L203.859 20.4082V38.4691Z" fill="#1E5B40"/>
<path d="M245.949 0.250488H206.398V20.4082H245.949V0.250488Z" fill="#3A8191"/>
<path d="M245.949 0.250488V20.4083L250.13 20.9931V4.84904L245.949 0.250488Z" fill="#286A72"/>
<path d="M245.949 76.688V56.5302L250.13 55.9453V72.0894L245.949 76.688Z" fill="#1E5B40"/>
<path d="M245.949 20.4082H206.398V38.4692H245.949V20.4082Z" fill="#8AADAA"/>
<path d="M245.949 38.4692H206.398V56.5302H245.949V38.4692Z" fill="#DEA30A"/>
<path d="M245.949 56.5303H206.398V76.6879H245.949V56.5303Z" fill="#28704A"/>
<path d="M245.949 38.4692H250.13V55.9452L245.949 56.5301V38.4692Z" fill="#CE9005"/>
<path d="M245.949 38.4691H250.13V20.9931L245.949 20.4082V38.4691Z" fill="#6E9999"/>
<path d="M288.04 0.250488H248.488V20.4082H288.04V0.250488Z" fill="#BC5B35"/>
<path d="M288.039 0.250488V20.4083L292.22 20.9931V4.84904L288.039 0.250488Z" fill="#A53D28"/>
<path d="M288.039 76.688V56.5302L292.22 55.9453V72.0894L288.039 76.688Z" fill="#6E9999"/>
<path d="M288.04 20.4082H248.488V38.4692H288.04V20.4082Z" fill="#3A8191"/>
<path d="M288.04 38.4692H248.488V56.5302H288.04V38.4692Z" fill="#28704A"/>
<path d="M288.04 56.5303H248.488V76.6879H288.04V56.5303Z" fill="#8AADAA"/>
<path d="M288.039 38.4692H292.22V55.9452L288.039 56.5301V38.4692Z" fill="#1E5B40"/>
<path d="M288.039 38.4691H292.22V20.9931L288.039 20.4082V38.4691Z" fill="#286A72"/>
<path d="M330.13 0.250488H290.578V20.4082H330.13V0.250488Z" fill="#8AADAA"/>
<path d="M330.13 0.250488V20.4083L334.311 20.9931V4.84904L330.13 0.250488Z" fill="#6E9999"/>
<path d="M330.13 76.688V56.5302L334.311 55.9453V72.0894L330.13 76.688Z" fill="#A53D28"/>
<path d="M330.13 20.4082H290.578V38.4692H330.13V20.4082Z" fill="#3A8191"/>
<path d="M330.13 38.4692H290.578V56.5302H330.13V38.4692Z" fill="#28704A"/>
<path d="M330.13 56.5303H290.578V76.6879H330.13V56.5303Z" fill="#BC5B35"/>
<path d="M330.13 38.4692H334.311V55.9452L330.13 56.5301V38.4692Z" fill="#1E5B40"/>
<path d="M330.13 38.4691H334.311V20.9931L330.13 20.4082V38.4691Z" fill="#286A72"/>
<path d="M372.22 0.250488H332.668V20.4082H372.22V0.250488Z" fill="#28704A"/>
<path d="M372.22 0.250488V20.4083L376.401 20.9931V4.84904L372.22 0.250488Z" fill="#1E5B40"/>
<path d="M372.22 76.688V56.5302L376.401 55.9453V72.0894L372.22 76.688Z" fill="#1E5B40"/>
<path d="M372.22 20.4082H332.668V38.4692H372.22V20.4082Z" fill="#8AADAA"/>
<path d="M372.22 38.4692H332.668V56.5302H372.22V38.4692Z" fill="#3A8191"/>
<path d="M372.22 56.5303H332.668V76.6879H372.22V56.5303Z" fill="#28704A"/>
<path d="M372.22 38.4692H376.401V55.9452L372.22 56.5301V38.4692Z" fill="#286A72"/>
<path d="M372.22 38.4691H376.401V20.9931L372.22 20.4082V38.4691Z" fill="#6E9999"/>
<path d="M77.5886 0.250488H38.0372V20.4082H77.5886V0.250488Z" fill="#28704A"/>
<path d="M77.588 0.250488V20.4083L81.7691 20.9931V4.84904L77.588 0.250488Z" fill="#1E5B40"/>
<path d="M77.588 76.688V56.5302L81.7691 55.9453V72.0894L77.588 76.688Z" fill="#6E9999"/>
<path d="M77.5886 20.4082H38.0372V38.4692H77.5886V20.4082Z" fill="#BC5B35"/>
<path d="M77.5886 38.4692H38.0372V56.5302H77.5886V38.4692Z" fill="#3A8191"/>
<path d="M77.5886 56.5303H38.0372V76.6879H77.5886V56.5303Z" fill="#8AADAA"/>
<path d="M77.588 38.4692H81.7691V55.9452L77.588 56.5301V38.4692Z" fill="#286A72"/>
<path d="M77.588 38.4691H81.7691V20.9931L77.588 20.4082V38.4691Z" fill="#A53D28"/>
</svg>
