<svg width="321" height="61" viewBox="0 0 321 61" fill="none" xmlns="http://www.w3.org/2000/svg">
<path d="M320.738 26.6068C319.884 19.9729 317.063 14.196 312.378 9.38867C306.828 3.69363 300.01 0.608076 292.065 0.0644909C288.435 -0.17752 284.792 0.262966 281.326 1.36297C275.646 3.14174 270.838 6.26278 266.96 10.7733C266.796 10.9952 266.643 11.2258 266.504 11.4641C269.683 11.4815 272.644 11.7853 275.292 13.3131C277.879 14.8065 279.985 16.8797 282.103 19.039C281.87 19.1556 281.822 19.2006 281.774 19.2007C278.387 19.2058 275 19.2082 271.613 19.2081C268.635 19.2062 265.657 19.189 262.679 19.2016C262.375 19.2029 261.898 19.2708 261.796 19.4628C261.232 20.4631 260.882 21.5687 260.767 22.7102C261.173 22.7102 261.47 22.7114 261.767 22.71C269.499 22.6733 277.232 22.6264 284.964 22.6233C285.492 22.6374 285.999 22.8294 286.403 23.1679C288.728 25.2649 291.002 27.4173 293.289 29.5555C293.482 29.7357 293.647 29.9455 293.825 30.1415C293.797 30.2211 293.768 30.3007 293.74 30.3804C293.341 30.3804 292.943 30.3804 292.544 30.3803C282.297 30.3789 272.05 30.3774 261.804 30.3759C259.317 30.3756 259.317 30.3758 259.734 32.8775C259.923 34.0053 259.923 34.0066 261.068 34.0058C273.063 33.9967 285.059 33.9836 297.054 33.9666C297.699 33.9652 298.196 34.1176 298.662 34.5756C299.827 35.7199 301.037 36.8177 302.221 37.9428C302.689 38.3594 303.13 38.8061 303.539 39.2801C304.43 40.3836 303.999 41.486 302.604 41.7178C302.224 41.7641 301.842 41.7794 301.46 41.7635C288.644 41.7654 275.829 41.7658 263.014 41.7648C262.665 41.7648 262.317 41.7648 261.762 41.7648C262.293 42.8654 262.764 43.8 263.194 44.7532C263.45 45.3201 263.821 45.5359 264.464 45.5353C281.706 45.5196 298.948 45.5184 316.19 45.5317C316.74 45.5321 317.074 45.3815 317.352 44.8667C320.444 39.1361 321.563 33.0212 320.738 26.6068ZM0.763168 46.58C2.12115 46.655 3.484 46.6579 4.8452 46.6581C31.0509 46.6611 57.2567 46.6618 83.4624 46.6603H253.567C254.134 46.6603 254.7 46.6603 255.493 46.6603C255.161 45.8458 254.922 45.2504 254.676 44.6581C254.168 43.4353 254.166 43.4364 252.822 43.4364C169.177 43.4367 85.532 43.4371 1.88686 43.4374C1.66825 43.4374 1.44928 43.4303 1.23112 43.4403C0.195315 43.4881 0.110425 43.5741 0.105028 44.5785C0.102546 45.0404 0.0335162 45.5198 0.137871 45.9575C0.197906 46.2094 0.534439 46.5674 0.763168 46.58ZM181.699 38.544C183.063 38.544 184.258 38.5055 185.448 38.5579C186.203 38.5912 186.623 38.3979 186.875 37.613C187.308 36.2682 187.892 34.9716 188.413 33.6548C188.49 33.6691 188.568 33.6835 188.645 33.6979C188.645 34.7421 188.64 35.7863 188.646 36.8305C188.658 38.7473 188.426 38.5355 190.337 38.542C192.808 38.5505 192.796 38.5448 192.653 36.0321C192.608 35.2545 192.646 34.4723 192.646 33.6923C192.747 33.681 192.848 33.6696 192.949 33.6583C193.482 35.0134 194.001 36.3746 194.56 37.719C194.684 38.017 194.943 38.4752 195.157 38.4855C196.583 38.5542 198.014 38.5211 199.579 38.5211C199.405 38.1238 199.308 37.8778 199.192 37.6412C198.4 36.0311 197.618 34.4165 196.803 32.8184C196.564 32.35 196.495 31.9573 196.737 31.4459C197.398 30.047 197.992 28.6171 198.605 27.1957C198.78 26.7881 198.927 26.3679 199.141 25.8121C197.896 25.8121 196.806 25.8626 195.724 25.7951C194.953 25.747 194.599 26.0429 194.37 26.7484C193.945 28.0544 193.434 29.3328 192.959 30.6228C192.858 30.6045 192.758 30.5863 192.657 30.5681C192.657 29.1889 192.643 27.8096 192.664 26.4308C192.671 25.964 192.479 25.7994 192.034 25.8064C191.132 25.8205 190.23 25.8249 189.329 25.8098C188.835 25.8016 188.641 26.0268 188.644 26.4985C188.653 27.5038 188.646 28.5092 188.645 29.5146C188.645 29.8974 188.645 30.2801 188.645 30.6629C188.564 30.6685 188.484 30.6741 188.403 30.6797C187.925 29.3627 187.422 28.054 186.98 26.7251C186.762 26.0677 186.436 25.7387 185.689 25.7962C184.847 25.8612 183.996 25.8032 183.149 25.8159C182.869 25.8201 182.589 25.878 182.215 25.9227C182.884 27.489 183.389 28.994 184.149 30.3592C184.865 31.6449 184.703 32.6893 184.004 33.8948C183.168 35.3389 182.51 36.8857 181.699 38.544ZM145.123 38.3269C145.314 38.3164 145.598 37.9152 145.639 37.6627C145.762 36.889 145.779 36.0989 145.854 35.3168C145.958 34.2489 146.077 33.1826 146.19 32.1156L146.442 32.1113C146.86 33.7332 147.274 35.356 147.697 36.9766C148.061 38.3693 148.068 38.3103 149.508 38.3914C150.351 38.4388 150.632 38.0978 150.81 37.3525C151.248 35.5105 151.764 33.6867 152.249 31.8555C152.289 31.8625 152.328 31.8695 152.368 31.8766C152.432 32.4395 152.498 33.0023 152.561 33.5654C152.721 34.9921 152.861 36.4215 153.061 37.8426C153.102 37.9644 153.173 38.0739 153.268 38.1613C153.362 38.2486 153.477 38.3109 153.602 38.3424C154.556 38.3945 155.514 38.3626 156.47 38.367C156.918 38.3691 157.019 38.1476 156.96 37.7392C156.417 33.987 155.881 30.2338 155.353 26.4796C155.286 25.9989 155.071 25.7524 154.558 25.7602C153.602 25.7745 152.646 25.7724 151.69 25.7538C151.211 25.7443 150.956 25.9041 150.84 26.4048C150.566 27.5926 150.223 28.7649 149.919 29.946C149.74 30.6411 149.58 31.3412 149.358 32.2565C148.851 30.1939 148.393 28.3817 147.966 26.5625C147.837 26.014 147.613 25.7166 146.981 25.7537C146.135 25.8082 145.287 25.807 144.442 25.7498C143.673 25.6931 143.471 26.0651 143.374 26.7289C143.032 29.0597 142.639 31.3829 142.278 33.7108C142.043 35.2253 141.83 36.7431 141.592 38.3579C142.841 38.358 143.984 38.3896 145.123 38.3269ZM53.7776 38.5413C54.5396 38.4963 55.3065 38.5143 56.0706 38.5328C56.711 38.5483 57.0328 38.324 56.9906 37.6299C56.9463 36.8994 56.9799 36.1642 56.9796 35.4311C56.9795 34.8527 56.9794 34.2742 56.9796 33.6957C57.0647 33.6802 57.1498 33.6647 57.2349 33.6492C57.7601 34.6503 58.2854 35.6514 58.8108 36.6524C59.9792 38.8711 59.4281 38.4998 61.8603 38.5307C63.0281 38.5456 63.0283 38.5357 63.0279 39.6827C63.0273 41.6463 63.0263 41.6332 65.0156 41.4874C65.4751 41.4538 65.645 41.2656 65.6421 40.836C65.6362 39.9672 65.604 39.096 65.656 38.2301C65.7014 37.4741 65.4718 37.0822 64.6558 37.2039C64.0917 37.2881 63.7696 37.0317 63.4895 36.543C62.7465 35.2468 61.9698 33.9675 61.1499 32.7183C60.8126 32.2044 60.853 31.8097 61.1433 31.308C62.0547 29.7329 62.9281 28.136 63.8088 26.5434C63.9228 26.3014 64.0239 26.0535 64.1116 25.8008C62.8549 25.8008 61.7358 25.8573 60.6257 25.7821C59.8047 25.7266 59.4043 26.0471 59.0928 26.7687C58.5259 28.0816 57.8627 29.3534 57.2397 30.6424C57.153 30.6236 57.0663 30.6049 56.9796 30.5861C56.9796 29.2372 56.9675 27.8881 56.9859 26.5394C56.9928 26.0391 56.8443 25.7795 56.2912 25.795C55.3908 25.8204 54.4889 25.8171 53.5882 25.7977C53.0937 25.7871 52.8912 26.0129 52.8928 26.4777C52.8938 26.7764 52.8865 27.075 52.8865 27.3737C52.8862 30.7949 52.8972 34.2163 52.8778 37.6374C52.8741 38.2941 53.0859 38.5822 53.7776 38.5413ZM3.32199 38.5404C4.08475 38.5058 4.85145 38.5058 5.61425 38.5398C6.23949 38.5676 6.50777 38.349 6.48764 37.7001C6.45398 36.6154 6.4765 35.5289 6.48659 34.4432C6.50033 34.2027 6.52661 33.963 6.5653 33.7252C6.81174 33.8517 7.01085 34.0538 7.13324 34.3016C7.70213 35.3826 8.31586 36.4445 8.80958 37.5588C9.14773 38.322 9.60876 38.6055 10.4421 38.5531C11.5493 38.4834 11.5527 38.5372 11.5515 39.6573C11.5492 41.6597 11.5509 41.675 13.5914 41.4531C13.803 41.4301 14.1372 41.0966 14.1464 40.895C14.1998 39.732 14.1724 38.5654 14.1724 37.4C14.1 37.4136 14.0275 37.4271 13.9551 37.4405C13.6203 37.0887 13.2257 36.7758 12.9625 36.3772C12.3195 35.4032 11.8021 34.3425 11.1124 33.4053C10.4247 32.4709 10.3241 31.6412 11.0455 30.701C11.3562 30.296 11.5568 29.8073 11.8044 29.355C12.4237 28.2238 13.0412 27.0916 13.747 25.7995C12.3238 25.7995 11.1025 25.8243 9.8831 25.7882C9.34295 25.7722 9.04077 25.9499 8.81745 26.4442C8.23662 27.7298 7.61004 28.995 6.9907 30.2631C6.89275 30.422 6.77883 30.5706 6.65071 30.7065C6.50287 29.3366 6.44821 27.9582 6.48713 26.5809C6.49486 26.0505 6.347 25.7694 5.74964 25.793C4.90472 25.8262 4.05675 25.8242 3.21159 25.7949C2.66691 25.776 2.50877 26.0053 2.51031 26.5179C2.52165 30.2637 2.51862 34.0096 2.50122 37.7554C2.49765 38.369 2.73229 38.5672 3.32199 38.5404ZM100.581 37.7312C100.58 38.2855 100.818 38.529 101.362 38.5261C102.237 38.5213 103.111 38.5141 103.985 38.5347C104.527 38.5474 104.706 38.2923 104.691 37.7875C104.672 37.1089 104.678 36.429 104.693 35.7501C104.734 33.8723 104.273 33.9853 106.591 33.987C107.12 33.9873 107.316 34.2174 107.307 34.7303C107.287 35.7352 107.329 36.7416 107.294 37.7456C107.273 38.361 107.526 38.5637 108.116 38.5396C108.88 38.4967 109.646 38.4983 110.41 38.5443C111.198 38.6041 111.392 38.262 111.377 37.5441C111.341 35.7517 111.365 33.958 111.365 32.1649H111.359C111.359 30.3174 111.347 28.4698 111.366 26.6224C111.371 26.0595 111.223 25.7607 110.583 25.7906C109.71 25.8313 108.834 25.82 107.96 25.7964C107.452 25.7826 107.283 26.0064 107.3 26.4803C107.319 27.0501 107.313 27.6214 107.301 28.1917C107.258 30.3126 107.688 30.0086 105.353 30.0432C104.845 30.0507 104.681 29.8288 104.688 29.3583C104.702 28.4077 104.67 27.456 104.698 26.5059C104.714 25.9738 104.509 25.7799 103.981 25.7965C103.135 25.8231 102.286 25.8312 101.441 25.7915C100.793 25.761 100.575 26.0224 100.577 26.6465C100.594 30.3414 100.595 34.0363 100.581 37.7312ZM214.874 36.9387C214.876 38.7707 214.876 38.7707 216.724 38.6944C218.683 38.6135 219.741 37.6827 219.949 35.7138C220.122 34.07 220.216 32.4157 220.283 30.7636C220.349 29.1052 220.047 29.2782 221.823 29.2256C222.54 29.2043 222.771 29.4267 222.76 30.1475C222.723 32.6739 222.76 35.2014 222.739 37.7282C222.734 38.306 222.889 38.5812 223.52 38.5527C224.366 38.5146 225.215 38.5168 226.061 38.5525C226.673 38.5783 226.868 38.337 226.86 37.7429C226.832 35.8956 226.85 34.0476 226.849 32.1999C226.848 30.3521 226.829 28.5041 226.859 26.6569C226.869 26.0179 226.634 25.7963 225.999 25.801C223.103 25.8221 220.206 25.8217 217.31 25.8C216.668 25.7942 216.463 26.0149 216.445 26.6431C216.386 28.7317 216.31 30.8217 216.154 32.9046C216.113 33.4498 215.899 34.1454 215.51 34.4593C215.043 34.8354 214.827 35.1523 214.869 35.7165C214.899 36.1218 214.873 36.5312 214.874 36.9387ZM209.297 38.4088C211.866 37.483 213.32 35.2909 213.343 32.0008C213.272 31.5422 213.234 30.8269 213.041 30.1559C212.385 27.8772 210.996 26.261 208.583 25.7696C206.27 25.2984 204.223 25.8881 202.701 27.7334C201.375 29.3423 200.959 31.2509 201.255 33.3074C201.837 37.355 205.516 39.7713 209.297 38.4088ZM206.345 30.1089C207.312 29.5532 208.466 29.8686 208.893 30.8881C209.1 31.3882 209.197 31.9266 209.177 32.4671C209.119 33.763 208.253 34.6254 207.16 34.5974C206.122 34.5709 205.339 33.5406 205.333 31.9748C205.347 31.3445 205.531 30.577 206.345 30.1089ZM39.4314 38.5331C40.4133 38.5207 41.3975 38.5614 42.376 38.5026C42.6116 38.4884 42.9979 38.1947 43.0257 37.9905C43.1625 36.9854 43.7645 36.7934 44.6354 36.9014C44.9886 36.9379 45.3446 36.939 45.6981 36.9047C46.2848 36.8588 46.5866 37.0418 46.683 37.683C46.7291 37.9903 47.1061 38.4686 47.3611 38.487C48.5501 38.5728 49.7489 38.525 51.0589 38.525C51.062 38.2935 51.0435 38.0621 51.0037 37.834C49.8102 34.0083 48.6047 30.1863 47.4138 26.3599C47.2777 25.9227 47.0263 25.782 46.5794 25.7945C45.6254 25.8211 44.6664 25.852 43.7164 25.7841C42.9182 25.727 42.5296 25.9981 42.3536 26.7846C42.1592 27.6533 41.8335 28.493 41.5624 29.3445C40.6755 32.1302 39.7942 34.9177 38.8942 37.6993C38.7205 38.2363 38.7804 38.5414 39.4314 38.5331ZM44.7516 30.1116L44.8998 30.101C45.1432 31.176 45.4036 32.2478 45.6089 33.33C45.6344 33.4646 45.3922 33.7601 45.2323 33.7958C44.9023 33.8694 44.5441 33.8179 44.0547 33.8179C44.3066 32.4783 44.5291 31.295 44.7516 30.1116ZM19.278 38.4877C19.4368 38.4828 19.7108 38.1926 19.72 38.0233C19.7761 36.9902 20.3773 36.7893 21.2628 36.9023C21.616 36.9458 21.9733 36.9456 22.3264 36.9018C22.9884 36.8211 23.2342 37.1464 23.372 37.7394C23.4385 38.0257 23.7141 38.4738 23.9154 38.485C25.162 38.5541 26.4144 38.5197 27.7692 38.5197C27.7633 38.3353 27.7434 38.1517 27.7096 37.9703C26.4897 34.0888 25.2748 30.2056 24.0177 26.3359C23.9418 26.1021 23.5319 25.8417 23.2643 25.8269C22.202 25.7681 21.1335 25.8298 20.0694 25.7905C19.4843 25.7689 19.2605 26.0416 19.102 26.5484C18.1629 29.5511 17.1964 32.5452 16.2468 35.5447C15.9489 36.4854 15.6749 37.4334 15.3504 38.5092C16.7816 38.5092 18.0306 38.5264 19.278 38.4877ZM21.4329 30.1051C21.4866 30.1088 21.5403 30.1125 21.594 30.1162C21.8411 31.2848 22.0882 32.4534 22.3618 33.7471C21.8464 33.789 21.3823 33.8268 20.711 33.8814C20.9656 32.55 21.1992 31.3275 21.4329 30.1051ZM89.9997 38.4874C90.1741 38.4821 90.4821 38.2023 90.4866 38.0427C90.5209 36.8456 91.3085 36.8345 92.1803 36.9014C92.4793 36.9331 92.7808 36.934 93.0799 36.904C93.7327 36.8181 94.0073 37.1269 94.1386 37.7257C94.1998 38.0045 94.4216 38.4622 94.5884 38.4701C95.8837 38.5323 97.1833 38.5044 98.5461 38.5044C98.5277 38.2829 98.4945 38.0627 98.4467 37.8456C97.2435 33.9934 96.043 30.1403 94.8046 26.2993C94.7345 26.0818 94.3512 25.8388 94.102 25.8257C93.0675 25.7714 92.0263 25.8419 90.9921 25.7849C90.3099 25.7473 90.0347 26.0304 89.8499 26.6437C89.2875 28.5103 88.6673 30.3597 88.0757 32.2177C87.4284 34.2508 86.7879 36.2861 86.085 38.5081C87.5031 38.5081 88.7523 38.5261 89.9997 38.4874ZM92.185 30.1364L92.393 30.2157C92.6323 31.3712 92.8717 32.5268 93.1274 33.7615H91.5058C91.7384 32.5197 91.9617 31.328 92.185 30.1364ZM166.589 38.379C167.489 38.3414 168.391 38.349 169.291 38.4016C169.833 38.4393 169.961 38.2353 169.949 37.7625C169.931 37.0296 169.982 36.2935 169.934 35.5634C169.888 34.8563 170.127 34.6486 170.86 34.6318C171.821 34.6099 172.863 34.5668 173.718 34.1914C175.295 33.4997 175.974 31.6175 175.669 29.4933C175.353 27.2893 174.515 26.2529 172.363 25.9857C170.479 25.7519 168.556 25.8484 166.652 25.762C165.978 25.7315 165.818 26.0172 165.828 26.6286C165.857 28.4207 165.839 30.2135 165.838 32.006C165.837 33.88 165.854 35.7543 165.827 37.6279C165.819 38.1988 166.025 38.3964 166.589 38.379ZM170.501 29.2539C171.236 29.2707 171.765 29.7303 171.765 30.3477C171.765 31.0077 171.348 31.3428 170.562 31.3566C169.635 31.3729 170.063 30.6654 169.926 30.256C170.046 29.8707 169.685 29.2352 170.501 29.2539ZM132.055 32.0033C132.056 33.8769 132.059 35.7506 132.053 37.6242C132.052 38.0386 132.078 38.3751 132.643 38.3714C134.828 38.3573 137.013 38.381 139.197 38.3411C139.391 38.3375 139.721 37.9898 139.742 37.7778C139.811 37.0787 139.75 36.3679 139.773 35.6626C139.79 35.1413 139.576 34.9225 139.05 34.9343C138.259 34.952 137.466 34.9173 136.675 34.9397C136.177 34.9537 136.001 34.7554 136.007 34.2673C136.012 33.8072 136.197 33.6388 136.645 33.651C137.3 33.6689 137.956 33.6367 138.611 33.6573C139.092 33.6723 139.317 33.4948 139.3 32.9977C139.279 32.3738 139.274 31.7479 139.3 31.1245C139.325 30.5408 139.036 30.3632 138.501 30.3791C137.873 30.3978 137.244 30.3669 136.617 30.3827C136.146 30.3944 136.008 30.1712 136.008 29.7343C136.009 29.2471 136.244 29.1487 136.678 29.1656C137.414 29.1941 138.152 29.1718 138.889 29.1729C139.374 29.1736 139.653 29.0016 139.627 28.4525C139.595 27.7751 139.607 27.0948 139.624 26.4164C139.636 25.9743 139.457 25.7652 139.005 25.7663C136.903 25.7714 134.801 25.7785 132.699 25.763C132.114 25.7587 132.046 26.0791 132.049 26.5452C132.061 28.3645 132.054 30.1839 132.055 32.0033ZM229.457 32.1602C229.457 34.0344 229.47 35.9087 229.449 37.7827C229.443 38.3322 229.619 38.5622 230.2 38.5531C231.894 38.5265 233.588 38.5769 235.281 38.5358C238.027 38.469 239.429 36.8442 239.13 34.1405C238.951 32.532 237.724 31.1378 236.232 30.9093C235.479 30.793 234.719 30.7245 233.957 30.7041C233.43 30.6908 233.225 30.5066 233.235 29.9831C233.256 28.8699 233.214 27.755 233.251 26.6426C233.273 25.9938 233.017 25.7704 232.385 25.8051C231.703 25.8438 231.02 25.8427 230.338 25.8018C229.653 25.7593 229.432 26.0331 229.445 26.7008C229.478 28.5201 229.456 30.3403 229.457 32.1602ZM233.86 33.4283C234.82 33.4559 235.196 33.6699 235.215 34.3372C235.234 34.9954 234.754 35.3951 233.971 35.4319C233.125 35.4716 233.264 34.8833 233.248 34.3384C233.305 33.9725 233.049 33.405 233.86 33.4283ZM74.3633 38.3465C74.5173 38.2677 74.6513 38.1553 74.7555 38.0176C74.8597 37.88 74.9313 37.7206 74.9649 37.5515C75.0549 36.7734 75.0097 35.9797 75.015 35.1923C75.0183 34.7041 75.0156 34.2159 75.0156 33.6318C72.8726 34.7749 71.7326 34.8304 70.9555 33.9228C70.2327 33.0787 70.227 31.2978 70.9442 30.4166C71.7474 29.4299 72.7645 29.4532 75.0088 30.5716C75.0088 29.1707 75.0243 27.8701 74.9914 26.5708C74.9718 26.4592 74.9275 26.3534 74.8616 26.2611C74.7958 26.1688 74.7102 26.0923 74.6109 26.0371C72.4386 24.9718 69.1483 25.7746 67.6443 27.7093C66.3497 29.3747 66.0525 31.2452 66.2853 33.3068C66.7337 37.2766 70.5897 39.737 74.3633 38.3465ZM29.9812 38.1839C31.4183 38.6943 32.893 38.8822 34.3966 38.4863C37.0932 37.7764 37.7225 35.6518 37.084 33.6895C36.8419 32.9455 36.1076 32.36 35.553 31.6447C35.5052 31.7175 35.5334 31.6284 35.5942 31.5888C37.5509 30.3117 36.9964 26.8 34.8893 25.9788C33.2305 25.3324 31.5698 25.5983 29.9279 26.0773C29.8461 26.1135 29.7743 26.1688 29.7186 26.2386C29.6629 26.3084 29.625 26.3905 29.608 26.4781C29.5796 27.4183 29.5933 28.3597 29.5933 29.2884C30.4641 29.2192 31.2484 29.1051 32.0295 29.1234C32.2993 29.1297 32.5612 29.4655 32.8268 29.6508C32.557 29.9444 32.338 30.3744 32.0046 30.4968C31.5949 30.6474 31.0874 30.5164 30.6269 30.5583C30.442 30.5752 30.1194 30.7221 30.1154 30.8202C30.0848 31.5733 30.0178 32.3534 30.1966 33.0671C30.2439 33.2561 31.1074 33.2457 31.5972 33.3203C31.7059 33.3315 31.8154 33.3335 31.9244 33.3264C32.5349 33.3153 33.0988 33.5183 33.1097 34.1703C33.1211 34.8517 32.438 34.9174 31.9491 34.907C31.1463 34.8899 30.3464 34.7357 29.4215 34.6244C29.4215 35.6019 29.3904 36.6035 29.4466 37.6001C29.4584 37.8094 29.7539 38.1032 29.9812 38.1839ZM77.1495 28.693C77.1494 29.8813 77.1498 29.8813 78.3409 29.8948C79.3772 29.9066 79.442 29.967 79.4434 31.0236C79.4463 33.2519 79.455 35.4803 79.4336 37.7084C79.4279 38.2978 79.6332 38.5523 80.242 38.5311C81.0607 38.5026 81.8825 38.4999 82.7007 38.5366C83.3478 38.5656 83.5606 38.3033 83.551 37.675C83.5231 35.8547 83.5422 34.0338 83.5419 32.2132C83.5416 30.0306 83.5412 30.0306 85.8272 29.8504C85.8272 28.6205 85.8502 27.4304 85.7992 26.2435C85.7925 26.088 85.408 25.8234 85.1959 25.8208C82.7368 25.7913 80.2771 25.8083 77.8177 25.798C77.318 25.796 77.1385 26.0197 77.148 26.492C77.1629 27.2254 77.1496 27.9593 77.1495 28.693ZM121.237 28.3613C121.236 29.8491 121.236 29.8754 122.748 29.8787C123.358 29.88 123.56 30.0899 123.542 30.6858C123.507 31.8244 123.531 32.9648 123.531 34.1045H123.534C123.534 35.217 123.569 36.331 123.521 37.4415C123.492 38.1306 123.677 38.44 124.428 38.3841C125.218 38.3321 126.01 38.331 126.801 38.3807C127.442 38.4157 127.658 38.1901 127.647 37.5458C127.613 35.5384 127.633 33.5301 127.634 31.5221C127.634 29.9538 127.634 29.9348 129.221 29.9009C129.743 29.8897 129.958 29.7304 129.94 29.1948C129.911 28.3003 129.89 27.4016 129.946 26.5096C129.986 25.8726 129.706 25.7042 129.144 25.7106C126.716 25.7381 124.289 25.7576 121.861 25.769C121.405 25.7709 121.226 25.9657 121.236 26.4077C121.25 27.0586 121.237 27.7101 121.237 28.3613ZM159.263 37.7017C159.262 38.1806 159.44 38.3878 159.937 38.3751C160.808 38.3528 161.683 38.3395 162.553 38.3812C163.187 38.4116 163.415 38.2038 163.401 37.5526C163.363 35.7369 163.388 33.9199 163.387 32.1034C163.386 30.2327 163.374 28.3619 163.393 26.4913C163.398 25.9769 163.222 25.7488 162.688 25.7619C161.789 25.7839 160.889 25.7841 159.989 25.7625C159.468 25.7502 159.26 25.9521 159.262 26.4775C159.273 30.2189 159.274 33.9603 159.263 37.7017ZM240.987 38.5457C241.751 38.5297 242.519 38.5048 243.28 38.5549C243.992 38.6018 244.252 38.3476 244.238 37.6314C244.202 35.8398 244.226 34.047 244.226 32.2547C244.227 30.408 244.214 28.5613 244.234 26.7148C244.24 26.0683 244.017 25.7639 243.325 25.8024C242.59 25.8433 241.85 25.8305 241.114 25.8012C240.513 25.7774 240.283 26.0324 240.285 26.6184C240.302 30.3656 240.308 34.1128 240.305 37.86C240.305 38.3368 240.495 38.556 240.987 38.5457ZM254.988 48.1318C170.747 48.1313 86.5061 48.131 2.26506 48.1309C1.74591 48.1309 1.22518 48.1111 0.708473 48.1471C0.606653 48.1515 0.506821 48.1767 0.415165 48.2211C0.32351 48.2655 0.241985 48.3282 0.175646 48.4053C-0.278109 49.1922 0.188363 49.945 1.10334 49.9504C1.32192 49.9517 1.54053 49.9508 1.75912 49.9508C86.3554 49.9508 170.952 49.9507 255.548 49.9507C255.876 49.9507 256.205 49.9636 256.531 49.9434C256.737 49.9179 256.94 49.8785 257.141 49.8255C256.738 48.3232 256.487 48.1318 254.988 48.1318ZM265.611 48.8286C272.865 57.4878 281.991 61.9163 293.375 60.8413C302.273 60.0011 309.4 55.7214 315.027 48.6641C313.654 48.2953 266.209 48.4311 265.611 48.8286Z" fill="white"/>
</svg>
