<svg width="3042" height="1556" viewBox="0 0 3042 1556" fill="none" xmlns="http://www.w3.org/2000/svg">
<path d="M1257.64 1133.82C1301.33 1133.82 1336.74 1098.4 1336.74 1054.71C1336.74 1011.02 1301.33 975.607 1257.64 975.607C1213.95 975.607 1178.53 1011.02 1178.53 1054.71C1178.53 1098.4 1213.95 1133.82 1257.64 1133.82Z" fill="white"/>
<path d="M1257.64 975.607L1257.59 975.608C1246.02 991.44 1239.77 1010.53 1239.73 1030.14C1239.73 1070.01 1265.43 1104.36 1302.42 1119.92C1316.34 1110.36 1326.83 1096.6 1332.37 1080.65C1337.9 1064.7 1338.19 1047.39 1333.19 1031.27C1328.18 1015.14 1318.15 1001.04 1304.56 991.025C1290.96 981.01 1274.52 975.608 1257.64 975.607Z" fill="#F9F9F9"/>
<path d="M383.856 1265.35C414.337 1265.35 439.047 1240.64 439.047 1210.16C439.047 1179.67 414.337 1154.97 383.856 1154.97C353.375 1154.97 328.666 1179.67 328.666 1210.16C328.666 1240.64 353.375 1265.35 383.856 1265.35Z" fill="white"/>
<path d="M2985.86 308.4C3016.34 308.4 3041.05 283.69 3041.05 253.209C3041.05 222.728 3016.34 198.019 2985.86 198.019C2955.38 198.019 2930.67 222.728 2930.67 253.209C2930.67 283.69 2955.38 308.4 2985.86 308.4Z" fill="white"/>
<path d="M328.666 1210.16C328.663 1220.03 331.309 1229.72 336.327 1238.22C341.345 1246.72 348.552 1253.72 357.196 1258.48C367.874 1243.86 375.058 1226.99 378.193 1209.16C381.328 1191.33 380.331 1173.02 375.28 1155.63C362.289 1157.68 350.455 1164.29 341.909 1174.29C333.363 1184.29 328.667 1197 328.666 1210.16Z" fill="#F9F9F9"/>
<path d="M2930.67 253.21C2930.66 263.08 2933.31 272.771 2938.33 281.271C2943.35 289.771 2950.55 296.769 2959.2 301.536C2969.87 286.917 2977.06 270.043 2980.19 252.213C2983.33 234.382 2982.33 216.07 2977.28 198.685C2964.29 200.731 2952.46 207.348 2943.91 217.344C2935.36 227.34 2930.67 240.058 2930.67 253.21Z" fill="#F9F9F9"/>
<path d="M867.027 126.363C886.193 126.363 901.731 110.825 901.731 91.6592C901.731 72.493 886.193 56.9557 867.027 56.9557C847.861 56.9557 832.324 72.493 832.324 91.6592C832.324 110.825 847.861 126.363 867.027 126.363Z" fill="white"/>
<path d="M1146.69 195.77C1165.85 195.77 1181.39 180.232 1181.39 161.066C1181.39 141.9 1165.85 126.363 1146.69 126.363C1127.52 126.363 1111.98 141.9 1111.98 161.066C1111.98 180.232 1127.52 195.77 1146.69 195.77Z" fill="white"/>
<path d="M944.965 133.463C981.751 133.463 1011.57 103.643 1011.57 66.8568C1011.57 30.0711 981.751 0.250366 944.965 0.250366C908.18 0.250366 878.359 30.0711 878.359 66.8568C878.359 103.643 908.18 133.463 944.965 133.463Z" fill="white"/>
<path d="M1045 225.254C1094.15 225.254 1133.99 185.412 1133.99 136.264C1133.99 87.1158 1094.15 47.2735 1045 47.2735C995.851 47.2735 956.008 87.1158 956.008 136.264C956.008 185.412 995.851 225.254 1045 225.254Z" fill="white"/>
<path d="M1069.01 50.5543C1046.88 44.3821 1023.22 46.9821 1002.96 57.8129C1008.93 67.7739 1020.78 74.5655 1034.43 74.5655C1051.2 74.5655 1065.24 64.329 1069.01 50.5543Z" fill="#F9F9F9"/>
<path d="M958.141 116.839C953.379 138.226 956.654 160.618 967.343 179.745C973.066 176.174 977.624 171.013 980.459 164.892C983.295 158.772 984.285 151.958 983.308 145.283C982.332 138.609 979.431 132.364 974.962 127.312C970.492 122.26 964.647 118.621 958.141 116.839Z" fill="#F9F9F9"/>
<path d="M1178.32 146.799C1174.63 138.626 1167.93 132.196 1159.61 128.858C1151.29 125.519 1142 125.531 1133.68 128.891C1131.77 105.66 1120.8 84.1131 1103.14 68.8997C1097.36 73.6617 1092.62 79.5683 1089.23 86.2482C1085.85 92.9281 1083.88 100.237 1083.45 107.715C1083.02 115.193 1084.15 122.678 1086.75 129.7C1089.36 136.723 1093.39 143.13 1098.59 148.52C1103.79 153.909 1110.05 158.164 1116.98 161.017C1123.9 163.87 1131.34 165.26 1138.83 165.098C1146.32 164.937 1153.69 163.227 1160.49 160.078C1167.29 156.929 1173.36 152.408 1178.32 146.799Z" fill="#F9F9F9"/>
<path d="M1221.07 103.654C1236.26 103.654 1248.58 91.3346 1248.58 76.1372C1248.58 60.9399 1236.26 48.62 1221.07 48.62C1205.87 48.62 1193.55 60.9399 1193.55 76.1372C1193.55 91.3346 1205.87 103.654 1221.07 103.654Z" fill="white"/>
<path d="M241.032 1311.15C306.306 1311.15 359.22 1258.23 359.22 1192.96C359.22 1127.68 306.306 1074.77 241.032 1074.77C175.758 1074.77 122.843 1127.68 122.843 1192.96C122.843 1258.23 175.758 1311.15 241.032 1311.15Z" fill="white"/>
<path d="M2843.03 354.2C2908.31 354.2 2961.22 301.285 2961.22 236.011C2961.22 170.738 2908.31 117.823 2843.03 117.823C2777.76 117.823 2724.84 170.738 2724.84 236.011C2724.84 301.285 2777.76 354.2 2843.03 354.2Z" fill="white"/>
<path d="M1357.18 1120C1416.41 1120 1464.42 1071.99 1464.42 1012.76C1464.42 953.54 1416.41 905.531 1357.18 905.531C1297.96 905.531 1249.95 953.54 1249.95 1012.76C1249.95 1071.99 1297.96 1120 1357.18 1120Z" fill="white"/>
<path d="M1590.86 1067.51C1621.1 1067.51 1645.61 1043 1645.61 1012.76C1645.61 982.526 1621.1 958.014 1590.86 958.014C1560.63 958.014 1536.11 982.526 1536.11 1012.76C1536.11 1043 1560.63 1067.51 1590.86 1067.51Z" fill="white"/>
<path d="M1476.46 1130.25C1506.07 1130.25 1530.08 1106.24 1530.08 1076.63C1530.08 1047.02 1506.07 1023.01 1476.46 1023.01C1446.85 1023.01 1422.84 1047.02 1422.84 1076.63C1422.84 1106.24 1446.85 1130.25 1476.46 1130.25Z" fill="white"/>
<path d="M1476.46 1020.38C1472.18 1020.38 1467.92 1020.91 1463.77 1021.95C1464.2 1017.91 1464.42 1013.84 1464.42 1009.77C1464.44 995.29 1461.69 980.935 1456.33 967.479C1447.28 974.456 1439.95 983.43 1434.93 993.701C1429.91 1003.97 1427.33 1015.26 1427.39 1026.7C1427.39 1067.31 1459.23 1100.24 1498.5 1100.24C1508.37 1100.25 1518.12 1098.13 1527.1 1094.04C1529.08 1088.17 1530.08 1082.02 1530.08 1075.83C1530.08 1045.2 1506.07 1020.38 1476.46 1020.38Z" fill="#F9F9F9"/>
<path d="M1158.85 1063.8C1184.73 1063.8 1205.71 1042.83 1205.71 1016.95C1205.71 991.075 1184.73 970.098 1158.85 970.098C1132.98 970.098 1112 991.075 1112 1016.95C1112 1042.83 1132.98 1063.8 1158.85 1063.8Z" fill="white"/>
<path d="M1350.06 982.532C1361.83 957.686 1352.81 928.748 1329.91 917.897C1307.01 907.047 1278.9 918.392 1267.13 943.238C1255.36 968.084 1264.38 997.023 1287.28 1007.87C1310.18 1018.72 1338.29 1007.38 1350.06 982.532Z" fill="#F9F9F9"/>
<path d="M1310.32 997.949C1336.2 997.949 1357.17 976.972 1357.17 951.096C1357.17 925.22 1336.2 904.244 1310.32 904.244C1284.44 904.244 1263.47 925.22 1263.47 951.096C1263.47 976.972 1284.44 997.949 1310.32 997.949Z" fill="white"/>
<path d="M123.8 1135.15C111.721 1150.6 104.339 1169.2 102.534 1188.73C100.729 1208.26 104.578 1227.9 113.621 1245.3C126.967 1244.5 139.584 1238.94 149.189 1229.64C158.794 1220.34 164.75 1207.91 165.981 1194.59C167.211 1181.28 163.634 1167.96 155.897 1157.06C148.159 1146.16 136.773 1138.38 123.8 1135.15Z" fill="#F9F9F9"/>
<path d="M2725.8 178.201C2713.72 193.653 2706.34 212.252 2704.53 231.782C2702.73 251.312 2706.58 270.949 2715.62 288.353C2728.97 287.55 2741.58 281.995 2751.19 272.694C2760.79 263.392 2766.75 250.959 2767.98 237.645C2769.21 224.332 2765.63 211.018 2757.9 200.113C2750.16 189.209 2738.77 181.436 2725.8 178.201Z" fill="#F9F9F9"/>
<path d="M32.4443 1204C50.3627 1204 64.8885 1189.48 64.8885 1171.56C64.8885 1153.64 50.3627 1139.11 32.4443 1139.11C14.5258 1139.11 0 1153.64 0 1171.56C0 1189.48 14.5258 1204 32.4443 1204Z" fill="white"/>
<path d="M2634.44 247.056C2652.36 247.056 2666.89 232.53 2666.89 214.612C2666.89 196.693 2652.36 182.167 2634.44 182.167C2616.53 182.167 2602 196.693 2602 214.612C2602 232.53 2616.53 247.056 2634.44 247.056Z" fill="white"/>
<path d="M409.641 1161.36C401.228 1156.91 391.809 1154.72 382.298 1154.99C372.786 1155.25 363.506 1157.98 355.356 1162.89C350.762 1145.49 342.266 1129.37 330.513 1115.75C318.76 1102.13 304.059 1091.36 287.525 1084.27C280.854 1092.24 275.965 1101.54 273.184 1111.55C270.403 1121.56 269.796 1132.05 271.403 1142.32C273.01 1152.58 276.794 1162.39 282.501 1171.07C288.209 1179.75 295.707 1187.11 304.493 1192.66C313.279 1198.2 323.15 1201.81 333.443 1203.23C343.737 1204.64 354.214 1203.84 364.173 1200.88C374.131 1197.92 383.341 1192.86 391.183 1186.04C399.025 1179.22 405.319 1170.81 409.641 1161.36Z" fill="#F9F9F9"/>
<path d="M3011.64 204.413C3003.23 199.968 2993.81 197.773 2984.3 198.041C2974.79 198.308 2965.51 201.03 2957.36 205.941C2952.76 188.546 2944.27 172.427 2932.51 158.805C2920.76 145.183 2906.06 134.418 2889.53 127.324C2882.85 135.291 2877.96 144.592 2875.18 154.603C2872.4 164.614 2871.8 175.105 2873.4 185.37C2875.01 195.636 2878.79 205.439 2884.5 214.121C2890.21 222.804 2897.71 230.166 2906.49 235.712C2915.28 241.259 2925.15 244.862 2935.44 246.28C2945.74 247.697 2956.21 246.897 2966.17 243.933C2976.13 240.969 2985.34 235.909 2993.18 229.092C3001.02 222.276 3007.32 213.861 3011.64 204.413Z" fill="#F9F9F9"/>
<path d="M337.05 1191.26C373.795 1191.26 403.583 1161.47 403.583 1124.73C403.583 1087.98 373.795 1058.2 337.05 1058.2C300.305 1058.2 270.517 1087.98 270.517 1124.73C270.517 1161.47 300.305 1191.26 337.05 1191.26Z" fill="white"/>
<path d="M2939.05 234.316C2975.8 234.316 3005.58 204.528 3005.58 167.783C3005.58 131.038 2975.8 101.25 2939.05 101.25C2902.31 101.25 2872.52 131.038 2872.52 167.783C2872.52 204.528 2902.31 234.316 2939.05 234.316Z" fill="white"/>
<path d="M129.953 1152.5C123.734 1148.97 116.837 1146.81 109.72 1146.16C115.872 1163.1 131.224 1175.12 149.203 1175.12C172.6 1175.12 191.567 1154.78 191.567 1129.69C191.623 1123.02 190.247 1116.42 187.532 1110.32C184.817 1104.23 180.826 1098.79 175.829 1094.37C154.723 1108.35 138.647 1128.72 129.953 1152.5Z" fill="#F9F9F9"/>
<path d="M2731.95 195.549C2725.73 192.027 2718.84 189.867 2711.72 189.211C2717.87 206.156 2733.22 218.17 2751.2 218.17C2774.6 218.17 2793.57 197.833 2793.57 172.747C2793.62 166.076 2792.25 159.471 2789.53 153.378C2786.82 147.284 2782.83 141.845 2777.83 137.426C2756.72 151.405 2740.65 171.774 2731.95 195.549Z" fill="#F9F9F9"/>
<path d="M146.185 1159.45C169.583 1159.45 188.55 1140.49 188.55 1117.09C188.55 1093.69 169.583 1074.72 146.185 1074.72C122.788 1074.72 103.821 1093.69 103.821 1117.09C103.821 1140.49 122.788 1159.45 146.185 1159.45Z" fill="white"/>
<path d="M2748.18 202.507C2771.58 202.507 2790.55 183.54 2790.55 160.142C2790.55 136.745 2771.58 117.778 2748.18 117.778C2724.79 117.778 2705.82 136.745 2705.82 160.142C2705.82 183.54 2724.79 202.507 2748.18 202.507Z" fill="white"/>
<path d="M1493.95 1079.62C1533.23 1079.62 1565.06 1047.79 1565.06 1008.51C1565.06 969.237 1533.23 937.399 1493.95 937.399C1454.68 937.399 1422.84 969.237 1422.84 1008.51C1422.84 1047.79 1454.68 1079.62 1493.95 1079.62Z" fill="white"/>
<path d="M2247.66 1531.72C2289.55 1531.72 2323.51 1497.77 2323.51 1455.87C2323.51 1413.98 2289.55 1380.02 2247.66 1380.02C2205.77 1380.02 2171.81 1413.98 2171.81 1455.87C2171.81 1497.77 2205.77 1531.72 2247.66 1531.72Z" fill="white"/>
<path d="M2171.81 1455.87C2171.81 1468.9 2175.16 1481.71 2181.55 1493.07C2187.93 1504.42 2197.14 1513.94 2208.27 1520.7C2225.06 1502.98 2234.85 1479.78 2235.85 1455.39C2236.85 1431 2228.98 1407.08 2213.7 1388.04C2201.11 1394.34 2190.52 1404.03 2183.13 1416.01C2175.73 1427.99 2171.81 1441.79 2171.81 1455.87Z" fill="#F9F9F9"/>
<path d="M2209.37 1425.36C2230.11 1425.36 2246.93 1408.55 2246.93 1387.81C2246.93 1367.06 2230.11 1350.25 2209.37 1350.25C2188.63 1350.25 2171.81 1367.06 2171.81 1387.81C2171.81 1408.55 2188.63 1425.36 2209.37 1425.36Z" fill="white"/>
<path d="M2183.43 1415.52C2185.49 1420.31 2188.52 1424.62 2192.33 1428.18C2196.14 1431.74 2200.65 1434.46 2205.57 1436.18C2210.5 1437.9 2215.72 1438.57 2220.92 1438.16C2226.11 1437.75 2231.17 1436.26 2235.76 1433.79C2240.35 1431.32 2244.37 1427.91 2247.58 1423.8C2250.78 1419.69 2253.09 1414.95 2254.37 1409.9C2255.64 1404.84 2255.85 1399.58 2254.98 1394.44C2254.11 1389.3 2252.17 1384.4 2249.3 1380.05C2248.76 1380.03 2248.21 1380.02 2247.66 1380.02C2234.83 1380.02 2222.2 1383.27 2210.97 1389.48C2199.73 1395.69 2190.26 1404.65 2183.43 1415.52Z" fill="#F9F9F9"/>
<path d="M2122.4 1555.71C2178.19 1555.71 2223.41 1510.48 2223.41 1454.7C2223.41 1398.91 2178.19 1353.69 2122.4 1353.69C2066.61 1353.69 2021.39 1398.91 2021.39 1454.7C2021.39 1510.48 2066.61 1555.71 2122.4 1555.71Z" fill="white"/>
<path d="M2209.37 1425.36C2230.11 1425.36 2246.93 1408.55 2246.93 1387.81C2246.93 1367.06 2230.11 1350.25 2209.37 1350.25C2188.63 1350.25 2171.81 1367.06 2171.81 1387.81C2171.81 1408.55 2188.63 1425.36 2209.37 1425.36Z" fill="white"/>
<path d="M2298.54 1446.7C2298.54 1453.71 2300.5 1460.58 2304.2 1466.53C2307.9 1472.48 2313.19 1477.27 2319.47 1480.38C2323 1469.99 2324.24 1458.97 2323.11 1448.06C2321.98 1437.15 2318.5 1426.61 2312.91 1417.18C2308.43 1420.69 2304.81 1425.17 2302.32 1430.28C2299.83 1435.4 2298.54 1441.01 2298.54 1446.7Z" fill="#F9F9F9"/>
<path d="M2330.88 1467.13C2351.62 1467.13 2368.44 1450.31 2368.44 1429.57C2368.44 1408.83 2351.62 1392.01 2330.88 1392.01C2310.14 1392.01 2293.32 1408.83 2293.32 1429.57C2293.32 1450.31 2310.14 1467.13 2330.88 1467.13Z" fill="white"/>
<path d="M2038.76 1398.05C2026.96 1415.49 2020.89 1436.18 2021.42 1457.24C2021.95 1478.29 2029.05 1498.66 2041.72 1515.48C2052.55 1509.8 2061.57 1501.21 2067.77 1490.67C2073.96 1480.13 2077.08 1468.06 2076.77 1455.84C2076.46 1443.62 2072.74 1431.73 2066.02 1421.52C2059.31 1411.3 2049.86 1403.17 2038.76 1398.05Z" fill="#F9F9F9"/>
<path d="M1929.77 1468.16C1946.22 1468.16 1959.55 1454.83 1959.55 1438.38C1959.55 1421.94 1946.22 1408.61 1929.77 1408.61C1913.33 1408.61 1900 1421.94 1900 1438.38C1900 1454.83 1913.33 1468.16 1929.77 1468.16Z" fill="white"/>
<path d="M1943.04 1411.73C1937.64 1419.88 1934.13 1429.13 1932.76 1438.8C1931.4 1448.48 1932.21 1458.34 1935.15 1467.66C1941.3 1466.54 1946.93 1463.5 1951.26 1458.99C1955.59 1454.48 1958.38 1448.73 1959.26 1442.54C1960.13 1436.35 1959.03 1430.05 1956.12 1424.52C1953.21 1418.99 1948.64 1414.51 1943.04 1411.73Z" fill="#F9F9F9"/>
<path d="M2007.86 1501.85C2044.02 1501.85 2073.34 1472.53 2073.34 1436.37C2073.34 1400.21 2044.02 1370.89 2007.86 1370.89C1971.7 1370.89 1942.38 1400.21 1942.38 1436.37C1942.38 1472.53 1971.7 1501.85 2007.86 1501.85Z" fill="white"/>
<path d="M948.97 168.167C968.136 168.167 983.673 152.629 983.673 133.463C983.673 114.297 968.136 98.7597 948.97 98.7597C929.803 98.7597 914.266 114.297 914.266 133.463C914.266 152.629 929.803 168.167 948.97 168.167Z" fill="white"/>
<path d="M1130.84 155.879C1160.83 155.879 1185.14 131.567 1185.14 101.576C1185.14 71.5857 1160.83 47.2735 1130.84 47.2735C1100.85 47.2735 1076.54 71.5857 1076.54 101.576C1076.54 131.567 1100.85 155.879 1130.84 155.879Z" fill="white"/>
<path d="M1025.7 69.6064C1043.04 69.6064 1057.1 55.5495 1057.1 38.2096C1057.1 20.8696 1043.04 6.81281 1025.7 6.81281C1008.36 6.81281 994.308 20.8696 994.308 38.2096C994.308 55.5495 1008.36 69.6064 1025.7 69.6064Z" fill="white"/>
<path d="M105.017 1247.38C133.029 1247.38 155.738 1224.67 155.738 1196.66C155.738 1168.65 133.029 1145.94 105.017 1145.94C77.0051 1145.94 54.2969 1168.65 54.2969 1196.66C54.2969 1224.67 77.0051 1247.38 105.017 1247.38Z" fill="white"/>
<path d="M2707.02 290.431C2735.03 290.431 2757.74 267.723 2757.74 239.711C2757.74 211.699 2735.03 188.991 2707.02 188.991C2679.01 188.991 2656.3 211.699 2656.3 239.711C2656.3 267.723 2679.01 290.431 2707.02 290.431Z" fill="white"/>
</svg>
