<svg width="54" height="54" viewBox="0 0 54 54" fill="none" xmlns="http://www.w3.org/2000/svg">
<g clip-path="url(#clip0_6266_40142)">
<path d="M19.9269 43.6993C24.8945 44.5047 29.9855 43.4767 34.2516 40.807C38.5176 38.1373 41.6677 34.0079 43.1151 29.1881C44.5625 24.3682 44.2085 19.1865 42.1189 14.6082C40.0294 10.03 36.3469 6.36744 31.7574 4.3028C27.1679 2.23815 21.9844 1.91223 17.1725 3.38574C12.3605 4.85925 8.24823 8.03172 5.60171 12.3122C2.9552 16.5926 1.95491 21.6891 2.78716 26.6524C3.61942 31.6156 6.22749 36.1071 10.1255 39.2901" stroke="#67D672" stroke-width="5" stroke-linecap="round" stroke-linejoin="round"/>
<path d="M20.3172 12.1875C17.6655 12.5854 15.2804 14.0204 13.6867 16.1768C12.0929 18.3332 11.4211 21.0344 11.819 23.6862" stroke="#67D672" stroke-width="5" stroke-linecap="round" stroke-linejoin="round"/>
<path d="M37.8887 37.8867L50.9618 50.9599" stroke="#67D672" stroke-width="5" stroke-linecap="round" stroke-linejoin="round"/>
</g>
<defs>
<clipPath id="clip0_6266_40142">
<rect width="53.4621" height="53.4621" fill="white"/>
</clipPath>
</defs>
</svg>
