<svg width="55" height="55" viewBox="0 0 55 55" fill="none" xmlns="http://www.w3.org/2000/svg">
<g clip-path="url(#clip0_6266_40065)">
<path d="M6.09618 40.1103C9.28113 45.3495 14.298 49.2196 20.1741 50.9702C26.0502 52.7208 32.367 52.2272 37.8999 49.5852C43.4328 46.9432 47.7877 42.3409 50.1202 36.6705C52.4528 31.0002 52.5968 24.6658 50.5245 18.8953C48.4522 13.1248 44.3111 8.32923 38.904 5.43839C33.4969 2.54754 27.2091 1.7673 21.2594 3.24893C15.3098 4.73056 10.1222 8.36852 6.70238 13.4575C3.28252 18.5465 1.87403 24.7241 2.74994 30.7925" stroke="#67D672" stroke-width="5" stroke-linecap="round" stroke-linejoin="round"/>
<path d="M24.8093 44.1158L33.9443 27.2468H19.4463L29.0623 8.42578" stroke="#67D672" stroke-width="5" stroke-linecap="round" stroke-linejoin="round"/>
</g>
<defs>
<clipPath id="clip0_6266_40065">
<rect width="54.5325" height="54.5325" fill="white"/>
</clipPath>
</defs>
</svg>
