<svg width="282" height="28" viewBox="0 0 282 28" fill="none" xmlns="http://www.w3.org/2000/svg">
<g clip-path="url(#clip0_6451_52767)">
<path d="M20.036 3.50112V27.6075H24.299V0.390625H16.8969L4.26299 24.5359V0.390625H0V27.6075H7.4021L20.036 3.50112Z" fill="#67D672"/>
<path d="M46.1753 16.1376V27.6075H50.4382V0.390625H46.1753V12.2494H31.4484V0.390625H27.1855V27.6075H31.4484V16.1376H46.1753Z" fill="#67D672"/>
<path d="M68.6967 27.6075V24.497H70.9057C76.6414 24.497 80.9819 19.7924 80.9819 13.9991C81.0983 8.47794 76.5252 3.38448 70.9057 3.50112H68.6967V0.390625H64.4338V3.50112H62.2248C56.6055 3.38448 52.0324 8.47794 52.1487 13.9991C52.1487 19.7924 56.4891 24.497 62.2248 24.497H64.4338V27.6075H68.6967ZM62.7674 20.4145C59.0083 20.4145 56.4118 17.5373 56.4118 13.9991C56.4118 10.4609 59.0083 7.58367 62.7674 7.58367H64.4338V20.4145H62.7674ZM70.3633 7.58367C74.1224 7.58367 76.719 10.4609 76.719 13.9991C76.719 17.5373 74.1224 20.4145 70.3633 20.4145H68.6967V7.58367H70.3633Z" fill="#67D672"/>
<path d="M95.6753 0.00272152C87.9244 -0.152804 81.3749 6.37925 81.53 14C81.3749 21.6596 87.9244 28.1528 95.6753 27.9972C103.426 28.1528 109.976 21.6596 109.821 14C109.976 6.37925 103.426 -0.152804 95.6753 0.00272152ZM95.6753 23.9148C90.3272 23.9148 85.9867 19.9488 85.9867 14.0389C85.9867 8.20667 90.2109 4.08526 95.6753 4.08526C101.14 4.08526 105.364 8.12891 105.364 14C105.364 19.8711 101.024 23.9148 95.6753 23.9148Z" fill="#67D672"/>
<path d="M131.695 4.47317V0.390625H111.543V27.6075H115.806V4.47317H131.695Z" fill="#67D672"/>
<path d="M137.125 16.7208H145.458C151.077 16.7208 154.177 12.7938 154.177 8.5557C154.177 4.16211 151.116 0.390625 145.458 0.390625H132.862V27.6075H137.125V16.7208ZM137.125 12.6382V4.47317H145.07C147.822 4.47317 149.721 6.06729 149.721 8.5557C149.721 11.0441 147.822 12.6382 145.07 12.6382H137.125Z" fill="#67D672"/>
<path d="M150.002 27.6075H154.807L157.404 20.9977H170.813L173.41 27.6075H178.215L167.054 0.390625H161.163L150.002 27.6075ZM158.916 17.1096L164.109 3.92882L169.302 17.1096H158.916Z" fill="#67D672"/>
<path d="M192.211 27.6075V24.497H194.42C200.156 24.497 204.497 19.7924 204.497 13.9991C204.613 8.47794 200.04 3.38448 194.42 3.50112H192.211V0.390625H187.948V3.50112H185.739C180.12 3.38448 175.547 8.47794 175.663 13.9991C175.663 19.7924 180.004 24.497 185.739 24.497H187.948V27.6075H192.211ZM186.282 20.4145C182.523 20.4145 179.926 17.5373 179.926 13.9991C179.926 10.4609 182.523 7.58367 186.282 7.58367H187.948V20.4145H186.282ZM193.878 7.58367C197.637 7.58367 200.234 10.4609 200.234 13.9991C200.234 17.5373 197.637 20.4145 193.878 20.4145H192.211V7.58367H193.878Z" fill="#67D672"/>
<path d="M226.243 3.50112V27.6075H230.505V0.390625H223.103L210.47 24.5359V0.390625H206.207V27.6075H213.609L226.243 3.50112Z" fill="#67D672"/>
<path d="M233.392 27.6075H237.656V15.2822L249.476 27.6075H255.482L241.726 13.4159L254.708 0.390625H249.087L237.656 11.8995V0.390625H233.392V27.6075Z" fill="#67D672"/>
<path d="M253.787 27.6075H258.592L261.19 20.9977H274.597L277.195 27.6075H282L270.84 0.390625H264.947L253.787 27.6075ZM262.7 17.1096L267.894 3.92882L273.087 17.1096H262.7Z" fill="#67D672"/>
</g>
<defs>
<clipPath id="clip0_6451_52767">
<rect width="282" height="28" fill="white"/>
</clipPath>
</defs>
</svg>
