<svg width="206" height="85" viewBox="0 0 206 85" fill="none" xmlns="http://www.w3.org/2000/svg">
<g clip-path="url(#clip0_6015_9249)">
<path d="M7.34066 68.6309H1.97956V65.2044H6.56636V63.6742H1.97956V60.5996H7.28739V59.0391H0.0390625V70.1763H7.34066V68.6309Z" fill="#006525"/>
<path d="M11.2991 70.3282C12.3068 70.3282 13.0843 70.0069 13.6316 69.3644L13.6772 70.1755H15.4341V61.8984H13.5697V67.8437C13.2526 68.4919 12.6416 68.8157 11.7367 68.8151C10.8629 68.8151 10.4256 68.2898 10.425 67.2394V61.8984H8.56152V67.2612C8.56152 68.2554 8.79267 69.0143 9.25497 69.538C9.71726 70.0616 10.3987 70.325 11.2991 70.3282Z" fill="#006525"/>
<path d="M21.8468 61.8502C21.6361 61.7725 21.4122 61.7361 21.1876 61.743C20.3893 61.743 19.7652 62.1026 19.3156 62.8216L19.27 61.8957H17.4902V70.1728H19.3546V64.5121C19.6514 63.8595 20.2266 63.5331 21.0802 63.5331C21.3351 63.5327 21.5896 63.5533 21.8411 63.5948L21.8468 61.8502Z" fill="#006525"/>
<path d="M29.2477 64.5348C29.2325 63.6493 28.936 62.9647 28.3583 62.4809C27.7806 61.9971 27.0057 61.7536 26.0335 61.7504C25.4374 61.7419 24.846 61.8565 24.2966 62.0872C23.8123 62.2852 23.388 62.6056 23.0657 63.0169C22.7758 63.3785 22.6163 63.827 22.6129 64.29H24.4764C24.4746 64.1329 24.5106 63.9777 24.5815 63.8374C24.6523 63.6971 24.7559 63.5758 24.8835 63.4836C25.1856 63.2615 25.5549 63.1493 25.9298 63.1658C26.4219 63.1658 26.7875 63.2945 27.0266 63.552C27.2657 63.8094 27.3858 64.1524 27.3871 64.5812V65.1239H26.2456C25.023 65.1239 24.0835 65.3598 23.4272 65.8316C22.7708 66.3034 22.4423 66.9804 22.4417 67.8626C22.4363 68.1955 22.5043 68.5256 22.6407 68.8295C22.7771 69.1333 22.9787 69.4037 23.2312 69.6214C23.7582 70.0958 24.4383 70.3329 25.2716 70.3329C26.1277 70.3329 27.4499 69.408 27.4499 69.408V70.1802H29.2734L29.2477 64.5348ZM27.3833 67.8551C27.2149 68.161 26.9603 68.411 26.6509 68.5741C26.3334 68.7507 25.9757 68.8428 25.6121 68.8416C25.2126 68.8416 24.8955 68.7357 24.6609 68.5239C24.5421 68.4165 24.4484 68.2843 24.3868 68.1368C24.3251 67.9892 24.2969 67.8298 24.3042 67.6701C24.2963 67.4702 24.3401 67.2717 24.4314 67.0936C24.5227 66.9155 24.6584 66.7638 24.8255 66.6531C25.1736 66.4134 25.6927 66.2936 26.3826 66.2936H27.3871L27.3833 67.8551Z" fill="#006525"/>
<path d="M15.0779 77.0669C14.5008 76.5805 13.7262 76.337 12.7541 76.3364C12.158 76.3277 11.5666 76.4424 11.0171 76.6732C10.5327 76.8714 10.1082 77.1918 9.78531 77.6029C9.49563 77.9646 9.33648 78.413 9.33347 78.8759H11.1969C11.195 78.7189 11.2308 78.5637 11.3015 78.4234C11.3722 78.2831 11.4756 78.1618 11.6031 78.0696C11.9053 77.8476 12.2745 77.7355 12.6494 77.7518C13.1403 77.7518 13.5059 77.8805 13.7462 78.1379C13.9865 78.3953 14.1067 78.7384 14.1067 79.1672V79.7098H12.9652C11.7432 79.7098 10.8034 79.9457 10.1458 80.4175C9.48821 80.8893 9.15845 81.567 9.15655 82.4505C9.15117 82.7836 9.21917 83.1139 9.35575 83.4179C9.49234 83.722 9.69417 83.9925 9.94701 84.2102C10.4734 84.6846 11.1535 84.9217 11.9874 84.9217C12.8435 84.9217 14.1657 83.9958 14.1657 83.9958V84.768H15.9901L15.9683 79.1226C15.9518 78.2422 15.655 77.557 15.0779 77.0669ZM14.1039 82.441C13.9352 82.7467 13.6806 82.9967 13.3714 83.1601C13.0536 83.3367 12.6956 83.4288 12.3317 83.4276C11.9335 83.4276 11.6164 83.3217 11.3805 83.1098C11.2617 83.0025 11.1681 82.8703 11.1064 82.7227C11.0447 82.5751 11.0165 82.4157 11.0238 82.256C11.0156 82.0561 11.0593 81.8575 11.1506 81.6793C11.242 81.5012 11.3778 81.3495 11.5451 81.239C11.892 80.9994 12.411 80.8795 13.1022 80.8795H14.1067L14.1039 82.441Z" fill="#006525"/>
<path d="M55.4569 77.0669C54.8786 76.5805 54.104 76.337 53.1331 76.3364C52.5367 76.3278 51.945 76.4425 51.3952 76.6732C50.911 76.8714 50.4868 77.1918 50.1643 77.6028C49.8743 77.9645 49.7149 78.4129 49.7115 78.8759H51.5759C51.574 78.7189 51.6098 78.5637 51.6805 78.4234C51.7512 78.2831 51.8546 78.1618 51.9821 78.0696C52.2843 77.8476 52.6535 77.7355 53.0284 77.7518C53.5193 77.7518 53.8849 77.8805 54.1252 78.1379C54.3655 78.3953 54.4857 78.7384 54.4857 79.1672V79.7098H53.3442C52.1229 79.7098 51.1834 79.9457 50.5258 80.4175C49.8681 80.8893 49.539 81.567 49.5384 82.4505C49.5329 82.7835 49.6008 83.1137 49.7372 83.4178C49.8736 83.7219 50.0752 83.9924 50.3279 84.2102C50.8549 84.6846 51.535 84.9217 52.3683 84.9217C53.2244 84.9217 54.5466 83.9958 54.5466 83.9958V84.768H56.3701L56.3473 79.1226C56.3333 78.2422 56.0365 77.557 55.4569 77.0669ZM54.4857 82.441C54.317 82.7467 54.0624 82.9967 53.7533 83.1601C53.4354 83.3365 53.0774 83.4286 52.7136 83.4276C52.3153 83.4276 51.9983 83.3217 51.7624 83.1098C51.6435 83.0025 51.5499 82.8703 51.4882 82.7227C51.4266 82.5751 51.3984 82.4157 51.4056 82.256C51.3977 82.056 51.4416 81.8574 51.533 81.6792C51.6245 81.5011 51.7605 81.3495 51.9279 81.239C52.2754 80.9993 52.7944 80.8795 53.485 80.8795H54.4895L54.4857 82.441Z" fill="#006525"/>
<path d="M47.6688 62.4809C47.0911 61.9939 46.3165 61.7504 45.345 61.7504C44.7486 61.7419 44.1569 61.8565 43.6071 62.0872C43.1229 62.2854 42.6987 62.6058 42.3762 63.0169C42.0865 63.3786 41.9274 63.8271 41.9244 64.29H43.7878C43.7859 64.133 43.8217 63.9778 43.8924 63.8375C43.9631 63.6972 44.0665 63.5758 44.194 63.4836C44.4962 63.2617 44.8654 63.1495 45.2403 63.1658C45.7312 63.1658 46.0968 63.2945 46.3371 63.5519C46.5775 63.8094 46.6976 64.1524 46.6976 64.5812V65.1239H45.5562C44.3335 65.1239 43.3937 65.3598 42.7367 65.8316C42.0797 66.3034 41.7513 66.9804 41.7513 67.8626C41.746 68.1956 41.8141 68.5257 41.9507 68.8296C42.0872 69.1335 42.289 69.4038 42.5417 69.6214C43.0681 70.0958 43.7479 70.3329 44.5811 70.3329C45.4373 70.3329 46.7604 69.408 46.7604 69.408V70.1802H48.5839L48.5611 64.5348C48.544 63.6525 48.2465 62.9679 47.6688 62.4809ZM46.6948 67.855C46.5261 68.1608 46.2715 68.4107 45.9623 68.5741C45.6445 68.7507 45.2865 68.8428 44.9226 68.8416C44.5244 68.8416 44.2073 68.7357 43.9714 68.5238C43.8527 68.4165 43.7592 68.2843 43.6977 68.1367C43.6362 67.9891 43.6082 67.8297 43.6157 67.6701C43.6077 67.4703 43.6514 67.2719 43.7427 67.0939C43.834 66.9159 43.9698 66.7644 44.1369 66.654C44.4844 66.4144 45.0035 66.2945 45.6941 66.2945H46.6986L46.6948 67.855Z" fill="#006525"/>
<path d="M35.1096 68.66C34.856 68.8459 34.4828 68.9389 33.9901 68.9389C33.4827 68.9389 33.0762 68.8203 32.7706 68.5832C32.4649 68.346 32.2985 68.008 32.2712 67.5691H30.4639C30.4644 68.0656 30.62 68.5497 30.909 68.9541C31.2233 69.397 31.6528 69.746 32.1513 69.9635C32.7232 70.2165 33.3436 70.3418 33.9691 70.3306C34.9717 70.3306 35.7825 70.1001 36.4014 69.639C37.0203 69.178 37.3295 68.5749 37.3289 67.8299C37.3412 67.431 37.236 67.0372 37.0264 66.6972C36.7902 66.3564 36.4707 66.0814 36.098 65.8985C35.6813 65.6765 35.1074 65.4852 34.3763 65.3245C33.6451 65.1639 33.1593 65.0058 32.919 64.8502C32.806 64.7805 32.7133 64.6826 32.65 64.5661C32.5868 64.4496 32.5552 64.3186 32.5585 64.1861C32.5543 64.0375 32.5876 63.8901 32.6552 63.7576C32.7228 63.625 32.8227 63.5114 32.9456 63.4272C33.2031 63.2375 33.5366 63.1426 33.9463 63.1426C34.3867 63.1426 34.7387 63.2612 35.005 63.4984C35.133 63.6085 35.2351 63.7454 35.304 63.8994C35.3729 64.0534 35.4069 64.2206 35.4036 64.3892H37.268C37.2762 64.0221 37.1975 63.6582 37.0382 63.3272C36.8788 62.9962 36.6434 62.7074 36.351 62.4843C35.7403 61.9948 34.9387 61.75 33.9463 61.75C33.016 61.75 32.249 61.9897 31.6453 62.4691C31.0416 62.9485 30.74 63.5452 30.7407 64.2592C30.7407 65.1111 31.2058 65.7612 32.1361 66.2096C32.6432 66.4406 33.1762 66.61 33.7237 66.7143C34.3579 66.8471 34.8119 67.0002 35.0859 67.1735C35.2163 67.2515 35.3233 67.3632 35.3954 67.4967C35.4676 67.6303 35.5023 67.7808 35.4958 67.9324C35.4971 68.0761 35.4625 68.2179 35.3951 68.3449C35.3277 68.472 35.2296 68.5803 35.1096 68.66Z" fill="#006525"/>
<path d="M39.4989 60.7298C39.8369 60.7298 40.0979 60.635 40.2818 60.4452C40.3727 60.3533 40.4439 60.2439 40.4914 60.1238C40.5388 60.0036 40.5613 59.8752 40.5576 59.7461C40.5616 59.6151 40.5393 59.4847 40.4919 59.3625C40.4445 59.2403 40.3731 59.1288 40.2818 59.0346C40.0972 58.8449 39.8363 58.75 39.4989 58.75C39.1612 58.75 38.9025 58.8449 38.7208 59.0346C38.6304 59.1293 38.5598 59.2409 38.5131 59.3631C38.4664 59.4852 38.4445 59.6154 38.4488 59.7461C38.4448 59.8749 38.4669 60.0031 38.5136 60.1232C38.5604 60.2433 38.6308 60.3528 38.7208 60.4452C38.9053 60.635 39.1612 60.7298 39.4989 60.7298Z" fill="#006525"/>
<path d="M40.4269 61.8984H38.5635V70.1755H40.4269V61.8984Z" fill="#006525"/>
<path d="M54.6491 61.75C53.6523 61.75 52.8469 62.1197 52.233 62.859L52.1788 61.9027H50.4229V70.1798H52.2863V64.2896C52.6541 63.6116 53.2141 63.2726 53.9662 63.2726C54.4824 63.2726 54.8543 63.3991 55.0819 63.6521C55.3096 63.905 55.4234 64.294 55.4234 64.8189V70.1807H57.2878V64.7108C57.2561 62.7369 56.3766 61.75 54.6491 61.75Z" fill="#006525"/>
<path d="M7.45956 78.9513C7.81976 78.4485 8.00018 77.8246 8.00081 77.0796C8.00081 75.988 7.65203 75.1535 6.95446 74.5761C6.2569 73.9987 5.26097 73.7103 3.96667 73.7109H0.0390625V84.8482H1.97956V80.565H4.14264L6.38278 84.8482H8.46596V84.7533L5.95282 80.1115C6.55449 79.8738 7.07672 79.4717 7.45956 78.9513ZM5.50765 78.5111C5.13984 78.8394 4.62872 79.0038 3.97428 79.0044H1.97671V75.2715H4.02755C4.70292 75.2816 5.21024 75.4498 5.54951 75.7762C5.88878 76.1025 6.05873 76.5642 6.05936 77.1612C6.06 77.7323 5.87609 78.1823 5.50765 78.5111Z" fill="#006525"/>
<path d="M19.7297 76.5703H17.8662V84.8473H19.7297V76.5703Z" fill="#006525"/>
<path d="M18.8016 73.4297C18.4642 73.4297 18.2048 73.5246 18.0235 73.7143C17.933 73.8089 17.8622 73.9205 17.8153 74.0427C17.7685 74.1648 17.7464 74.2951 17.7505 74.4258C17.7468 74.5547 17.769 74.6831 17.8159 74.8034C17.8628 74.9236 17.9334 75.0333 18.0235 75.1259C18.2042 75.3118 18.4636 75.4048 18.8016 75.4048C19.1396 75.4048 19.4005 75.3118 19.5844 75.1259C19.6753 75.0337 19.7465 74.9242 19.7939 74.8039C19.8413 74.6836 19.8639 74.555 19.8603 74.4258C19.8643 74.2948 19.8419 74.1644 19.7946 74.0422C19.7472 73.92 19.6757 73.8085 19.5844 73.7143C19.4012 73.5246 19.1402 73.4297 18.8016 73.4297Z" fill="#006525"/>
<path d="M23.3293 73.0938H21.4658V84.8438H23.3293V73.0938Z" fill="#006525"/>
<path d="M32.2812 73.7109L28.0615 84.8482H30.0791L30.9837 82.2555H35.3099L36.223 84.8482H38.2472L34.0209 73.7109H32.2812ZM31.5297 80.6949L33.1468 76.075L34.7639 80.6949H31.5297Z" fill="#006525"/>
<path d="M41.1525 73.0938H39.2891V84.8438H41.1525V73.0938Z" fill="#006525"/>
<path d="M44.676 73.0938H42.8125V84.8438H44.676V73.0938Z" fill="#006525"/>
<path d="M47.4657 73.4297C47.1277 73.4297 46.868 73.5246 46.6866 73.7143C46.5962 73.809 46.5256 73.9206 46.4789 74.0428C46.4322 74.1649 46.4103 74.2951 46.4146 74.4258C46.4108 74.5547 46.4329 74.683 46.4796 74.8033C46.5263 74.9235 46.5967 75.0332 46.6866 75.1259C46.8686 75.3118 47.1283 75.4048 47.4657 75.4048C47.803 75.4048 48.0637 75.3118 48.2476 75.1259C48.3387 75.0339 48.4102 74.9244 48.4578 74.8041C48.5054 74.6837 48.528 74.5551 48.5244 74.4258C48.5284 74.2947 48.506 74.1642 48.4584 74.042C48.4109 73.9198 48.3392 73.8083 48.2476 73.7143C48.065 73.5246 47.8043 73.4297 47.4657 73.4297Z" fill="#006525"/>
<path d="M48.3947 76.5703H46.5312V84.8473H48.3947V76.5703Z" fill="#006525"/>
<path d="M62.5691 76.4141C61.5709 76.4141 60.7655 76.784 60.153 77.524L60.0987 76.5696H58.3428V84.8457H60.2062V78.9536C60.574 78.2763 61.134 77.9373 61.8861 77.9367C62.4023 77.9367 62.7742 78.0631 63.0019 78.3161C63.2295 78.5691 63.3434 78.958 63.3434 79.483V84.8448H65.2068V79.3748C65.1751 77.4016 64.2959 76.4147 62.5691 76.4141Z" fill="#006525"/>
<path d="M69.3846 78.5677C69.7461 78.1326 70.2597 77.9147 70.9256 77.9141C71.4443 77.9141 71.8718 78.0672 72.2079 78.3733C72.3724 78.5216 72.505 78.7018 72.5974 78.9029C72.6898 79.104 72.7401 79.3218 72.7453 79.543H74.6829C74.6487 78.6101 74.2891 77.8569 73.6043 77.2833C72.9194 76.7096 72.0316 76.4225 70.9408 76.4219C69.6548 76.4219 68.6401 76.8013 67.8969 77.5603C67.1537 78.3192 66.7802 79.3263 66.7764 80.5817V80.7715C66.7764 82.092 67.1515 83.127 67.9017 83.8764C68.6519 84.6258 69.6665 85.0009 70.9456 85.0015C71.5819 85.0068 72.2117 84.8734 72.791 84.6107C73.3251 84.3784 73.791 84.014 74.1445 83.552C74.4659 83.1369 74.6522 82.6337 74.6782 82.11H72.7453C72.734 82.3064 72.6797 82.4979 72.586 82.6711C72.4923 82.8442 72.3616 82.9946 72.2031 83.1118C71.8645 83.3818 71.4386 83.5169 70.9256 83.5169C70.2483 83.5169 69.7305 83.2955 69.3723 82.8528C69.014 82.4101 68.8348 81.7407 68.8348 80.8445V80.5466C68.8405 79.6618 69.0238 79.0022 69.3846 78.5677Z" fill="#006525"/>
<path d="M83.366 80.5457C83.366 79.2303 83.0318 78.2127 82.3634 77.493C81.695 76.7733 80.7479 76.4137 79.5221 76.4143C78.7884 76.4058 78.0657 76.5935 77.4294 76.9579C76.8076 77.3148 76.301 77.8414 75.9693 78.4758C75.6142 79.1597 75.4354 79.9209 75.449 80.6909V80.9205C75.449 82.1543 75.8472 83.1422 76.6437 83.8841C77.4402 84.6259 78.4789 84.9972 79.7599 84.9978C80.457 85.0084 81.1481 84.8686 81.786 84.588C82.3881 84.3157 83.3498 83.238 83.3498 82.3453H81.7099C81.7099 82.9677 80.7948 83.5131 79.8683 83.5131C79.2082 83.5131 78.6603 83.3142 78.2246 82.9164C77.789 82.5186 77.541 81.9782 77.4808 81.2952H83.3631L83.366 80.5457ZM81.3684 79.9339H77.516C77.6111 79.2964 77.8289 78.7989 78.1695 78.4416C78.51 78.0843 78.958 77.906 79.5135 77.9066C80.0735 77.9066 80.5117 78.0647 80.8281 78.3809C81.1446 78.6971 81.325 79.1686 81.3694 79.7954L81.3684 79.9339Z" fill="#006525"/>
<path d="M136.253 0.4375H116.366V34.0408V47.4652H136.253H160.743V34.0408H136.253V0.4375Z" fill="#006525"/>
<path d="M74.5059 47.4725H94.3922V26.0945L74.5059 17.3906V47.4725Z" fill="#006525"/>
<path d="M111.877 0.4375H57.0225V13.8619H111.877V0.4375Z" fill="#006525"/>
<path d="M32.217 29.9318C32.217 33.3394 30.6133 36.4263 25.8438 36.4263C22.2434 36.4263 19.8892 33.3062 19.892 29.9318V0.492188H0.00570735V29.9318H0C0 41.494 9.55124 48.4657 26.0074 48.4657C43.1152 48.4657 52.1024 41.4067 52.1024 29.9318V0.492188H32.217V29.9318Z" fill="#006525"/>
<path d="M206 13.633V1.38682C206 1.10222 199.802 0.464722 199.189 0.400214C197.028 0.175382 194.858 0.0368788 192.686 0.00652181C188.836 -0.0475515 184.963 0.229456 181.192 1.03107C175.152 2.31555 169.207 5.07045 165.352 10.0433C160.176 16.7218 159.749 26.5698 162.739 34.2539C164.911 39.8396 169.758 43.7405 175.287 45.7687C182.297 48.3405 190.093 48.4031 197.439 47.7049C198.214 47.6309 206 46.8682 206 46.5049V33.9285C206 33.9285 181.636 41.8356 181.758 23.3415C181.823 13.4898 193.134 9.01211 206 13.633Z" fill="#006525"/>
</g>
<defs>
<clipPath id="clip0_6015_9249">
<rect width="206" height="85" fill="white"/>
</clipPath>
</defs>
</svg>
