<svg width="218" height="218" viewBox="0 0 218 218" fill="none" xmlns="http://www.w3.org/2000/svg">
<path d="M12.415 188.025L12.415 205.586H29.976V188.025H12.415Z" fill="#006525"/>
<path d="M0.70752 217.293H41.6831V176.317H0.70752L0.70752 217.293ZM6.56118 211.439L6.56118 182.171H35.8295V211.439H6.56118Z" fill="#006525"/>
<path d="M205.585 29.975V12.4141L188.024 12.4141V29.975H205.585Z" fill="#006525"/>
<path d="M217.293 0.707031L176.317 0.707031V41.6826H217.293V0.707031ZM211.439 6.56069V35.829H182.171V6.56069L211.439 6.56069Z" fill="#006525"/>
<path d="M29.976 12.4141H12.415V29.975H29.976V12.4141Z" fill="#006525"/>
<path d="M0.70752 0.707031V41.6826H41.6831V0.707031H0.70752ZM6.56118 6.56069H35.8295V35.829H6.56118V6.56069Z" fill="#006525"/>
<path d="M53.3903 0.707031H47.5366V6.56069H53.3903V0.707031Z" fill="#006525"/>
<path d="M59.2443 0.707031H53.3906V6.56069H59.2443V0.707031Z" fill="#006525"/>
<path d="M82.6588 0.707031H76.8052V6.56069H82.6588V0.707031Z" fill="#006525"/>
<path d="M100.22 0.707031H94.3662V6.56069H100.22V0.707031Z" fill="#006525"/>
<path d="M117.781 0.707031H111.927V6.56069H117.781V0.707031Z" fill="#006525"/>
<path d="M135.341 0.707031H129.488V6.56069H135.341V0.707031Z" fill="#006525"/>
<path d="M147.049 0.707031H141.195V6.56069H147.049V0.707031Z" fill="#006525"/>
<path d="M170.464 0.707031H164.61V6.56069H170.464V0.707031Z" fill="#006525"/>
<path d="M65.0978 6.56055H59.2441V12.4142H65.0978V6.56055Z" fill="#006525"/>
<path d="M100.22 6.56055H94.3662V12.4142H100.22V6.56055Z" fill="#006525"/>
<path d="M135.341 6.56055H129.488V12.4142H135.341V6.56055Z" fill="#006525"/>
<path d="M158.756 6.56055H152.903V12.4142H158.756V6.56055Z" fill="#006525"/>
<path d="M164.61 6.56055H158.756V12.4142H164.61V6.56055Z" fill="#006525"/>
<path d="M65.0978 12.4141H59.2441V18.2677H65.0978V12.4141Z" fill="#006525"/>
<path d="M70.9513 12.4141H65.0977V18.2677H70.9513V12.4141Z" fill="#006525"/>
<path d="M76.8053 12.4141H70.9517V18.2677H76.8053V12.4141Z" fill="#006525"/>
<path d="M94.3659 12.4141H88.5122V18.2677H94.3659V12.4141Z" fill="#006525"/>
<path d="M100.22 12.4141H94.3662V18.2677H100.22V12.4141Z" fill="#006525"/>
<path d="M106.073 12.4141H100.22V18.2677H106.073V12.4141Z" fill="#006525"/>
<path d="M123.634 12.4141H117.781V18.2677H123.634V12.4141Z" fill="#006525"/>
<path d="M129.488 12.4141H123.634V18.2677H129.488V12.4141Z" fill="#006525"/>
<path d="M147.049 12.4141H141.195V18.2677H147.049V12.4141Z" fill="#006525"/>
<path d="M158.756 12.4141H152.903V18.2677H158.756V12.4141Z" fill="#006525"/>
<path d="M65.0978 18.2676H59.2441V24.1212H65.0978V18.2676Z" fill="#006525"/>
<path d="M70.9513 18.2676H65.0977V24.1212H70.9513V18.2676Z" fill="#006525"/>
<path d="M88.5123 18.2676H82.6587V24.1212H88.5123V18.2676Z" fill="#006525"/>
<path d="M100.22 18.2676H94.3662V24.1212H100.22V18.2676Z" fill="#006525"/>
<path d="M135.341 18.2676H129.488V24.1212H135.341V18.2676Z" fill="#006525"/>
<path d="M147.049 18.2676H141.195V24.1212H147.049V18.2676Z" fill="#006525"/>
<path d="M152.902 18.2676H147.049V24.1212H152.902V18.2676Z" fill="#006525"/>
<path d="M158.756 18.2676H152.903V24.1212H158.756V18.2676Z" fill="#006525"/>
<path d="M164.61 18.2676H158.756V24.1212H164.61V18.2676Z" fill="#006525"/>
<path d="M53.3903 24.1211H47.5366V29.9748H53.3903V24.1211Z" fill="#006525"/>
<path d="M59.2443 24.1211H53.3906V29.9748H59.2443V24.1211Z" fill="#006525"/>
<path d="M76.8053 24.1211H70.9517V29.9748H76.8053V24.1211Z" fill="#006525"/>
<path d="M94.3659 24.1211H88.5122V29.9748H94.3659V24.1211Z" fill="#006525"/>
<path d="M100.22 24.1211H94.3662V29.9748H100.22V24.1211Z" fill="#006525"/>
<path d="M117.781 24.1211H111.927V29.9748H117.781V24.1211Z" fill="#006525"/>
<path d="M123.634 24.1211H117.781V29.9748H123.634V24.1211Z" fill="#006525"/>
<path d="M135.341 24.1211H129.488V29.9748H135.341V24.1211Z" fill="#006525"/>
<path d="M141.195 24.1211H135.342V29.9748H141.195V24.1211Z" fill="#006525"/>
<path d="M53.3903 29.9746H47.5366V35.8283H53.3903V29.9746Z" fill="#006525"/>
<path d="M59.2443 29.9746H53.3906V35.8283H59.2443V29.9746Z" fill="#006525"/>
<path d="M70.9513 29.9746H65.0977V35.8283H70.9513V29.9746Z" fill="#006525"/>
<path d="M88.5123 29.9746H82.6587V35.8283H88.5123V29.9746Z" fill="#006525"/>
<path d="M106.073 29.9746H100.22V35.8283H106.073V29.9746Z" fill="#006525"/>
<path d="M111.927 29.9746H106.073V35.8283H111.927V29.9746Z" fill="#006525"/>
<path d="M117.781 29.9746H111.927V35.8283H117.781V29.9746Z" fill="#006525"/>
<path d="M135.341 29.9746H129.488V35.8283H135.341V29.9746Z" fill="#006525"/>
<path d="M164.61 29.9746H158.756V35.8283H164.61V29.9746Z" fill="#006525"/>
<path d="M170.464 29.9746H164.61V35.8283H170.464V29.9746Z" fill="#006525"/>
<path d="M53.3903 35.8281H47.5366V41.6818H53.3903V35.8281Z" fill="#006525"/>
<path d="M65.0978 35.8281H59.2441V41.6818H65.0978V35.8281Z" fill="#006525"/>
<path d="M76.8053 35.8281H70.9517V41.6818H76.8053V35.8281Z" fill="#006525"/>
<path d="M88.5123 35.8281H82.6587V41.6818H88.5123V35.8281Z" fill="#006525"/>
<path d="M100.22 35.8281H94.3662V41.6818H100.22V35.8281Z" fill="#006525"/>
<path d="M111.927 35.8281H106.073V41.6818H111.927V35.8281Z" fill="#006525"/>
<path d="M123.634 35.8281H117.781V41.6818H123.634V35.8281Z" fill="#006525"/>
<path d="M135.341 35.8281H129.488V41.6818H135.341V35.8281Z" fill="#006525"/>
<path d="M147.049 35.8281H141.195V41.6818H147.049V35.8281Z" fill="#006525"/>
<path d="M158.756 35.8281H152.903V41.6818H158.756V35.8281Z" fill="#006525"/>
<path d="M170.464 35.8281H164.61V41.6818H170.464V35.8281Z" fill="#006525"/>
<path d="M82.6588 41.6836H76.8052V47.5373H82.6588V41.6836Z" fill="#006525"/>
<path d="M88.5123 41.6836H82.6587V47.5373H88.5123V41.6836Z" fill="#006525"/>
<path d="M100.22 41.6836H94.3662V47.5373H100.22V41.6836Z" fill="#006525"/>
<path d="M111.927 41.6836H106.073V47.5373H111.927V41.6836Z" fill="#006525"/>
<path d="M117.781 41.6836H111.927V47.5373H117.781V41.6836Z" fill="#006525"/>
<path d="M129.488 41.6836H123.634V47.5373H129.488V41.6836Z" fill="#006525"/>
<path d="M141.195 41.6836H135.342V47.5373H141.195V41.6836Z" fill="#006525"/>
<path d="M158.756 41.6836H152.903V47.5373H158.756V41.6836Z" fill="#006525"/>
<path d="M170.464 41.6836H164.61V47.5373H170.464V41.6836Z" fill="#006525"/>
<path d="M12.4147 47.5371H6.56104V53.3908H12.4147V47.5371Z" fill="#006525"/>
<path d="M18.2687 47.5371H12.415V53.3908H18.2687V47.5371Z" fill="#006525"/>
<path d="M24.1222 47.5371H18.2686V53.3908H24.1222V47.5371Z" fill="#006525"/>
<path d="M29.9757 47.5371H24.1221V53.3908H29.9757V47.5371Z" fill="#006525"/>
<path d="M35.8292 47.5371H29.9756V53.3908H35.8292V47.5371Z" fill="#006525"/>
<path d="M41.6832 47.5371H35.8296V53.3908H41.6832V47.5371Z" fill="#006525"/>
<path d="M47.5368 47.5371H41.6831V53.3908H47.5368V47.5371Z" fill="#006525"/>
<path d="M65.0978 47.5371H59.2441V53.3908H65.0978V47.5371Z" fill="#006525"/>
<path d="M70.9513 47.5371H65.0977V53.3908H70.9513V47.5371Z" fill="#006525"/>
<path d="M76.8053 47.5371H70.9517V53.3908H76.8053V47.5371Z" fill="#006525"/>
<path d="M88.5123 47.5371H82.6587V53.3908H88.5123V47.5371Z" fill="#006525"/>
<path d="M94.3659 47.5371H88.5122V53.3908H94.3659V47.5371Z" fill="#006525"/>
<path d="M100.22 47.5371H94.3662V53.3908H100.22V47.5371Z" fill="#006525"/>
<path d="M106.073 47.5371H100.22V53.3908H106.073V47.5371Z" fill="#006525"/>
<path d="M111.927 47.5371H106.073V53.3908H111.927V47.5371Z" fill="#006525"/>
<path d="M123.634 47.5371H117.781V53.3908H123.634V47.5371Z" fill="#006525"/>
<path d="M135.341 47.5371H129.488V53.3908H135.341V47.5371Z" fill="#006525"/>
<path d="M141.195 47.5371H135.342V53.3908H141.195V47.5371Z" fill="#006525"/>
<path d="M147.049 47.5371H141.195V53.3908H147.049V47.5371Z" fill="#006525"/>
<path d="M188.025 47.5371H182.171V53.3908H188.025V47.5371Z" fill="#006525"/>
<path d="M193.878 47.5371H188.024V53.3908H193.878V47.5371Z" fill="#006525"/>
<path d="M217.293 47.5371H211.439V53.3908H217.293V47.5371Z" fill="#006525"/>
<path d="M12.4147 53.3906H6.56104V59.2443H12.4147V53.3906Z" fill="#006525"/>
<path d="M47.5368 53.3906H41.6831V59.2443H47.5368V53.3906Z" fill="#006525"/>
<path d="M53.3903 53.3906H47.5366V59.2443H53.3903V53.3906Z" fill="#006525"/>
<path d="M59.2443 53.3906H53.3906V59.2443H59.2443V53.3906Z" fill="#006525"/>
<path d="M65.0978 53.3906H59.2441V59.2443H65.0978V53.3906Z" fill="#006525"/>
<path d="M70.9513 53.3906H65.0977V59.2443H70.9513V53.3906Z" fill="#006525"/>
<path d="M76.8053 53.3906H70.9517V59.2443H76.8053V53.3906Z" fill="#006525"/>
<path d="M82.6588 53.3906H76.8052V59.2443H82.6588V53.3906Z" fill="#006525"/>
<path d="M88.5123 53.3906H82.6587V59.2443H88.5123V53.3906Z" fill="#006525"/>
<path d="M106.073 53.3906H100.22V59.2443H106.073V53.3906Z" fill="#006525"/>
<path d="M111.927 53.3906H106.073V59.2443H111.927V53.3906Z" fill="#006525"/>
<path d="M129.488 53.3906H123.634V59.2443H129.488V53.3906Z" fill="#006525"/>
<path d="M135.341 53.3906H129.488V59.2443H135.341V53.3906Z" fill="#006525"/>
<path d="M141.195 53.3906H135.342V59.2443H141.195V53.3906Z" fill="#006525"/>
<path d="M152.902 53.3906H147.049V59.2443H152.902V53.3906Z" fill="#006525"/>
<path d="M158.756 53.3906H152.903V59.2443H158.756V53.3906Z" fill="#006525"/>
<path d="M164.61 53.3906H158.756V59.2443H164.61V53.3906Z" fill="#006525"/>
<path d="M170.464 53.3906H164.61V59.2443H170.464V53.3906Z" fill="#006525"/>
<path d="M182.171 53.3906H176.317V59.2443H182.171V53.3906Z" fill="#006525"/>
<path d="M199.732 53.3906H193.878V59.2443H199.732V53.3906Z" fill="#006525"/>
<path d="M6.56118 59.2441H0.70752V65.0978H6.56118V59.2441Z" fill="#006525"/>
<path d="M18.2687 59.2441H12.415V65.0978H18.2687V59.2441Z" fill="#006525"/>
<path d="M24.1222 59.2441H18.2686V65.0978H24.1222V59.2441Z" fill="#006525"/>
<path d="M35.8292 59.2441H29.9756V65.0978H35.8292V59.2441Z" fill="#006525"/>
<path d="M41.6832 59.2441H35.8296V65.0978H41.6832V59.2441Z" fill="#006525"/>
<path d="M47.5368 59.2441H41.6831V65.0978H47.5368V59.2441Z" fill="#006525"/>
<path d="M53.3903 59.2441H47.5366V65.0978H53.3903V59.2441Z" fill="#006525"/>
<path d="M59.2443 59.2441H53.3906V65.0978H59.2443V59.2441Z" fill="#006525"/>
<path d="M82.6588 59.2441H76.8052V65.0978H82.6588V59.2441Z" fill="#006525"/>
<path d="M117.781 59.2441H111.927V65.0978H117.781V59.2441Z" fill="#006525"/>
<path d="M123.634 59.2441H117.781V65.0978H123.634V59.2441Z" fill="#006525"/>
<path d="M135.341 59.2441H129.488V65.0978H135.341V59.2441Z" fill="#006525"/>
<path d="M152.902 59.2441H147.049V65.0978H152.902V59.2441Z" fill="#006525"/>
<path d="M158.756 59.2441H152.903V65.0978H158.756V59.2441Z" fill="#006525"/>
<path d="M182.171 59.2441H176.317V65.0978H182.171V59.2441Z" fill="#006525"/>
<path d="M188.025 59.2441H182.171V65.0978H188.025V59.2441Z" fill="#006525"/>
<path d="M193.878 59.2441H188.024V65.0978H193.878V59.2441Z" fill="#006525"/>
<path d="M205.586 59.2441H199.732V65.0978H205.586V59.2441Z" fill="#006525"/>
<path d="M211.439 59.2441H205.585V65.0978H211.439V59.2441Z" fill="#006525"/>
<path d="M217.293 59.2441H211.439V65.0978H217.293V59.2441Z" fill="#006525"/>
<path d="M47.5368 65.0977H41.6831V70.9513H47.5368V65.0977Z" fill="#006525"/>
<path d="M59.2443 65.0977H53.3906V70.9513H59.2443V65.0977Z" fill="#006525"/>
<path d="M70.9513 65.0977H65.0977V70.9513H70.9513V65.0977Z" fill="#006525"/>
<path d="M94.3659 65.0977H88.5122V70.9513H94.3659V65.0977Z" fill="#006525"/>
<path d="M100.22 65.0977H94.3662V70.9513H100.22V65.0977Z" fill="#006525"/>
<path d="M106.073 65.0977H100.22V70.9513H106.073V65.0977Z" fill="#006525"/>
<path d="M123.634 65.0977H117.781V70.9513H123.634V65.0977Z" fill="#006525"/>
<path d="M129.488 65.0977H123.634V70.9513H129.488V65.0977Z" fill="#006525"/>
<path d="M135.341 65.0977H129.488V70.9513H135.341V65.0977Z" fill="#006525"/>
<path d="M141.195 65.0977H135.342V70.9513H141.195V65.0977Z" fill="#006525"/>
<path d="M158.756 65.0977H152.903V70.9513H158.756V65.0977Z" fill="#006525"/>
<path d="M170.464 65.0977H164.61V70.9513H170.464V65.0977Z" fill="#006525"/>
<path d="M182.171 65.0977H176.317V70.9513H182.171V65.0977Z" fill="#006525"/>
<path d="M35.8292 70.9512H29.9756V76.8048H35.8292V70.9512Z" fill="#006525"/>
<path d="M41.6832 70.9512H35.8296V76.8048H41.6832V70.9512Z" fill="#006525"/>
<path d="M59.2443 70.9512H53.3906V76.8048H59.2443V70.9512Z" fill="#006525"/>
<path d="M65.0978 70.9512H59.2441V76.8048H65.0978V70.9512Z" fill="#006525"/>
<path d="M88.5123 70.9512H82.6587V76.8048H88.5123V70.9512Z" fill="#006525"/>
<path d="M100.22 70.9512H94.3662V76.8048H100.22V70.9512Z" fill="#006525"/>
<path d="M106.073 70.9512H100.22V76.8048H106.073V70.9512Z" fill="#006525"/>
<path d="M117.781 70.9512H111.927V76.8048H117.781V70.9512Z" fill="#006525"/>
<path d="M135.341 70.9512H129.488V76.8048H135.341V70.9512Z" fill="#006525"/>
<path d="M141.195 70.9512H135.342V76.8048H141.195V70.9512Z" fill="#006525"/>
<path d="M147.049 70.9512H141.195V76.8048H147.049V70.9512Z" fill="#006525"/>
<path d="M152.902 70.9512H147.049V76.8048H152.902V70.9512Z" fill="#006525"/>
<path d="M158.756 70.9512H152.903V76.8048H158.756V70.9512Z" fill="#006525"/>
<path d="M176.317 70.9512H170.463V76.8048H176.317V70.9512Z" fill="#006525"/>
<path d="M182.171 70.9512H176.317V76.8048H182.171V70.9512Z" fill="#006525"/>
<path d="M188.025 70.9512H182.171V76.8048H188.025V70.9512Z" fill="#006525"/>
<path d="M193.878 70.9512H188.024V76.8048H193.878V70.9512Z" fill="#006525"/>
<path d="M199.732 70.9512H193.878V76.8048H199.732V70.9512Z" fill="#006525"/>
<path d="M205.586 70.9512H199.732V76.8048H205.586V70.9512Z" fill="#006525"/>
<path d="M217.293 70.9512H211.439V76.8048H217.293V70.9512Z" fill="#006525"/>
<path d="M18.2687 76.8047H12.415V82.6583H18.2687V76.8047Z" fill="#006525"/>
<path d="M29.9757 76.8047H24.1221V82.6583H29.9757V76.8047Z" fill="#006525"/>
<path d="M47.5368 76.8047H41.6831V82.6583H47.5368V76.8047Z" fill="#006525"/>
<path d="M65.0978 76.8047H59.2441V82.6583H65.0978V76.8047Z" fill="#006525"/>
<path d="M70.9513 76.8047H65.0977V82.6583H70.9513V76.8047Z" fill="#006525"/>
<path d="M76.8053 76.8047H70.9517V82.6583H76.8053V76.8047Z" fill="#006525"/>
<path d="M82.6588 76.8047H76.8052V82.6583H82.6588V76.8047Z" fill="#006525"/>
<path d="M94.3659 76.8047H88.5122V82.6583H94.3659V76.8047Z" fill="#006525"/>
<path d="M106.073 76.8047H100.22V82.6583H106.073V76.8047Z" fill="#006525"/>
<path d="M135.341 76.8047H129.488V82.6583H135.341V76.8047Z" fill="#006525"/>
<path d="M141.195 76.8047H135.342V82.6583H141.195V76.8047Z" fill="#006525"/>
<path d="M147.049 76.8047H141.195V82.6583H147.049V76.8047Z" fill="#006525"/>
<path d="M158.756 76.8047H152.903V82.6583H158.756V76.8047Z" fill="#006525"/>
<path d="M170.464 76.8047H164.61V82.6583H170.464V76.8047Z" fill="#006525"/>
<path d="M176.317 76.8047H170.463V82.6583H176.317V76.8047Z" fill="#006525"/>
<path d="M188.025 76.8047H182.171V82.6583H188.025V76.8047Z" fill="#006525"/>
<path d="M199.732 76.8047H193.878V82.6583H199.732V76.8047Z" fill="#006525"/>
<path d="M205.586 76.8047H199.732V82.6583H205.586V76.8047Z" fill="#006525"/>
<path d="M24.1222 82.6582H18.2686V88.5119H24.1222V82.6582Z" fill="#006525"/>
<path d="M41.6832 82.6582H35.8296V88.5119H41.6832V82.6582Z" fill="#006525"/>
<path d="M53.3903 82.6582H47.5366V88.5119H53.3903V82.6582Z" fill="#006525"/>
<path d="M65.0978 82.6582H59.2441V88.5119H65.0978V82.6582Z" fill="#006525"/>
<path d="M70.9513 82.6582H65.0977V88.5119H70.9513V82.6582Z" fill="#006525"/>
<path d="M88.5123 82.6582H82.6587V88.5119H88.5123V82.6582Z" fill="#006525"/>
<path d="M94.3659 82.6582H88.5122V88.5119H94.3659V82.6582Z" fill="#006525"/>
<path d="M111.927 82.6582H106.073V88.5119H111.927V82.6582Z" fill="#006525"/>
<path d="M117.781 82.6582H111.927V88.5119H117.781V82.6582Z" fill="#006525"/>
<path d="M123.634 82.6582H117.781V88.5119H123.634V82.6582Z" fill="#006525"/>
<path d="M135.341 82.6582H129.488V88.5119H135.341V82.6582Z" fill="#006525"/>
<path d="M158.756 82.6582H152.903V88.5119H158.756V82.6582Z" fill="#006525"/>
<path d="M164.61 82.6582H158.756V88.5119H164.61V82.6582Z" fill="#006525"/>
<path d="M170.464 82.6582H164.61V88.5119H170.464V82.6582Z" fill="#006525"/>
<path d="M176.317 82.6582H170.463V88.5119H176.317V82.6582Z" fill="#006525"/>
<path d="M188.025 82.6582H182.171V88.5119H188.025V82.6582Z" fill="#006525"/>
<path d="M199.732 82.6582H193.878V88.5119H199.732V82.6582Z" fill="#006525"/>
<path d="M211.439 82.6582H205.585V88.5119H211.439V82.6582Z" fill="#006525"/>
<path d="M217.293 82.6582H211.439V88.5119H217.293V82.6582Z" fill="#006525"/>
<path d="M12.4147 88.5117H6.56104V94.3654H12.4147V88.5117Z" fill="#006525"/>
<path d="M18.2687 88.5117H12.415V94.3654H18.2687V88.5117Z" fill="#006525"/>
<path d="M24.1222 88.5117H18.2686V94.3654H24.1222V88.5117Z" fill="#006525"/>
<path d="M29.9757 88.5117H24.1221V94.3654H29.9757V88.5117Z" fill="#006525"/>
<path d="M53.3903 88.5117H47.5366V94.3654H53.3903V88.5117Z" fill="#006525"/>
<path d="M65.0978 88.5117H59.2441V94.3654H65.0978V88.5117Z" fill="#006525"/>
<path d="M76.8053 88.5117H70.9517V94.3654H76.8053V88.5117Z" fill="#006525"/>
<path d="M82.6588 88.5117H76.8052V94.3654H82.6588V88.5117Z" fill="#006525"/>
<path d="M88.5123 88.5117H82.6587V94.3654H88.5123V88.5117Z" fill="#006525"/>
<path d="M94.3659 88.5117H88.5122V94.3654H94.3659V88.5117Z" fill="#006525"/>
<path d="M106.073 88.5117H100.22V94.3654H106.073V88.5117Z" fill="#006525"/>
<path d="M111.927 88.5117H106.073V94.3654H111.927V88.5117Z" fill="#006525"/>
<path d="M141.195 88.5117H135.342V94.3654H141.195V88.5117Z" fill="#006525"/>
<path d="M158.756 88.5117H152.903V94.3654H158.756V88.5117Z" fill="#006525"/>
<path d="M170.464 88.5117H164.61V94.3654H170.464V88.5117Z" fill="#006525"/>
<path d="M176.317 88.5117H170.463V94.3654H176.317V88.5117Z" fill="#006525"/>
<path d="M193.878 88.5117H188.024V94.3654H193.878V88.5117Z" fill="#006525"/>
<path d="M217.293 88.5117H211.439V94.3654H217.293V88.5117Z" fill="#006525"/>
<path d="M18.2687 94.3652H12.415V100.219H18.2687V94.3652Z" fill="#006525"/>
<path d="M24.1222 94.3652H18.2686V100.219H24.1222V94.3652Z" fill="#006525"/>
<path d="M29.9757 94.3652H24.1221V100.219H29.9757V94.3652Z" fill="#006525"/>
<path d="M35.8292 94.3652H29.9756V100.219H35.8292V94.3652Z" fill="#006525"/>
<path d="M41.6832 94.3652H35.8296V100.219H41.6832V94.3652Z" fill="#006525"/>
<path d="M53.3903 94.3652H47.5366V100.219H53.3903V94.3652Z" fill="#006525"/>
<path d="M65.0978 94.3652H59.2441V100.219H65.0978V94.3652Z" fill="#006525"/>
<path d="M88.5123 94.3652H82.6587V100.219H88.5123V94.3652Z" fill="#006525"/>
<path d="M94.3659 94.3652H88.5122V100.219H94.3659V94.3652Z" fill="#006525"/>
<path d="M100.22 94.3652H94.3662V100.219H100.22V94.3652Z" fill="#006525"/>
<path d="M106.073 94.3652H100.22V100.219H106.073V94.3652Z" fill="#006525"/>
<path d="M111.927 94.3652H106.073V100.219H111.927V94.3652Z" fill="#006525"/>
<path d="M129.488 94.3652H123.634V100.219H129.488V94.3652Z" fill="#006525"/>
<path d="M135.341 94.3652H129.488V100.219H135.341V94.3652Z" fill="#006525"/>
<path d="M147.049 94.3652H141.195V100.219H147.049V94.3652Z" fill="#006525"/>
<path d="M152.902 94.3652H147.049V100.219H152.902V94.3652Z" fill="#006525"/>
<path d="M158.756 94.3652H152.903V100.219H158.756V94.3652Z" fill="#006525"/>
<path d="M170.464 94.3652H164.61V100.219H170.464V94.3652Z" fill="#006525"/>
<path d="M176.317 94.3652H170.463V100.219H176.317V94.3652Z" fill="#006525"/>
<path d="M182.171 94.3652H176.317V100.219H182.171V94.3652Z" fill="#006525"/>
<path d="M193.878 94.3652H188.024V100.219H193.878V94.3652Z" fill="#006525"/>
<path d="M205.586 94.3652H199.732V100.219H205.586V94.3652Z" fill="#006525"/>
<path d="M211.439 94.3652H205.585V100.219H211.439V94.3652Z" fill="#006525"/>
<path d="M18.2687 100.219H12.415V106.072H18.2687V100.219Z" fill="#006525"/>
<path d="M24.1222 100.219H18.2686V106.072H24.1222V100.219Z" fill="#006525"/>
<path d="M47.5368 100.219H41.6831V106.072H47.5368V100.219Z" fill="#006525"/>
<path d="M59.2443 100.219H53.3906V106.072H59.2443V100.219Z" fill="#006525"/>
<path d="M65.0978 100.219H59.2441V106.072H65.0978V100.219Z" fill="#006525"/>
<path d="M100.22 100.219H94.3662V106.072H100.22V100.219Z" fill="#006525"/>
<path d="M106.073 100.219H100.22V106.072H106.073V100.219Z" fill="#006525"/>
<path d="M111.927 100.219H106.073V106.072H111.927V100.219Z" fill="#006525"/>
<path d="M117.781 100.219H111.927V106.072H117.781V100.219Z" fill="#006525"/>
<path d="M123.634 100.219H117.781V106.072H123.634V100.219Z" fill="#006525"/>
<path d="M129.488 100.219H123.634V106.072H129.488V100.219Z" fill="#006525"/>
<path d="M158.756 100.219H152.903V106.072H158.756V100.219Z" fill="#006525"/>
<path d="M170.464 100.219H164.61V106.072H170.464V100.219Z" fill="#006525"/>
<path d="M188.025 100.219H182.171V106.072H188.025V100.219Z" fill="#006525"/>
<path d="M199.732 100.219H193.878V106.072H199.732V100.219Z" fill="#006525"/>
<path d="M18.2687 106.072H12.415V111.926H18.2687V106.072Z" fill="#006525"/>
<path d="M24.1222 106.072H18.2686V111.926H24.1222V106.072Z" fill="#006525"/>
<path d="M29.9757 106.072H24.1221V111.926H29.9757V106.072Z" fill="#006525"/>
<path d="M41.6832 106.072H35.8296V111.926H41.6832V106.072Z" fill="#006525"/>
<path d="M53.3903 106.072H47.5366V111.926H53.3903V106.072Z" fill="#006525"/>
<path d="M88.5123 106.072H82.6587V111.926H88.5123V106.072Z" fill="#006525"/>
<path d="M94.3659 106.072H88.5122V111.926H94.3659V106.072Z" fill="#006525"/>
<path d="M106.073 106.072H100.22V111.926H106.073V106.072Z" fill="#006525"/>
<path d="M129.488 106.072H123.634V111.926H129.488V106.072Z" fill="#006525"/>
<path d="M135.341 106.072H129.488V111.926H135.341V106.072Z" fill="#006525"/>
<path d="M141.195 106.072H135.342V111.926H141.195V106.072Z" fill="#006525"/>
<path d="M147.049 106.072H141.195V111.926H147.049V106.072Z" fill="#006525"/>
<path d="M152.902 106.072H147.049V111.926H152.902V106.072Z" fill="#006525"/>
<path d="M164.61 106.072H158.756V111.926H164.61V106.072Z" fill="#006525"/>
<path d="M170.464 106.072H164.61V111.926H170.464V106.072Z" fill="#006525"/>
<path d="M176.317 106.072H170.463V111.926H176.317V106.072Z" fill="#006525"/>
<path d="M182.171 106.072H176.317V111.926H182.171V106.072Z" fill="#006525"/>
<path d="M188.025 106.072H182.171V111.926H188.025V106.072Z" fill="#006525"/>
<path d="M193.878 106.072H188.024V111.926H193.878V106.072Z" fill="#006525"/>
<path d="M205.586 106.072H199.732V111.926H205.586V106.072Z" fill="#006525"/>
<path d="M211.439 106.072H205.585V111.926H211.439V106.072Z" fill="#006525"/>
<path d="M217.293 106.072H211.439V111.926H217.293V106.072Z" fill="#006525"/>
<path d="M12.4147 111.926H6.56104V117.779H12.4147V111.926Z" fill="#006525"/>
<path d="M18.2687 111.926H12.415V117.779H18.2687V111.926Z" fill="#006525"/>
<path d="M24.1222 111.926H18.2686V117.779H24.1222V111.926Z" fill="#006525"/>
<path d="M29.9757 111.926H24.1221V117.779H29.9757V111.926Z" fill="#006525"/>
<path d="M47.5368 111.926H41.6831V117.779H47.5368V111.926Z" fill="#006525"/>
<path d="M53.3903 111.926H47.5366V117.779H53.3903V111.926Z" fill="#006525"/>
<path d="M70.9513 111.926H65.0977V117.779H70.9513V111.926Z" fill="#006525"/>
<path d="M82.6588 111.926H76.8052V117.779H82.6588V111.926Z" fill="#006525"/>
<path d="M88.5123 111.926H82.6587V117.779H88.5123V111.926Z" fill="#006525"/>
<path d="M100.22 111.926H94.3662V117.779H100.22V111.926Z" fill="#006525"/>
<path d="M106.073 111.926H100.22V117.779H106.073V111.926Z" fill="#006525"/>
<path d="M129.488 111.926H123.634V117.779H129.488V111.926Z" fill="#006525"/>
<path d="M135.341 111.926H129.488V117.779H135.341V111.926Z" fill="#006525"/>
<path d="M141.195 111.926H135.342V117.779H141.195V111.926Z" fill="#006525"/>
<path d="M158.756 111.926H152.903V117.779H158.756V111.926Z" fill="#006525"/>
<path d="M170.464 111.926H164.61V117.779H170.464V111.926Z" fill="#006525"/>
<path d="M182.171 111.926H176.317V117.779H182.171V111.926Z" fill="#006525"/>
<path d="M199.732 111.926H193.878V117.779H199.732V111.926Z" fill="#006525"/>
<path d="M211.439 111.926H205.585V117.779H211.439V111.926Z" fill="#006525"/>
<path d="M217.293 111.926H211.439V117.779H217.293V111.926Z" fill="#006525"/>
<path d="M24.1222 117.779H18.2686V123.633H24.1222V117.779Z" fill="#006525"/>
<path d="M29.9757 117.779H24.1221V123.633H29.9757V117.779Z" fill="#006525"/>
<path d="M35.8292 117.779H29.9756V123.633H35.8292V117.779Z" fill="#006525"/>
<path d="M41.6832 117.779H35.8296V123.633H41.6832V117.779Z" fill="#006525"/>
<path d="M53.3903 117.779H47.5366V123.633H53.3903V117.779Z" fill="#006525"/>
<path d="M65.0978 117.779H59.2441V123.633H65.0978V117.779Z" fill="#006525"/>
<path d="M70.9513 117.779H65.0977V123.633H70.9513V117.779Z" fill="#006525"/>
<path d="M76.8053 117.779H70.9517V123.633H76.8053V117.779Z" fill="#006525"/>
<path d="M82.6588 117.779H76.8052V123.633H82.6588V117.779Z" fill="#006525"/>
<path d="M88.5123 117.779H82.6587V123.633H88.5123V117.779Z" fill="#006525"/>
<path d="M94.3659 117.779H88.5122V123.633H94.3659V117.779Z" fill="#006525"/>
<path d="M100.22 117.779H94.3662V123.633H100.22V117.779Z" fill="#006525"/>
<path d="M106.073 117.779H100.22V123.633H106.073V117.779Z" fill="#006525"/>
<path d="M117.781 117.779H111.927V123.633H117.781V117.779Z" fill="#006525"/>
<path d="M123.634 117.779H117.781V123.633H123.634V117.779Z" fill="#006525"/>
<path d="M135.341 117.779H129.488V123.633H135.341V117.779Z" fill="#006525"/>
<path d="M141.195 117.779H135.342V123.633H141.195V117.779Z" fill="#006525"/>
<path d="M147.049 117.779H141.195V123.633H147.049V117.779Z" fill="#006525"/>
<path d="M152.902 117.779H147.049V123.633H152.902V117.779Z" fill="#006525"/>
<path d="M158.756 117.779H152.903V123.633H158.756V117.779Z" fill="#006525"/>
<path d="M176.317 117.779H170.463V123.633H176.317V117.779Z" fill="#006525"/>
<path d="M182.171 117.779H176.317V123.633H182.171V117.779Z" fill="#006525"/>
<path d="M188.025 117.779H182.171V123.633H188.025V117.779Z" fill="#006525"/>
<path d="M193.878 117.779H188.024V123.633H193.878V117.779Z" fill="#006525"/>
<path d="M199.732 117.779H193.878V123.633H199.732V117.779Z" fill="#006525"/>
<path d="M205.586 117.779H199.732V123.633H205.586V117.779Z" fill="#006525"/>
<path d="M217.293 117.779H211.439V123.633H217.293V117.779Z" fill="#006525"/>
<path d="M12.4147 123.635H6.56104V129.488H12.4147V123.635Z" fill="#006525"/>
<path d="M24.1222 123.635H18.2686V129.488H24.1222V123.635Z" fill="#006525"/>
<path d="M53.3903 123.635H47.5366V129.488H53.3903V123.635Z" fill="#006525"/>
<path d="M59.2443 123.635H53.3906V129.488H59.2443V123.635Z" fill="#006525"/>
<path d="M65.0978 123.635H59.2441V129.488H65.0978V123.635Z" fill="#006525"/>
<path d="M76.8053 123.635H70.9517V129.488H76.8053V123.635Z" fill="#006525"/>
<path d="M88.5123 123.635H82.6587V129.488H88.5123V123.635Z" fill="#006525"/>
<path d="M106.073 123.635H100.22V129.488H106.073V123.635Z" fill="#006525"/>
<path d="M117.781 123.635H111.927V129.488H117.781V123.635Z" fill="#006525"/>
<path d="M129.488 123.635H123.634V129.488H129.488V123.635Z" fill="#006525"/>
<path d="M135.341 123.635H129.488V129.488H135.341V123.635Z" fill="#006525"/>
<path d="M141.195 123.635H135.342V129.488H141.195V123.635Z" fill="#006525"/>
<path d="M152.902 123.635H147.049V129.488H152.902V123.635Z" fill="#006525"/>
<path d="M176.317 123.635H170.463V129.488H176.317V123.635Z" fill="#006525"/>
<path d="M188.025 123.635H182.171V129.488H188.025V123.635Z" fill="#006525"/>
<path d="M199.732 123.635H193.878V129.488H199.732V123.635Z" fill="#006525"/>
<path d="M205.586 123.635H199.732V129.488H205.586V123.635Z" fill="#006525"/>
<path d="M6.56118 129.488H0.70752V135.342H6.56118V129.488Z" fill="#006525"/>
<path d="M18.2687 129.488H12.415V135.342H18.2687V129.488Z" fill="#006525"/>
<path d="M24.1222 129.488H18.2686V135.342H24.1222V129.488Z" fill="#006525"/>
<path d="M41.6832 129.488H35.8296V135.342H41.6832V129.488Z" fill="#006525"/>
<path d="M59.2443 129.488H53.3906V135.342H59.2443V129.488Z" fill="#006525"/>
<path d="M65.0978 129.488H59.2441V135.342H65.0978V129.488Z" fill="#006525"/>
<path d="M82.6588 129.488H76.8052V135.342H82.6588V129.488Z" fill="#006525"/>
<path d="M94.3659 129.488H88.5122V135.342H94.3659V129.488Z" fill="#006525"/>
<path d="M106.073 129.488H100.22V135.342H106.073V129.488Z" fill="#006525"/>
<path d="M111.927 129.488H106.073V135.342H111.927V129.488Z" fill="#006525"/>
<path d="M117.781 129.488H111.927V135.342H117.781V129.488Z" fill="#006525"/>
<path d="M147.049 129.488H141.195V135.342H147.049V129.488Z" fill="#006525"/>
<path d="M152.902 129.488H147.049V135.342H152.902V129.488Z" fill="#006525"/>
<path d="M158.756 129.488H152.903V135.342H158.756V129.488Z" fill="#006525"/>
<path d="M164.61 129.488H158.756V135.342H164.61V129.488Z" fill="#006525"/>
<path d="M176.317 129.488H170.463V135.342H176.317V129.488Z" fill="#006525"/>
<path d="M211.439 129.488H205.585V135.342H211.439V129.488Z" fill="#006525"/>
<path d="M217.293 129.488H211.439V135.342H217.293V129.488Z" fill="#006525"/>
<path d="M29.9757 135.342H24.1221V141.195H29.9757V135.342Z" fill="#006525"/>
<path d="M35.8292 135.342H29.9756V141.195H35.8292V135.342Z" fill="#006525"/>
<path d="M47.5368 135.342H41.6831V141.195H47.5368V135.342Z" fill="#006525"/>
<path d="M59.2443 135.342H53.3906V141.195H59.2443V135.342Z" fill="#006525"/>
<path d="M65.0978 135.342H59.2441V141.195H65.0978V135.342Z" fill="#006525"/>
<path d="M76.8053 135.342H70.9517V141.195H76.8053V135.342Z" fill="#006525"/>
<path d="M82.6588 135.342H76.8052V141.195H82.6588V135.342Z" fill="#006525"/>
<path d="M106.073 135.342H100.22V141.195H106.073V135.342Z" fill="#006525"/>
<path d="M111.927 135.342H106.073V141.195H111.927V135.342Z" fill="#006525"/>
<path d="M117.781 135.342H111.927V141.195H117.781V135.342Z" fill="#006525"/>
<path d="M129.488 135.342H123.634V141.195H129.488V135.342Z" fill="#006525"/>
<path d="M135.341 135.342H129.488V141.195H135.341V135.342Z" fill="#006525"/>
<path d="M152.902 135.342H147.049V141.195H152.902V135.342Z" fill="#006525"/>
<path d="M188.025 135.342H182.171V141.195H188.025V135.342Z" fill="#006525"/>
<path d="M211.439 135.342H205.585V141.195H211.439V135.342Z" fill="#006525"/>
<path d="M6.56118 141.195H0.70752V147.049H6.56118V141.195Z" fill="#006525"/>
<path d="M29.9757 141.195H24.1221V147.049H29.9757V141.195Z" fill="#006525"/>
<path d="M41.6832 141.195H35.8296V147.049H41.6832V141.195Z" fill="#006525"/>
<path d="M47.5368 141.195H41.6831V147.049H47.5368V141.195Z" fill="#006525"/>
<path d="M53.3903 141.195H47.5366V147.049H53.3903V141.195Z" fill="#006525"/>
<path d="M59.2443 141.195H53.3906V147.049H59.2443V141.195Z" fill="#006525"/>
<path d="M65.0978 141.195H59.2441V147.049H65.0978V141.195Z" fill="#006525"/>
<path d="M70.9513 141.195H65.0977V147.049H70.9513V141.195Z" fill="#006525"/>
<path d="M76.8053 141.195H70.9517V147.049H76.8053V141.195Z" fill="#006525"/>
<path d="M82.6588 141.195H76.8052V147.049H82.6588V141.195Z" fill="#006525"/>
<path d="M94.3659 141.195H88.5122V147.049H94.3659V141.195Z" fill="#006525"/>
<path d="M100.22 141.195H94.3662V147.049H100.22V141.195Z" fill="#006525"/>
<path d="M111.927 141.195H106.073V147.049H111.927V141.195Z" fill="#006525"/>
<path d="M117.781 141.195H111.927V147.049H117.781V141.195Z" fill="#006525"/>
<path d="M135.341 141.195H129.488V147.049H135.341V141.195Z" fill="#006525"/>
<path d="M141.195 141.195H135.342V147.049H141.195V141.195Z" fill="#006525"/>
<path d="M147.049 141.195H141.195V147.049H147.049V141.195Z" fill="#006525"/>
<path d="M158.756 141.195H152.903V147.049H158.756V141.195Z" fill="#006525"/>
<path d="M170.464 141.195H164.61V147.049H170.464V141.195Z" fill="#006525"/>
<path d="M176.317 141.195H170.463V147.049H176.317V141.195Z" fill="#006525"/>
<path d="M193.878 141.195H188.024V147.049H193.878V141.195Z" fill="#006525"/>
<path d="M199.732 141.195H193.878V147.049H199.732V141.195Z" fill="#006525"/>
<path d="M205.586 141.195H199.732V147.049H205.586V141.195Z" fill="#006525"/>
<path d="M217.293 141.195H211.439V147.049H217.293V141.195Z" fill="#006525"/>
<path d="M6.56118 147.049H0.70752V152.902H6.56118V147.049Z" fill="#006525"/>
<path d="M18.2687 147.049H12.415V152.902H18.2687V147.049Z" fill="#006525"/>
<path d="M29.9757 147.049H24.1221V152.902H29.9757V147.049Z" fill="#006525"/>
<path d="M47.5368 147.049H41.6831V152.902H47.5368V147.049Z" fill="#006525"/>
<path d="M65.0978 147.049H59.2441V152.902H65.0978V147.049Z" fill="#006525"/>
<path d="M76.8053 147.049H70.9517V152.902H76.8053V147.049Z" fill="#006525"/>
<path d="M82.6588 147.049H76.8052V152.902H82.6588V147.049Z" fill="#006525"/>
<path d="M106.073 147.049H100.22V152.902H106.073V147.049Z" fill="#006525"/>
<path d="M117.781 147.049H111.927V152.902H117.781V147.049Z" fill="#006525"/>
<path d="M141.195 147.049H135.342V152.902H141.195V147.049Z" fill="#006525"/>
<path d="M164.61 147.049H158.756V152.902H164.61V147.049Z" fill="#006525"/>
<path d="M182.171 147.049H176.317V152.902H182.171V147.049Z" fill="#006525"/>
<path d="M188.025 147.049H182.171V152.902H188.025V147.049Z" fill="#006525"/>
<path d="M199.732 147.049H193.878V152.902H199.732V147.049Z" fill="#006525"/>
<path d="M6.56118 152.902H0.70752V158.756H6.56118V152.902Z" fill="#006525"/>
<path d="M18.2687 152.902H12.415V158.756H18.2687V152.902Z" fill="#006525"/>
<path d="M35.8292 152.902H29.9756V158.756H35.8292V152.902Z" fill="#006525"/>
<path d="M41.6832 152.902H35.8296V158.756H41.6832V152.902Z" fill="#006525"/>
<path d="M65.0978 152.902H59.2441V158.756H65.0978V152.902Z" fill="#006525"/>
<path d="M70.9513 152.902H65.0977V158.756H70.9513V152.902Z" fill="#006525"/>
<path d="M82.6588 152.902H76.8052V158.756H82.6588V152.902Z" fill="#006525"/>
<path d="M88.5123 152.902H82.6587V158.756H88.5123V152.902Z" fill="#006525"/>
<path d="M100.22 152.902H94.3662V158.756H100.22V152.902Z" fill="#006525"/>
<path d="M106.073 152.902H100.22V158.756H106.073V152.902Z" fill="#006525"/>
<path d="M117.781 152.902H111.927V158.756H117.781V152.902Z" fill="#006525"/>
<path d="M129.488 152.902H123.634V158.756H129.488V152.902Z" fill="#006525"/>
<path d="M147.049 152.902H141.195V158.756H147.049V152.902Z" fill="#006525"/>
<path d="M152.902 152.902H147.049V158.756H152.902V152.902Z" fill="#006525"/>
<path d="M158.756 152.902H152.903V158.756H158.756V152.902Z" fill="#006525"/>
<path d="M164.61 152.902H158.756V158.756H164.61V152.902Z" fill="#006525"/>
<path d="M170.464 152.902H164.61V158.756H170.464V152.902Z" fill="#006525"/>
<path d="M182.171 152.902H176.317V158.756H182.171V152.902Z" fill="#006525"/>
<path d="M211.439 152.902H205.585V158.756H211.439V152.902Z" fill="#006525"/>
<path d="M217.293 152.902H211.439V158.756H217.293V152.902Z" fill="#006525"/>
<path d="M6.56118 158.756H0.70752V164.61H6.56118V158.756Z" fill="#006525"/>
<path d="M18.2687 158.756H12.415V164.61H18.2687V158.756Z" fill="#006525"/>
<path d="M53.3903 158.756H47.5366V164.61H53.3903V158.756Z" fill="#006525"/>
<path d="M59.2443 158.756H53.3906V164.61H59.2443V158.756Z" fill="#006525"/>
<path d="M65.0978 158.756H59.2441V164.61H65.0978V158.756Z" fill="#006525"/>
<path d="M70.9513 158.756H65.0977V164.61H70.9513V158.756Z" fill="#006525"/>
<path d="M82.6588 158.756H76.8052V164.61H82.6588V158.756Z" fill="#006525"/>
<path d="M88.5123 158.756H82.6587V164.61H88.5123V158.756Z" fill="#006525"/>
<path d="M100.22 158.756H94.3662V164.61H100.22V158.756Z" fill="#006525"/>
<path d="M106.073 158.756H100.22V164.61H106.073V158.756Z" fill="#006525"/>
<path d="M111.927 158.756H106.073V164.61H111.927V158.756Z" fill="#006525"/>
<path d="M117.781 158.756H111.927V164.61H117.781V158.756Z" fill="#006525"/>
<path d="M129.488 158.756H123.634V164.61H129.488V158.756Z" fill="#006525"/>
<path d="M135.341 158.756H129.488V164.61H135.341V158.756Z" fill="#006525"/>
<path d="M147.049 158.756H141.195V164.61H147.049V158.756Z" fill="#006525"/>
<path d="M158.756 158.756H152.903V164.61H158.756V158.756Z" fill="#006525"/>
<path d="M164.61 158.756H158.756V164.61H164.61V158.756Z" fill="#006525"/>
<path d="M176.317 158.756H170.463V164.61H176.317V158.756Z" fill="#006525"/>
<path d="M188.025 158.756H182.171V164.61H188.025V158.756Z" fill="#006525"/>
<path d="M193.878 158.756H188.024V164.61H193.878V158.756Z" fill="#006525"/>
<path d="M211.439 158.756H205.585V164.61H211.439V158.756Z" fill="#006525"/>
<path d="M217.293 158.756H211.439V164.61H217.293V158.756Z" fill="#006525"/>
<path d="M6.56118 164.609H0.70752V170.463H6.56118V164.609Z" fill="#006525"/>
<path d="M18.2687 164.609H12.415V170.463H18.2687V164.609Z" fill="#006525"/>
<path d="M29.9757 164.609H24.1221V170.463H29.9757V164.609Z" fill="#006525"/>
<path d="M35.8292 164.609H29.9756V170.463H35.8292V164.609Z" fill="#006525"/>
<path d="M41.6832 164.609H35.8296V170.463H41.6832V164.609Z" fill="#006525"/>
<path d="M65.0978 164.609H59.2441V170.463H65.0978V164.609Z" fill="#006525"/>
<path d="M70.9513 164.609H65.0977V170.463H70.9513V164.609Z" fill="#006525"/>
<path d="M76.8053 164.609H70.9517V170.463H76.8053V164.609Z" fill="#006525"/>
<path d="M111.927 164.609H106.073V170.463H111.927V164.609Z" fill="#006525"/>
<path d="M117.781 164.609H111.927V170.463H117.781V164.609Z" fill="#006525"/>
<path d="M123.634 164.609H117.781V170.463H123.634V164.609Z" fill="#006525"/>
<path d="M152.902 164.609H147.049V170.463H152.902V164.609Z" fill="#006525"/>
<path d="M158.756 164.609H152.903V170.463H158.756V164.609Z" fill="#006525"/>
<path d="M164.61 164.609H158.756V170.463H164.61V164.609Z" fill="#006525"/>
<path d="M170.464 164.609H164.61V170.463H170.464V164.609Z" fill="#006525"/>
<path d="M176.317 164.609H170.463V170.463H176.317V164.609Z" fill="#006525"/>
<path d="M182.171 164.609H176.317V170.463H182.171V164.609Z" fill="#006525"/>
<path d="M188.025 164.609H182.171V170.463H188.025V164.609Z" fill="#006525"/>
<path d="M193.878 164.609H188.024V170.463H193.878V164.609Z" fill="#006525"/>
<path d="M199.732 164.609H193.878V170.463H199.732V164.609Z" fill="#006525"/>
<path d="M205.586 164.609H199.732V170.463H205.586V164.609Z" fill="#006525"/>
<path d="M53.3903 170.463H47.5366V176.317H53.3903V170.463Z" fill="#006525"/>
<path d="M59.2443 170.463H53.3906V176.317H59.2443V170.463Z" fill="#006525"/>
<path d="M65.0978 170.463H59.2441V176.317H65.0978V170.463Z" fill="#006525"/>
<path d="M70.9513 170.463H65.0977V176.317H70.9513V170.463Z" fill="#006525"/>
<path d="M82.6588 170.463H76.8052V176.317H82.6588V170.463Z" fill="#006525"/>
<path d="M106.073 170.463H100.22V176.317H106.073V170.463Z" fill="#006525"/>
<path d="M111.927 170.463H106.073V176.317H111.927V170.463Z" fill="#006525"/>
<path d="M123.634 170.463H117.781V176.317H123.634V170.463Z" fill="#006525"/>
<path d="M129.488 170.463H123.634V176.317H129.488V170.463Z" fill="#006525"/>
<path d="M141.195 170.463H135.342V176.317H141.195V170.463Z" fill="#006525"/>
<path d="M158.756 170.463H152.903V176.317H158.756V170.463Z" fill="#006525"/>
<path d="M164.61 170.463H158.756V176.317H164.61V170.463Z" fill="#006525"/>
<path d="M170.464 170.463H164.61V176.317H170.464V170.463Z" fill="#006525"/>
<path d="M193.878 170.463H188.024V176.317H193.878V170.463Z" fill="#006525"/>
<path d="M53.3903 176.316H47.5366V182.17H53.3903V176.316Z" fill="#006525"/>
<path d="M59.2443 176.316H53.3906V182.17H59.2443V176.316Z" fill="#006525"/>
<path d="M65.0978 176.316H59.2441V182.17H65.0978V176.316Z" fill="#006525"/>
<path d="M70.9513 176.316H65.0977V182.17H70.9513V176.316Z" fill="#006525"/>
<path d="M82.6588 176.316H76.8052V182.17H82.6588V176.316Z" fill="#006525"/>
<path d="M94.3659 176.316H88.5122V182.17H94.3659V176.316Z" fill="#006525"/>
<path d="M106.073 176.316H100.22V182.17H106.073V176.316Z" fill="#006525"/>
<path d="M111.927 176.316H106.073V182.17H111.927V176.316Z" fill="#006525"/>
<path d="M117.781 176.316H111.927V182.17H117.781V176.316Z" fill="#006525"/>
<path d="M123.634 176.316H117.781V182.17H123.634V176.316Z" fill="#006525"/>
<path d="M129.488 176.316H123.634V182.17H129.488V176.316Z" fill="#006525"/>
<path d="M152.902 176.316H147.049V182.17H152.902V176.316Z" fill="#006525"/>
<path d="M170.464 176.316H164.61V182.17H170.464V176.316Z" fill="#006525"/>
<path d="M182.171 176.316H176.317V182.17H182.171V176.316Z" fill="#006525"/>
<path d="M193.878 176.316H188.024V182.17H193.878V176.316Z" fill="#006525"/>
<path d="M199.732 176.316H193.878V182.17H199.732V176.316Z" fill="#006525"/>
<path d="M211.439 176.316H205.585V182.17H211.439V176.316Z" fill="#006525"/>
<path d="M217.293 176.316H211.439V182.17H217.293V176.316Z" fill="#006525"/>
<path d="M53.3903 182.17H47.5366V188.024H53.3903V182.17Z" fill="#006525"/>
<path d="M59.2443 182.17H53.3906V188.024H59.2443V182.17Z" fill="#006525"/>
<path d="M76.8053 182.17H70.9517V188.024H76.8053V182.17Z" fill="#006525"/>
<path d="M82.6588 182.17H76.8052V188.024H82.6588V182.17Z" fill="#006525"/>
<path d="M88.5123 182.17H82.6587V188.024H88.5123V182.17Z" fill="#006525"/>
<path d="M94.3659 182.17H88.5122V188.024H94.3659V182.17Z" fill="#006525"/>
<path d="M100.22 182.17H94.3662V188.024H100.22V182.17Z" fill="#006525"/>
<path d="M106.073 182.17H100.22V188.024H106.073V182.17Z" fill="#006525"/>
<path d="M111.927 182.17H106.073V188.024H111.927V182.17Z" fill="#006525"/>
<path d="M129.488 182.17H123.634V188.024H129.488V182.17Z" fill="#006525"/>
<path d="M135.341 182.17H129.488V188.024H135.341V182.17Z" fill="#006525"/>
<path d="M141.195 182.17H135.342V188.024H141.195V182.17Z" fill="#006525"/>
<path d="M158.756 182.17H152.903V188.024H158.756V182.17Z" fill="#006525"/>
<path d="M164.61 182.17H158.756V188.024H164.61V182.17Z" fill="#006525"/>
<path d="M170.464 182.17H164.61V188.024H170.464V182.17Z" fill="#006525"/>
<path d="M193.878 182.17H188.024V188.024H193.878V182.17Z" fill="#006525"/>
<path d="M217.293 182.17H211.439V188.024H217.293V182.17Z" fill="#006525"/>
<path d="M53.3903 188.023H47.5366V193.877H53.3903V188.023Z" fill="#006525"/>
<path d="M70.9513 188.023H65.0977V193.877H70.9513V188.023Z" fill="#006525"/>
<path d="M82.6588 188.023H76.8052V193.877H82.6588V188.023Z" fill="#006525"/>
<path d="M88.5123 188.023H82.6587V193.877H88.5123V188.023Z" fill="#006525"/>
<path d="M106.073 188.023H100.22V193.877H106.073V188.023Z" fill="#006525"/>
<path d="M111.927 188.023H106.073V193.877H111.927V188.023Z" fill="#006525"/>
<path d="M129.488 188.023H123.634V193.877H129.488V188.023Z" fill="#006525"/>
<path d="M152.902 188.023H147.049V193.877H152.902V188.023Z" fill="#006525"/>
<path d="M158.756 188.023H152.903V193.877H158.756V188.023Z" fill="#006525"/>
<path d="M164.61 188.023H158.756V193.877H164.61V188.023Z" fill="#006525"/>
<path d="M170.464 188.023H164.61V193.877H170.464V188.023Z" fill="#006525"/>
<path d="M176.317 188.023H170.463V193.877H176.317V188.023Z" fill="#006525"/>
<path d="M182.171 188.023H176.317V193.877H182.171V188.023Z" fill="#006525"/>
<path d="M188.025 188.023H182.171V193.877H188.025V188.023Z" fill="#006525"/>
<path d="M193.878 188.023H188.024V193.877H193.878V188.023Z" fill="#006525"/>
<path d="M205.586 188.023H199.732V193.877H205.586V188.023Z" fill="#006525"/>
<path d="M211.439 188.023H205.585V193.877H211.439V188.023Z" fill="#006525"/>
<path d="M217.293 188.023H211.439V193.877H217.293V188.023Z" fill="#006525"/>
<path d="M53.3903 193.877H47.5366V199.731H53.3903V193.877Z" fill="#006525"/>
<path d="M76.8053 193.877H70.9517V199.731H76.8053V193.877Z" fill="#006525"/>
<path d="M82.6588 193.877H76.8052V199.731H82.6588V193.877Z" fill="#006525"/>
<path d="M106.073 193.877H100.22V199.731H106.073V193.877Z" fill="#006525"/>
<path d="M123.634 193.877H117.781V199.731H123.634V193.877Z" fill="#006525"/>
<path d="M135.341 193.877H129.488V199.731H135.341V193.877Z" fill="#006525"/>
<path d="M147.049 193.877H141.195V199.731H147.049V193.877Z" fill="#006525"/>
<path d="M152.902 193.877H147.049V199.731H152.902V193.877Z" fill="#006525"/>
<path d="M158.756 193.877H152.903V199.731H158.756V193.877Z" fill="#006525"/>
<path d="M182.171 193.877H176.317V199.731H182.171V193.877Z" fill="#006525"/>
<path d="M193.878 193.877H188.024V199.731H193.878V193.877Z" fill="#006525"/>
<path d="M205.586 193.877H199.732V199.731H205.586V193.877Z" fill="#006525"/>
<path d="M211.439 193.877H205.585V199.731H211.439V193.877Z" fill="#006525"/>
<path d="M53.3903 199.73H47.5366V205.584H53.3903V199.73Z" fill="#006525"/>
<path d="M59.2443 199.73H53.3906V205.584H59.2443V199.73Z" fill="#006525"/>
<path d="M70.9513 199.73H65.0977V205.584H70.9513V199.73Z" fill="#006525"/>
<path d="M76.8053 199.73H70.9517V205.584H76.8053V199.73Z" fill="#006525"/>
<path d="M88.5123 199.73H82.6587V205.584H88.5123V199.73Z" fill="#006525"/>
<path d="M94.3659 199.73H88.5122V205.584H94.3659V199.73Z" fill="#006525"/>
<path d="M100.22 199.73H94.3662V205.584H100.22V199.73Z" fill="#006525"/>
<path d="M117.781 199.73H111.927V205.584H117.781V199.73Z" fill="#006525"/>
<path d="M135.341 199.73H129.488V205.584H135.341V199.73Z" fill="#006525"/>
<path d="M152.902 199.73H147.049V205.584H152.902V199.73Z" fill="#006525"/>
<path d="M158.756 199.73H152.903V205.584H158.756V199.73Z" fill="#006525"/>
<path d="M164.61 199.73H158.756V205.584H164.61V199.73Z" fill="#006525"/>
<path d="M170.464 199.73H164.61V205.584H170.464V199.73Z" fill="#006525"/>
<path d="M176.317 199.73H170.463V205.584H176.317V199.73Z" fill="#006525"/>
<path d="M188.025 199.73H182.171V205.584H188.025V199.73Z" fill="#006525"/>
<path d="M199.732 199.73H193.878V205.584H199.732V199.73Z" fill="#006525"/>
<path d="M205.586 199.73H199.732V205.584H205.586V199.73Z" fill="#006525"/>
<path d="M217.293 199.73H211.439V205.584H217.293V199.73Z" fill="#006525"/>
<path d="M53.3903 205.586H47.5366V211.44H53.3903V205.586Z" fill="#006525"/>
<path d="M59.2443 205.586H53.3906V211.44H59.2443V205.586Z" fill="#006525"/>
<path d="M65.0978 205.586H59.2441V211.44H65.0978V205.586Z" fill="#006525"/>
<path d="M70.9513 205.586H65.0977V211.44H70.9513V205.586Z" fill="#006525"/>
<path d="M82.6588 205.586H76.8052V211.44H82.6588V205.586Z" fill="#006525"/>
<path d="M94.3659 205.586H88.5122V211.44H94.3659V205.586Z" fill="#006525"/>
<path d="M100.22 205.586H94.3662V211.44H100.22V205.586Z" fill="#006525"/>
<path d="M106.073 205.586H100.22V211.44H106.073V205.586Z" fill="#006525"/>
<path d="M111.927 205.586H106.073V211.44H111.927V205.586Z" fill="#006525"/>
<path d="M117.781 205.586H111.927V211.44H117.781V205.586Z" fill="#006525"/>
<path d="M123.634 205.586H117.781V211.44H123.634V205.586Z" fill="#006525"/>
<path d="M129.488 205.586H123.634V211.44H129.488V205.586Z" fill="#006525"/>
<path d="M135.341 205.586H129.488V211.44H135.341V205.586Z" fill="#006525"/>
<path d="M147.049 205.586H141.195V211.44H147.049V205.586Z" fill="#006525"/>
<path d="M158.756 205.586H152.903V211.44H158.756V205.586Z" fill="#006525"/>
<path d="M164.61 205.586H158.756V211.44H164.61V205.586Z" fill="#006525"/>
<path d="M170.464 205.586H164.61V211.44H170.464V205.586Z" fill="#006525"/>
<path d="M176.317 205.586H170.463V211.44H176.317V205.586Z" fill="#006525"/>
<path d="M217.293 205.586H211.439V211.44H217.293V205.586Z" fill="#006525"/>
<path d="M65.0978 211.439H59.2441V217.293H65.0978V211.439Z" fill="#006525"/>
<path d="M76.8053 211.439H70.9517V217.293H76.8053V211.439Z" fill="#006525"/>
<path d="M82.6588 211.439H76.8052V217.293H82.6588V211.439Z" fill="#006525"/>
<path d="M88.5123 211.439H82.6587V217.293H88.5123V211.439Z" fill="#006525"/>
<path d="M106.073 211.439H100.22V217.293H106.073V211.439Z" fill="#006525"/>
<path d="M111.927 211.439H106.073V217.293H111.927V211.439Z" fill="#006525"/>
<path d="M117.781 211.439H111.927V217.293H117.781V211.439Z" fill="#006525"/>
<path d="M147.049 211.439H141.195V217.293H147.049V211.439Z" fill="#006525"/>
<path d="M152.902 211.439H147.049V217.293H152.902V211.439Z" fill="#006525"/>
<path d="M158.756 211.439H152.903V217.293H158.756V211.439Z" fill="#006525"/>
<path d="M164.61 211.439H158.756V217.293H164.61V211.439Z" fill="#006525"/>
<path d="M176.317 211.439H170.463V217.293H176.317V211.439Z" fill="#006525"/>
<path d="M182.171 211.439H176.317V217.293H182.171V211.439Z" fill="#006525"/>
<path d="M188.025 211.439H182.171V217.293H188.025V211.439Z" fill="#006525"/>
<path d="M193.878 211.439H188.024V217.293H193.878V211.439Z" fill="#006525"/>
<path d="M199.732 211.439H193.878V217.293H199.732V211.439Z" fill="#006525"/>
<path d="M205.586 211.439H199.732V217.293H205.586V211.439Z" fill="#006525"/>
<path d="M211.439 211.439H205.585V217.293H211.439V211.439Z" fill="#006525"/>
<path d="M217.293 211.439H211.439V217.293H217.293V211.439Z" fill="#006525"/>
</svg>
