<svg width="56" height="34" viewBox="0 0 56 34" fill="none" xmlns="http://www.w3.org/2000/svg">
<g clip-path="url(#clip0_6266_40159)">
<path d="M51.6661 2.5V9.141H4.30811V2.5" stroke="#67D672" stroke-width="5" stroke-linecap="round" stroke-linejoin="round"/>
<path d="M22.8867 18.6953C24.2674 18.6953 25.3867 17.576 25.3867 16.1953C25.3867 14.8146 24.2674 13.6953 22.8867 13.6953C21.506 13.6953 20.3867 14.8146 20.3867 16.1953C20.3867 17.576 21.506 18.6953 22.8867 18.6953Z" fill="#67D672"/>
<path d="M32.9434 18.6953C34.3241 18.6953 35.4434 17.576 35.4434 16.1953C35.4434 14.8146 34.3241 13.6953 32.9434 13.6953C31.5626 13.6953 30.4434 14.8146 30.4434 16.1953C30.4434 17.576 31.5626 18.6953 32.9434 18.6953Z" fill="#67D672"/>
<path d="M9.93238 30.7085C14.0372 30.7085 17.3648 27.3809 17.3648 23.2761C17.3648 19.1713 14.0372 15.8438 9.93238 15.8438C5.82759 15.8438 2.5 19.1713 2.5 23.2761C2.5 27.3809 5.82759 30.7085 9.93238 30.7085Z" stroke="#67D672" stroke-width="5" stroke-linecap="round" stroke-linejoin="round"/>
<path d="M45.8977 30.7085C50.0025 30.7085 53.3301 27.3809 53.3301 23.2761C53.3301 19.1713 50.0025 15.8438 45.8977 15.8438C41.7929 15.8438 38.4653 19.1713 38.4653 23.2761C38.4653 27.3809 41.7929 30.7085 45.8977 30.7085Z" stroke="#67D672" stroke-width="5" stroke-linecap="round" stroke-linejoin="round"/>
<path d="M17.3647 23.2734H38.5454" stroke="#67D672" stroke-width="5" stroke-linecap="round" stroke-linejoin="round"/>
</g>
<defs>
<clipPath id="clip0_6266_40159">
<rect width="55.8299" height="33.207" fill="white"/>
</clipPath>
</defs>
</svg>
