<svg width="284" height="306" viewBox="0 0 284 306" fill="none" xmlns="http://www.w3.org/2000/svg">
<path d="M199.614 111.703C202.461 105.949 202.518 97.2818 199.618 91.6218L176.092 91.6174C171.151 91.6612 166.272 92.7315 161.765 94.7604L161.763 108.55C161.763 108.55 168.429 111.697 175.46 111.698L199.614 111.703Z" fill="#BEEDE5"/>
<path d="M194.584 91.6208C197.485 97.2809 197.428 105.948 194.581 111.702L199.614 111.703C202.461 105.949 202.518 97.2818 199.617 91.6218L194.584 91.6208Z" fill="#8CD3D1"/>
<path d="M188.604 101.66C188.604 102.208 188.386 102.734 187.998 103.121C187.611 103.508 187.085 103.726 186.538 103.726L166.007 103.722L166.008 99.5905L186.538 99.5943C187.086 99.5944 187.612 99.8122 187.999 100.2C188.386 100.587 188.604 101.113 188.604 101.66Z" fill="#4F9AAF"/>
<path d="M180.692 91.6183L176.092 91.6174C171.151 91.6612 166.272 92.7315 161.765 94.7604L161.763 108.55C161.763 108.55 168.429 111.697 175.46 111.698L180.688 111.699L180.692 91.6183Z" fill="#8CD3D1"/>
<g style="mix-blend-mode:multiply" opacity="0.59">
<path d="M161.764 101.662L161.763 108.55C161.763 108.55 168.429 111.697 175.46 111.698C182.49 111.7 199.614 111.703 199.614 111.703C201.07 108.558 201.807 105.128 201.77 101.662L161.764 101.662Z" fill="#4F9AAF"/>
</g>
<path d="M177.453 70.5852C180.3 64.8315 180.357 56.1641 177.457 50.5041L153.931 50.4998C148.99 50.5435 144.111 51.6138 139.604 53.6427L139.602 67.4326C139.602 67.4326 146.268 70.5794 153.299 70.5807L177.453 70.5852Z" fill="#BEEDE5"/>
<path d="M172.423 50.5032C175.324 56.1632 175.267 64.8305 172.42 70.5842L177.453 70.5852C180.3 64.8315 180.357 56.1641 177.456 50.5041L172.423 50.5032Z" fill="#8CD3D1"/>
<path d="M166.443 60.5425C166.443 60.8138 166.389 61.0824 166.285 61.333C166.181 61.5836 166.029 61.8113 165.837 62.003C165.646 62.1948 165.418 62.3469 165.167 62.4507C164.916 62.5545 164.648 62.6078 164.377 62.6078L143.846 62.604L143.847 58.4726L164.377 58.4764C164.925 58.4765 165.451 58.6943 165.838 59.0817C166.225 59.4692 166.443 59.9946 166.443 60.5425Z" fill="#4F9AAF"/>
<path d="M158.531 50.5006L153.931 50.4998C148.99 50.5435 144.111 51.6138 139.604 53.6427L139.602 67.4326C139.602 67.4326 146.268 70.5794 153.299 70.5807L158.527 70.5817L158.531 50.5006Z" fill="#8CD3D1"/>
<g style="mix-blend-mode:multiply" opacity="0.59">
<path d="M139.603 60.5442L139.602 67.4326C139.602 67.4326 146.268 70.5794 153.299 70.5807C160.329 70.582 177.453 70.5852 177.453 70.5852C178.909 67.4401 179.646 64.0099 179.609 60.5442L139.603 60.5442Z" fill="#4F9AAF"/>
</g>
<path d="M39.5953 162.67L11.7844 205.044C11.3809 205.659 10.8309 206.163 10.1838 206.513C9.53664 206.862 8.81281 207.045 8.07747 207.045L1.49091 207.043C1.26475 207.043 1.04157 206.992 0.838256 206.893C0.634942 206.794 0.456822 206.65 0.31738 206.472C0.177937 206.294 0.0808268 206.086 0.0333988 205.865C-0.0140291 205.644 -0.0105315 205.415 0.0436268 205.195L11.8937 157.152L39.5953 162.67Z" fill="#4F9AAF"/>
<path d="M39.5994 142.558L11.8042 100.174C11.4009 99.559 10.8511 99.0541 10.2041 98.7046C9.55709 98.3551 8.83333 98.172 8.09798 98.1719L1.51141 98.1707C1.28526 98.1706 1.06206 98.222 0.858711 98.321C0.65536 98.42 0.477187 98.5639 0.337679 98.7419C0.198171 98.9199 0.100984 99.1273 0.0534738 99.3484C0.00596372 99.5695 0.0093759 99.7985 0.0634521 100.018L11.8957 148.066L39.5994 142.558Z" fill="#4F9AAF"/>
<path d="M188.432 134.206L120.396 3.21719C119.892 2.24844 119.133 1.4364 118.2 0.869577C117.267 0.302754 116.197 0.00289935 115.105 0.00269533L100.646 2.01841e-08C100.491 -2.85748e-05 100.339 0.0303262 100.196 0.0893314C100.054 0.148336 99.9241 0.234836 99.815 0.343892C99.7059 0.452948 99.6193 0.582424 99.5603 0.724928C99.5012 0.867431 99.4708 1.02017 99.4708 1.17443C99.4707 1.32869 99.5011 1.48144 99.5601 1.62396C99.6191 1.76649 99.7056 1.896 99.8147 2.00509C99.9237 2.11419 100.053 2.20074 100.196 2.2598C100.338 2.31885 100.491 2.34926 100.645 2.34929L103.208 2.35052L136.634 134.198L188.432 134.206Z" fill="#8CD3D1"/>
<path d="M114.536 4.86744L164.098 134.201L188.432 134.206L120.396 3.21721C119.893 2.24846 119.133 1.43642 118.2 0.869591C117.267 0.302767 116.197 0.00291008 115.105 0.00270284L100.646 2.01804e-08C100.491 -2.85722e-05 100.339 0.0303262 100.196 0.0893313C100.054 0.148336 99.9241 0.234836 99.815 0.343892C99.7059 0.452948 99.6193 0.582424 99.5603 0.724928C99.5012 0.867431 99.4708 1.02017 99.4708 1.17443C99.4707 1.32869 99.5011 1.48144 99.5601 1.62396C99.6191 1.76649 99.7056 1.896 99.8147 2.00509C99.9237 2.11419 100.053 2.20074 100.196 2.2598C100.338 2.31885 100.491 2.34926 100.645 2.34929L107.226 2.3505L110.877 2.35125C111.67 2.3514 112.444 2.59198 113.097 3.04121C113.75 3.49045 114.252 4.12722 114.536 4.86744Z" fill="#4F9AAF"/>
<path d="M111.158 33.7114L125.59 33.7131" stroke="#8CD3D1" stroke-width="2" stroke-miterlimit="10"/>
<path d="M147.468 90.8047L125.59 90.8022" stroke="#8CD3D1" stroke-width="2" stroke-miterlimit="10"/>
<path d="M136.633 62.5319L118.464 62.5298" stroke="#8CD3D1" stroke-width="2" stroke-miterlimit="10"/>
<path d="M199.614 213.691C202.461 207.937 202.518 199.27 199.618 193.61L176.092 193.606C171.151 193.649 166.272 194.72 161.765 196.749L161.763 210.539C161.763 210.539 168.429 213.685 175.46 213.687L199.614 213.691Z" fill="#BEEDE5"/>
<path d="M194.584 193.609C197.485 199.269 197.428 207.937 194.581 213.69L199.614 213.691C202.461 207.937 202.518 199.27 199.617 193.61L194.584 193.609Z" fill="#8CD3D1"/>
<path d="M188.604 203.649C188.604 204.197 188.386 204.722 187.998 205.109C187.611 205.497 187.085 205.714 186.538 205.714L166.007 205.71L166.008 201.579L186.538 201.583C186.81 201.583 187.078 201.636 187.329 201.74C187.579 201.844 187.807 201.996 187.999 202.188C188.191 202.38 188.343 202.608 188.447 202.858C188.55 203.109 188.604 203.377 188.604 203.649Z" fill="#4F9AAF"/>
<path d="M180.692 193.607L176.092 193.606C171.151 193.649 166.272 194.72 161.765 196.749L161.763 210.539C161.763 210.539 168.429 213.685 175.46 213.687L180.688 213.688L180.692 193.607Z" fill="#8CD3D1"/>
<g style="mix-blend-mode:multiply" opacity="0.59">
<path d="M161.764 203.65L161.763 210.539C161.763 210.539 168.429 213.685 175.46 213.687C182.49 213.688 199.614 213.691 199.614 213.691C201.07 210.546 201.807 207.116 201.77 203.65L161.764 203.65Z" fill="#4F9AAF"/>
</g>
<path d="M177.453 254.809C180.3 249.055 180.357 240.388 177.457 234.728L153.931 234.723C148.99 234.767 144.111 235.837 139.604 237.866L139.602 251.656C139.602 251.656 146.268 254.803 153.299 254.804L177.453 254.809Z" fill="#BEEDE5"/>
<path d="M172.423 234.727C175.324 240.387 175.267 249.054 172.42 254.808L177.453 254.809C180.3 249.055 180.357 240.388 177.456 234.728L172.423 234.727Z" fill="#8CD3D1"/>
<path d="M166.443 244.766C166.443 245.038 166.389 245.306 166.285 245.557C166.181 245.807 166.029 246.035 165.837 246.227C165.646 246.419 165.418 246.571 165.167 246.675C164.916 246.778 164.648 246.832 164.377 246.832L143.846 246.828L143.847 242.696L164.377 242.7C164.649 242.7 164.917 242.754 165.168 242.858C165.418 242.962 165.646 243.114 165.838 243.306C166.03 243.497 166.182 243.725 166.286 243.976C166.389 244.226 166.443 244.495 166.443 244.766Z" fill="#4F9AAF"/>
<path d="M158.531 234.724L153.931 234.724C148.99 234.767 144.111 235.838 139.604 237.867L139.602 251.656C139.602 251.656 146.268 254.803 153.299 254.805L158.527 254.806L158.531 234.724Z" fill="#8CD3D1"/>
<g style="mix-blend-mode:multiply" opacity="0.59">
<path d="M139.603 244.768L139.602 251.656C139.602 251.656 146.268 254.803 153.299 254.804C160.329 254.806 177.453 254.809 177.453 254.809C178.909 251.664 179.646 248.234 179.609 244.768L139.603 244.768Z" fill="#4F9AAF"/>
</g>
<path d="M188.432 171.103L120.396 302.091C119.892 303.06 119.133 303.872 118.2 304.439C117.267 305.006 116.197 305.306 115.105 305.306L100.646 305.309C100.491 305.309 100.339 305.278 100.196 305.219C100.054 305.16 99.9241 305.074 99.815 304.965C99.7059 304.856 99.6193 304.726 99.5603 304.584C99.5012 304.441 99.4708 304.288 99.4708 304.134C99.4707 303.823 99.5944 303.524 99.8147 303.304C100.035 303.083 100.334 302.959 100.645 302.959L103.208 302.958L136.634 171.111L188.432 171.103Z" fill="#8CD3D1"/>
<path d="M114.536 300.441L164.098 171.108L188.432 171.103L120.396 302.091C119.893 303.06 119.133 303.872 118.2 304.439C117.267 305.006 116.197 305.306 115.105 305.306L100.646 305.309C100.491 305.309 100.339 305.278 100.196 305.219C100.054 305.16 99.9241 305.074 99.815 304.965C99.7059 304.856 99.6193 304.726 99.5603 304.584C99.5012 304.441 99.4708 304.288 99.4708 304.134C99.4707 303.98 99.5011 303.827 99.5601 303.685C99.6191 303.542 99.7056 303.413 99.8147 303.304C99.9237 303.194 100.053 303.108 100.196 303.049C100.338 302.99 100.491 302.959 100.645 302.959L107.226 302.958L110.877 302.957C111.67 302.957 112.444 302.717 113.097 302.267C113.75 301.818 114.252 301.181 114.536 300.441Z" fill="#4F9AAF"/>
<path d="M111.158 271.597L125.59 271.595" stroke="#8CD3D1" stroke-width="2" stroke-miterlimit="10"/>
<path d="M147.468 214.504L125.59 214.506" stroke="#8CD3D1" stroke-width="2" stroke-miterlimit="10"/>
<path d="M136.633 242.777L118.464 242.779" stroke="#8CD3D1" stroke-width="2" stroke-miterlimit="10"/>
<path d="M14.5818 157.688L2.408 207.044L1.49088 207.043C1.26473 207.043 1.04156 206.992 0.838245 206.893C0.634933 206.794 0.456815 206.65 0.317374 206.472C0.177933 206.294 0.0808241 206.086 0.0333973 205.865C-0.0140295 205.644 -0.0105308 205.415 0.0436284 205.195L11.8937 157.152L14.5818 157.688Z" fill="white"/>
<path d="M14.5818 157.688L2.408 207.044L1.49088 207.043C1.26473 207.043 1.04156 206.992 0.838245 206.893C0.634933 206.794 0.456815 206.65 0.317374 206.472C0.177933 206.294 0.0808241 206.086 0.0333973 205.865C-0.0140295 205.644 -0.0105308 205.415 0.0436284 205.195L11.8937 157.152L14.5818 157.688Z" fill="#8CD3D1"/>
<path d="M14.5841 147.531L2.42851 98.1711L1.5114 98.1709C1.28525 98.1708 1.06205 98.2222 0.8587 98.3212C0.65535 98.4202 0.477178 98.5641 0.337671 98.7421C0.198164 98.9201 0.100978 99.1275 0.0534699 99.3486C0.00596219 99.5697 0.00937767 99.7987 0.0634578 100.018L11.8957 148.066L14.5841 147.531Z" fill="white"/>
<path d="M14.5841 147.531L2.42851 98.1711L1.5114 98.1709C1.28525 98.1708 1.06205 98.2222 0.8587 98.3212C0.65535 98.4202 0.477178 98.5641 0.337671 98.7421C0.198164 98.9201 0.100978 99.1275 0.0534699 99.3486C0.00596219 99.5697 0.00937767 99.7987 0.0634578 100.018L11.8957 148.066L14.5841 147.531Z" fill="#8CD3D1"/>
<path d="M1.06936 150.129L1.06839 155.363C1.05825 155.792 1.18099 156.214 1.41982 156.571C1.65866 156.928 2.00192 157.203 2.40266 157.357C9.47713 159.835 43.855 171.066 85.7679 171.074L244.296 171.103C267.202 171.107 283.055 161.938 283.055 152.677C283.055 143.416 267.403 134.239 244.303 134.235L85.7942 134.206C44.4009 134.198 9.53218 145.635 2.4022 148.136C2.00184 148.29 1.65893 148.565 1.42036 148.921C1.18179 149.278 1.05921 149.7 1.06936 150.129Z" fill="#8CD3D1"/>
<g style="mix-blend-mode:multiply" opacity="0.42">
<path d="M1.06845 152.804L1.06796 155.363C1.05783 155.792 1.18058 156.214 1.41943 156.571C1.65827 156.928 2.00154 157.203 2.40229 157.357C9.4767 159.835 43.8547 171.066 85.7676 171.074C152.844 171.086 221.39 171.099 244.296 171.103C267.097 171.107 282.903 162.022 283.048 152.804H1.06845Z" fill="#4F9AAF"/>
</g>
<g style="mix-blend-mode:multiply" opacity="0.42">
<path d="M134.059 181.268C151.571 181.271 168.248 181.275 183.148 181.277L188.432 171.103L136.634 171.111L134.059 181.268Z" fill="#4F9AAF"/>
</g>
<path d="M1.0683 155.363C26.2998 161.338 52.1459 164.328 78.0751 164.272C143.279 164.284 213.79 164.297 236.057 164.301C258.323 164.306 267.732 158.525 267.732 152.684C267.731 146.844 258.517 141.056 236.061 141.052C213.605 141.047 144.042 141.035 78.0982 141.022C52.1532 141.019 26.2983 144.075 1.06927 150.128L1.0683 155.363Z" fill="#BEEDE5"/>
<path d="M261.845 157.169L260.413 155.661C259.85 156.232 259.237 156.752 258.58 157.213L258.579 159.242C259.735 158.662 260.829 157.968 261.845 157.169Z" fill="#4F9AAF"/>
<path d="M262.014 153.108C261.82 153.815 261.468 154.468 260.984 155.019L262.504 156.62C263.663 155.726 264.523 154.502 264.972 153.109L262.014 153.108Z" fill="#4F9AAF"/>
<path d="M261.856 148.159C260.838 147.357 259.741 146.661 258.582 146.081L258.582 148.11C259.241 148.573 259.857 149.095 260.421 149.67L261.856 148.159Z" fill="#4F9AAF"/>
<path d="M260.99 150.314C261.472 150.867 261.822 151.522 262.015 152.229L264.972 152.23C264.528 150.835 263.67 149.607 262.513 148.71L260.99 150.314Z" fill="#4F9AAF"/>
<path d="M65.7451 152.811C65.7451 152.987 65.7103 153.161 65.6428 153.324C65.5753 153.487 65.4764 153.635 65.3517 153.76C65.227 153.885 65.0789 153.983 64.916 154.051C64.7531 154.118 64.5785 154.153 64.4021 154.153L1.06856 154.141L1.06905 151.456L64.4026 151.468C64.579 151.468 64.7536 151.502 64.9165 151.57C65.0793 151.637 65.2274 151.736 65.352 151.861C65.4767 151.986 65.5755 152.134 65.643 152.297C65.7104 152.46 65.7451 152.634 65.7451 152.811Z" fill="#4F9AAF"/>
<g style="mix-blend-mode:multiply" opacity="0.42">
<path d="M1.0683 155.363C18.6862 159.555 36.6239 162.265 54.6938 163.466L65.2424 153.85L1.06876 152.872L1.0683 155.363Z" fill="#4F9AAF"/>
</g>
</svg>
