<svg width="203" height="82" viewBox="0 0 203 82" fill="none" xmlns="http://www.w3.org/2000/svg">
<path d="M43.6133 82C43.8072 78.4629 44.3937 74.9977 45.577 71.6499C48.648 62.9608 53.8209 55.9643 62.0327 51.4537C65.6991 49.4398 69.6463 48.2846 73.7843 47.6837C77.1055 47.2014 80.4263 47.4879 83.7476 47.4915C96.6453 47.5055 109.543 47.5291 122.441 47.5622C124.47 47.5669 124.11 47.3808 124.117 49.2392C124.135 53.8819 124.11 58.5249 124.138 63.1676C124.142 63.8546 123.962 64.0714 123.252 64.0656C113.58 63.9858 103.908 63.9404 94.2356 63.8743C89.1093 63.8393 83.98 63.6458 78.8577 63.765C71.3644 63.9393 63.5599 68.4012 61.0352 76.9728C60.5562 78.5988 60.4079 80.3218 60.107 82H43.6133Z" fill="white"/>
<path d="M203 63.9512C196.791 63.9426 190.582 63.9338 184.374 63.925C184.111 63.9498 183.846 63.9432 183.585 63.9052C183.399 63.8585 183.249 63.6732 183.083 63.5497C183.247 63.3909 183.394 63.1219 183.578 63.0933C184.226 62.9923 184.893 63.0178 185.541 62.9159C187.501 62.6077 188.407 61.7043 188.438 59.7064C188.506 55.33 188.461 50.9517 188.459 46.5742C188.437 46.4687 188.402 46.3663 188.355 46.2694C188.059 46.3921 187.77 46.4944 187.497 46.6278C184.495 48.0938 181.383 49.2489 178.041 49.5877C175.913 49.8036 173.775 49.7484 171.71 49.0015C169.11 48.0604 167.581 46.2164 167.408 43.4937C167.214 40.4214 167.271 37.3335 167.206 34.2526C167.177 32.8581 167.176 31.4593 167.058 30.0712C166.84 27.4924 165.832 26.8468 163.262 26.5418C162.949 26.5047 162.619 26.5689 162.316 26.5019C162.228 26.4707 162.15 26.4179 162.088 26.3485C162.027 26.2791 161.984 26.1952 161.963 26.1048C161.965 25.9646 162.164 25.766 162.32 25.7037C162.505 25.6305 162.736 25.6714 162.948 25.6714C168.39 25.6705 173.833 25.6703 179.276 25.6709C179.435 25.6709 179.623 25.6208 179.745 25.6879C179.93 25.815 180.099 25.963 180.249 26.1289C180.092 26.2616 179.955 26.4611 179.774 26.5128C179.425 26.6132 179.044 26.5999 178.689 26.6876C177.144 27.0694 176.322 28.0071 176.309 29.6132C176.274 33.885 176.262 38.1577 176.316 42.4292C176.341 44.4084 177.951 45.8114 180.27 45.9421C183.025 46.0973 185.596 45.3542 188.031 44.1214C188.152 44.0375 188.252 43.9276 188.325 43.7998C188.397 43.672 188.44 43.5296 188.45 43.3831C188.47 38.9792 188.467 34.5752 188.442 30.1712C188.436 29.6443 188.367 29.12 188.239 28.609C187.93 27.3477 186.823 26.6219 185.223 26.5145C184.979 26.4981 184.577 26.2963 184.546 26.127C184.45 25.5894 184.922 25.6751 185.245 25.6748C190.768 25.6696 196.29 25.6678 201.812 25.6694C202.208 25.6693 202.604 25.6532 203 25.6445V26.5943C201.799 26.6621 200.593 26.6834 199.4 26.8137C198.555 26.9057 198.024 27.4801 197.861 28.3036C197.686 29.07 197.585 29.8514 197.559 30.637C197.539 40.0134 197.535 49.3898 197.548 58.7662C197.548 59.0822 197.544 59.3992 197.566 59.714C197.727 61.9697 198.84 63.0157 201.106 63.0663C201.738 63.0803 202.369 63.1277 203 63.1598V63.9512Z" fill="white"/>
<path d="M0 47.3341C0.367836 47.354 0.735646 47.3909 1.10351 47.3914C7.89129 47.4007 14.6791 47.4074 21.4669 47.4114C23.5226 47.413 25.5783 47.4116 27.8519 47.4116C27.2278 48.3804 26.7436 49.1451 26.2465 49.9013C23.6409 53.8651 21.666 58.1332 20.0901 62.5943C19.6705 63.7821 19.6706 63.7771 18.4491 63.7839C12.5076 63.817 6.56617 63.8526 0.624751 63.8907C0.41637 63.892 0.208245 63.9325 0 63.9548V47.3341Z" fill="white"/>
<path d="M11.8945 0.00245779C12.2247 0.0733311 12.5591 0.122265 12.8958 0.148937C14.3484 0.175035 15.8014 0.182326 17.2543 0.183967C17.6748 0.184442 17.9406 0.289183 18.0233 0.76988C19.2705 8.02164 22.3859 14.4146 26.9841 20.1227C27.0911 20.2554 27.1727 20.4085 27.3175 20.6312C26.9923 20.6485 26.7642 20.6711 26.5361 20.6711C21.1468 20.6731 15.7575 20.6669 10.3681 20.6819C10.1365 20.6993 9.90417 20.657 9.69356 20.5591C9.48295 20.4612 9.30108 20.3108 9.1654 20.1226C4.58564 14.3872 1.69957 7.8806 0.221927 0.723065C0.164629 0.529489 0.0903667 0.341325 0 0.160751C0.204811 0.0856892 0.417726 0.0348325 0.634392 0.00922006C4.38775 -0.000100218 8.14113 -0.00235431 11.8945 0.00245779Z" fill="white"/>
<path d="M99.6624 25.4983C107.538 25.4983 115.413 25.4984 123.288 25.4985C124.436 25.4986 124.436 25.5002 124.436 26.6748C124.437 31.4225 124.421 36.1702 124.453 40.9177C124.458 41.6701 124.262 41.8978 123.486 41.8976C114.026 41.8951 104.565 41.914 95.1045 41.9543C89.2125 41.9742 83.3176 41.9122 77.4293 42.0754C71.8485 42.2301 66.5507 43.732 61.5518 46.1862C54.2461 49.7729 48.3094 54.9034 44.1413 61.9539C41.6886 66.1027 40.1406 70.5913 39.2857 75.3156C38.9352 77.2525 38.7169 79.2145 38.4804 81.1702C38.3964 81.8648 37.9537 81.8446 37.4599 81.8424C34.236 81.8278 31.0121 81.8153 27.7881 81.8049C26.1761 81.7993 24.5641 81.7907 22.9521 81.7972C22.5276 81.799 22.2323 81.7411 22.2674 81.2014C22.5835 76.341 23.0783 71.5147 24.4009 66.7958C26.9596 57.6662 31.8248 49.91 38.4005 43.1673C47.0387 34.3098 57.505 28.7988 69.6153 26.3751C72.6952 25.7612 75.8298 25.4631 78.9704 25.4856C85.8675 25.5266 92.7651 25.4983 99.6624 25.4983Z" fill="white"/>
<path d="M54.3097 25.5542C51.42 27.113 48.3418 28.6256 45.4136 30.3866C40.6501 33.2512 36.627 37.0345 32.8318 41.0567C32.2441 41.6795 31.6597 41.9615 30.7842 41.9588C20.9569 41.9284 11.1294 41.9398 1.30193 41.9391C0.153251 41.939 0.14993 41.9365 0.149641 40.8175C0.148403 36.0186 0.156582 31.2196 0.140443 26.4208C0.138359 25.801 0.286779 25.5394 0.982684 25.5401C18.8145 25.558 36.6464 25.5542 54.3097 25.5542Z" fill="white"/>
<path d="M143.426 25.6748C148.606 25.6748 153.786 25.6915 158.965 25.6573C159.767 25.652 160.001 25.8713 159.986 26.6777C159.937 29.4729 159.978 32.2695 159.951 35.0652C159.948 35.3344 159.766 35.7817 159.579 35.8345C159.072 35.9778 159.065 35.4991 158.948 35.1481C158.625 34.1765 158.336 33.1833 157.901 32.2606C156.512 29.3113 154.012 28.0633 150.879 27.9852C148 27.9134 145.118 27.9716 142.238 27.9478C141.707 27.9434 141.561 28.1491 141.562 28.6456C141.574 33.2352 141.573 37.8249 141.56 42.4145C141.558 42.9764 141.773 43.1384 142.309 43.1325C144.238 43.1112 146.17 43.0631 148.096 43.1422C150.946 43.2591 153.789 43.525 156.441 44.6994C159.532 46.0684 161.597 48.3064 162.205 51.7187C162.955 55.9342 161.307 59.5645 157.635 61.8446C155.797 63.0147 153.674 63.66 151.495 63.7105C143.545 63.8389 135.594 63.8571 127.643 63.894C127.409 63.8951 126.997 63.6692 126.972 63.5032C126.888 62.9526 127.37 63.1019 127.685 63.0704C128.182 63.0205 128.684 62.9983 129.178 62.922C131.581 62.5506 132.348 61.6999 132.477 59.2832C132.491 59.02 132.489 58.7558 132.489 58.492C132.489 49.4446 132.484 40.3972 132.474 31.3498C132.452 30.4571 132.337 29.5692 132.129 28.7007C132.043 28.2549 131.826 27.8448 131.505 27.5227C131.185 27.2007 130.775 26.9814 130.329 26.8927C129.565 26.7138 128.77 26.668 127.995 26.5264C127.619 26.4577 126.948 26.8344 126.964 26.0802C126.978 25.4075 127.611 25.6894 127.966 25.6881C133.119 25.6687 138.272 25.6748 143.426 25.6748ZM141.57 52.0866C141.57 53.9054 141.536 55.7251 141.585 57.5426C141.613 58.3821 141.724 59.2169 141.916 60.0348C142.01 60.504 142.231 60.9385 142.554 61.2913C142.878 61.644 143.293 61.9015 143.753 62.0357C145.878 62.7314 148.815 61.8965 150.245 60.1824C152.654 57.2939 152.815 52.0945 150.609 48.836C149.514 47.2195 148.113 46.0345 146.124 45.7475C144.901 45.571 143.661 45.5167 142.43 45.3912C141.783 45.3253 141.544 45.5704 141.556 46.235C141.59 48.185 141.568 50.136 141.57 52.0866Z" fill="white"/>
<path d="M50.7194 20.6688C50.0348 20.6688 49.4558 20.6687 48.8768 20.6689C43.752 20.6705 38.6272 20.6643 33.5025 20.6845C32.9022 20.6869 32.4942 20.536 32.0923 20.0471C27.4361 14.443 24.333 7.71862 23.0924 0.544349C23.0981 0.454494 23.114 0.365567 23.1396 0.279247C23.3808 0.259528 23.6523 0.218904 23.9239 0.217844C29.4448 0.196278 34.9658 0.184172 40.4866 0.153241C41.0059 0.150332 41.29 0.258525 41.4257 0.831937C43.116 7.97069 46.0447 14.5345 50.5954 20.3365C50.6484 20.4425 50.69 20.554 50.7194 20.6688Z" fill="white"/>
</svg>
