<svg width="65" height="79" viewBox="0 0 65 79" fill="none" xmlns="http://www.w3.org/2000/svg">
<path d="M20.6816 47.5547V8.15734C20.6816 6.78953 21.225 5.47774 22.1922 4.51055C23.1594 3.54336 24.4712 3 25.839 3C27.2068 3 28.5186 3.54336 29.4858 4.51055C30.453 5.47774 30.9963 6.78953 30.9963 8.15734V32.7063" stroke="white" stroke-width="6" stroke-linecap="round" stroke-linejoin="round"/>
<path d="M30.9966 32.7099V28.2745C30.9966 27.5973 31.13 26.9266 31.3892 26.3009C31.6483 25.6752 32.0282 25.1066 32.5071 24.6277C32.986 24.1488 33.5546 23.7689 34.1803 23.5098C34.806 23.2506 35.4766 23.1172 36.1539 23.1172C36.8312 23.1172 37.5018 23.2506 38.1276 23.5098C38.7533 23.7689 39.3218 24.1488 39.8007 24.6277C40.2796 25.1066 40.6595 25.6752 40.9187 26.3009C41.1779 26.9266 41.3113 27.5973 41.3113 28.2745V34.7922" stroke="white" stroke-width="6" stroke-linecap="round" stroke-linejoin="round"/>
<path d="M41.311 34.79V32.0949C41.311 30.727 41.8544 29.4152 42.8216 28.4481C43.7888 27.4809 45.1006 26.9375 46.4684 26.9375C47.1457 26.9375 47.8163 27.0709 48.442 27.3301C49.0678 27.5892 49.6363 27.9691 50.1152 28.448C50.5941 28.9269 50.974 29.4955 51.2332 30.1212C51.4924 30.7469 51.6258 31.4176 51.6258 32.0949V38.6125" stroke="white" stroke-width="6" stroke-linecap="round" stroke-linejoin="round"/>
<path d="M28.9265 71.4667L4.87915 50.8353C3.67595 49.6321 3 48.0002 3 46.2986C3 44.5971 3.67595 42.9652 4.87915 41.762C5.47491 41.1662 6.18219 40.6936 6.96059 40.3712C7.739 40.0488 8.57329 39.8828 9.41583 39.8828C10.2584 39.8828 11.0927 40.0488 11.8711 40.3712C12.6495 40.6936 13.3567 41.1662 13.9525 41.762L20.6819 47.558" stroke="white" stroke-width="6" stroke-linecap="round" stroke-linejoin="round"/>
<path d="M29.6602 71.998C32.7621 74.1146 36.3826 75.3451 40.132 75.557C43.8813 75.7688 47.6174 74.9539 50.938 73.2C54.2586 71.4462 57.0379 68.8198 58.9766 65.6036C60.9154 62.3875 61.9402 58.7035 61.9407 54.9482V36.4219" stroke="white" stroke-width="6" stroke-linecap="round" stroke-linejoin="round"/>
<path d="M51.626 39.5478V36.8527C51.626 35.4848 52.1693 34.1731 53.1365 33.2059C54.1037 32.2387 55.4155 31.6953 56.7833 31.6953C58.1511 31.6953 59.4629 32.2387 60.4301 33.2059C61.3973 34.1731 61.9407 35.4848 61.9407 36.8527V43.3703" stroke="white" stroke-width="6" stroke-linecap="round" stroke-linejoin="round"/>
</svg>
