<svg width="55" height="56" viewBox="0 0 55 56" fill="none" xmlns="http://www.w3.org/2000/svg">
<g clip-path="url(#clip0_6266_40044)">
<path d="M14.4497 26.303H12.0421C10.4626 26.3029 8.92967 25.7679 7.69321 24.7851C6.45676 23.8022 5.58968 22.4295 5.23332 20.8908L2.63477 9.66973C2.4605 8.91716 2.45833 8.13497 2.62843 7.38145C2.79854 6.62794 3.13652 5.92253 3.6172 5.31782C4.09788 4.71311 4.70884 4.2247 5.40456 3.88898C6.10027 3.55326 6.86279 3.37891 7.63526 3.37891H7.81384" stroke="#67D672" stroke-width="5" stroke-linecap="round" stroke-linejoin="round"/>
<path d="M21.0856 3.37891H21.2642C22.0367 3.37891 22.7992 3.55326 23.4949 3.88898C24.1906 4.22469 24.8016 4.71311 25.2823 5.31782C25.7629 5.92253 26.1009 6.62794 26.271 7.38145C26.4411 8.13497 26.439 8.91716 26.2647 9.66973L23.6661 20.8907C23.3098 22.4295 22.4427 23.8022 21.2062 24.785C19.9698 25.7679 18.4369 26.3029 16.8574 26.3029H14.4497" stroke="#67D672" stroke-width="5" stroke-linecap="round" stroke-linejoin="round"/>
<path d="M14.4497 26.3047V45.2579C14.4497 47.1852 15.2153 49.0336 16.5781 50.3964C17.9409 51.7592 19.7892 52.5248 21.7165 52.5248C23.6438 52.5248 25.4921 51.7592 26.8549 50.3964C28.2177 49.0336 28.9833 47.1852 28.9833 45.2579V36.6974C28.9833 36.0376 29.1133 35.3843 29.3658 34.7748C29.6183 34.1652 29.9883 33.6113 30.4549 33.1448C30.9214 32.6783 31.4753 32.3082 32.0848 32.0557C32.6944 31.8032 33.3477 31.6733 34.0075 31.6733H40.5846" stroke="#67D672" stroke-width="5" stroke-linecap="round" stroke-linejoin="round"/>
<path d="M46.0949 37.224C49.1383 37.224 51.6054 34.7569 51.6054 31.7136C51.6054 28.6702 49.1383 26.2031 46.0949 26.2031C43.0516 26.2031 40.5845 28.6702 40.5845 31.7136C40.5845 34.7569 43.0516 37.224 46.0949 37.224Z" stroke="#67D672" stroke-width="5" stroke-linecap="round" stroke-linejoin="round"/>
</g>
<defs>
<clipPath id="clip0_6266_40044">
<rect width="54.1054" height="54.1441" fill="white" transform="translate(0 0.878906)"/>
</clipPath>
</defs>
</svg>
