<svg width="56" height="56" viewBox="0 0 56 56" fill="none" xmlns="http://www.w3.org/2000/svg">
<g clip-path="url(#clip0_6266_40128)">
<path d="M6.17495 40.9381C9.43002 46.2927 14.5573 50.2479 20.5628 52.0371C26.5683 53.8262 33.0242 53.3218 38.6789 50.6216C44.3337 47.9214 48.7844 43.2178 51.1683 37.4226C53.5522 31.6274 53.6995 25.1535 51.5815 19.256C49.4636 13.3584 45.2313 8.45728 39.7052 5.50277C34.1791 2.54826 27.7528 1.75082 21.6722 3.26507C15.5915 4.77931 10.2897 8.49735 6.79454 13.6984C3.29938 18.8994 1.85985 25.213 2.75503 31.4151" stroke="#67D672" stroke-width="5" stroke-linecap="round" stroke-linejoin="round"/>
<path d="M23.7446 40.9425V15.6953H33.8841C35.4905 15.6953 37.0311 16.3335 38.1669 17.4693C39.3028 18.6052 39.941 20.1458 39.941 21.7522C39.941 23.3586 39.3028 24.8992 38.1669 26.0351C37.0311 27.171 35.4905 27.8091 33.8841 27.8091H17.7212" stroke="#67D672" stroke-width="5" stroke-linecap="round" stroke-linejoin="round"/>
<path d="M17.7212 35.7266H30.4505" stroke="#67D672" stroke-width="5" stroke-linecap="round" stroke-linejoin="round"/>
</g>
<defs>
<clipPath id="clip0_6266_40128">
<rect width="55.6231" height="55.6231" fill="white"/>
</clipPath>
</defs>
</svg>
