<svg width="56" height="53" viewBox="0 0 56 53" fill="none" xmlns="http://www.w3.org/2000/svg">
<g clip-path="url(#clip0_6266_40009)">
<path d="M17.0211 49.6287H48.0943L52.6154 31.169L49.379 28.9198C48.4307 28.2607 47.6559 27.3819 47.1208 26.3585C46.5857 25.335 46.3063 24.1973 46.3063 23.0424V3.45312H36.58V12.9027C36.58 14.0875 36.3466 15.2607 35.8932 16.3554C35.4398 17.45 34.7752 18.4446 33.9374 19.2824C33.0996 20.1202 32.105 20.7848 31.0104 21.2382C29.9158 21.6916 28.7425 21.925 27.5577 21.925C25.1649 21.925 22.87 20.9744 21.178 19.2824C19.486 17.5904 18.5354 15.2956 18.5354 12.9027V3.45312H8.80918V23.0424C8.80918 24.1973 8.52972 25.335 7.99465 26.3585C7.45958 27.3819 6.6848 28.2607 5.73645 28.9198L2.5 31.169L7.02114 49.6287" stroke="#67D672" stroke-width="5" stroke-linecap="round" stroke-linejoin="round"/>
</g>
<defs>
<clipPath id="clip0_6266_40009">
<rect width="55.1154" height="51.1756" fill="white" transform="translate(0 0.953125)"/>
</clipPath>
</defs>
</svg>
