<svg width="56" height="56" viewBox="0 0 56 56" fill="none" xmlns="http://www.w3.org/2000/svg">
<g clip-path="url(#clip0_6266_40013)">
<path d="M25.1737 18.269C27.3898 17.7247 29.724 17.9342 31.8078 18.8644C33.8915 19.7946 35.606 21.3925 36.6804 23.4057C37.7548 25.4189 38.1279 27.7327 37.7408 29.9815C37.3537 32.2304 36.2284 34.2862 34.5426 35.8243C32.8569 37.3623 30.7068 38.295 28.432 38.4749C26.1571 38.6548 23.8871 38.0717 21.9806 36.8177C20.0741 35.5637 18.6396 33.7103 17.9038 31.5503C17.168 29.3902 17.1728 27.0466 17.9175 24.8895" stroke="#67D672" stroke-width="5" stroke-linecap="round" stroke-linejoin="round"/>
<path d="M47.9019 28.2425L47.9018 28.1858C47.891 24.5373 49.4905 22.1501 52.4361 19.9972L52.7528 19.7659L46.6536 10.3304L43.8351 11.9313C42.9141 12.4398 41.8753 12.6961 40.8235 12.6743C39.7717 12.6525 38.7444 12.3534 37.8453 11.8072C37.5188 11.6159 37.1867 11.4336 36.8489 11.2603L36.8182 11.2446C35.8599 10.7736 35.0421 10.0592 34.4466 9.17287C33.8512 8.28651 33.499 7.2593 33.4253 6.19405L33.2439 3.03125H22.0088L21.8767 5.33481C21.8051 6.60579 21.4101 7.83744 20.7292 8.91302C20.0483 9.98861 19.104 10.8725 17.9858 11.4809L17.9157 11.5192C16.7943 12.1354 15.5339 12.4544 14.2543 12.4459C12.9748 12.4373 11.7187 12.1014 10.6057 11.4702L8.59913 10.3304L2.5 19.7659L2.81661 19.9973C5.7623 22.1501 7.36172 24.5373 7.35098 28.1858L7.3509 28.2425L7.351 28.2992C7.35352 29.0336 7.28978 29.7667 7.16056 30.4896C6.65664 33.3004 5.16415 34.7721 2.81663 36.4878L2.5 36.7191L8.59913 46.1546L10.6057 45.0149C11.7187 44.3837 12.9748 44.0478 14.2543 44.0392C15.5339 44.0306 16.7943 44.3496 17.9157 44.9658L17.9858 45.0041C19.104 45.6125 20.0483 46.4964 20.7292 47.572C21.4101 48.6476 21.8051 49.8793 21.8767 51.1502L22.0088 53.4538H33.2439L33.376 51.1502C33.4476 49.8792 33.8426 48.6476 34.5235 47.572C35.2045 46.4964 36.1488 45.6125 37.2669 45.0041L37.3371 44.9659C38.4585 44.3496 39.7189 44.0306 40.9984 44.0392C42.278 44.0478 43.534 44.3837 44.6471 45.0149L46.6536 46.1547L52.7528 36.7192L52.4362 36.4878C49.4905 34.335 47.8911 31.9478 47.9018 28.2993L47.9019 28.2425Z" stroke="#67D672" stroke-width="5" stroke-linecap="round" stroke-linejoin="round"/>
</g>
<defs>
<clipPath id="clip0_6266_40013">
<rect width="55.2528" height="55.4225" fill="white" transform="translate(0 0.53125)"/>
</clipPath>
</defs>
</svg>
