<svg width="56" height="43" viewBox="0 0 56 43" fill="none" xmlns="http://www.w3.org/2000/svg">
<g clip-path="url(#clip0_6266_39999)">
<path d="M47.6424 15.7355C47.615 13.0236 46.729 10.3901 45.1118 8.21309C44.027 6.72361 42.734 5.39758 41.2724 4.2756C39.9059 3.20998 38.2231 2.63051 36.4903 2.62891H18.964C17.2312 2.63052 15.5484 3.20998 14.182 4.2756C11.5652 6.30893 7.81201 10.1916 7.81201 15.7355" stroke="#67D672" stroke-width="5" stroke-linecap="round" stroke-linejoin="round"/>
<path d="M26.3286 15.7734H45.4772C47.4889 15.7734 49.4183 16.5726 50.8408 17.9951C52.2634 19.4177 53.0625 21.3471 53.0625 23.3588V28.0782C53.0625 30.0899 52.2634 32.0193 50.8408 33.4418C49.4183 34.8644 47.4889 35.6636 45.4772 35.6636H10.0854C8.07362 35.6636 6.14425 34.8644 4.72171 33.4418C3.29917 32.0193 2.5 30.0899 2.5 28.0782V23.3588C2.5 21.3471 3.29918 19.4177 4.72171 17.9951C6.14425 16.5726 8.07362 15.7734 10.0854 15.7734H16.3286" stroke="#67D672" stroke-width="5" stroke-linecap="round" stroke-linejoin="round"/>
<path d="M6.88379 35.6641V40.2952" stroke="#67D672" stroke-width="5" stroke-linecap="round" stroke-linejoin="round"/>
<path d="M48.4668 35.6641V40.2952" stroke="#67D672" stroke-width="5" stroke-linecap="round" stroke-linejoin="round"/>
<path d="M11.5654 28.043C12.9461 28.043 14.0654 26.9237 14.0654 25.543C14.0654 24.1623 12.9461 23.043 11.5654 23.043C10.1847 23.043 9.06543 24.1623 9.06543 25.543C9.06543 26.9237 10.1847 28.043 11.5654 28.043Z" fill="#67D672"/>
<path d="M43.8892 28.043C45.2699 28.043 46.3892 26.9237 46.3892 25.543C46.3892 24.1623 45.2699 23.043 43.8892 23.043C42.5084 23.043 41.3892 24.1623 41.3892 25.543C41.3892 26.9237 42.5084 28.043 43.8892 28.043Z" fill="#67D672"/>
<path d="M20.71 28.043H34.7446" stroke="#67D672" stroke-width="5" stroke-linecap="round" stroke-linejoin="round"/>
</g>
<defs>
<clipPath id="clip0_6266_39999">
<rect width="55.5625" height="42.6656" fill="white" transform="translate(0 0.128906)"/>
</clipPath>
</defs>
</svg>
