<svg width="52" height="56" viewBox="0 0 52 56" fill="none" xmlns="http://www.w3.org/2000/svg">
<g clip-path="url(#clip0_6266_40059)">
<path d="M17.2929 23.7932C15.348 22.7607 13.1184 22.3939 10.9452 22.7491C8.7721 23.1042 6.7752 24.1617 5.26019 25.7596C3.74517 27.3576 2.79552 29.4079 2.55657 31.5969C2.31762 33.7859 2.80254 35.9928 3.93712 37.88C5.0717 39.7672 6.79342 41.2306 8.83876 42.0462C10.8841 42.8618 13.1404 42.9848 15.2622 42.3962C17.3841 41.8076 19.2546 40.54 20.5875 38.7873C21.9204 37.0345 22.6423 34.8933 22.6426 32.6914" stroke="#67D672" stroke-width="5" stroke-linecap="round" stroke-linejoin="round"/>
<path d="M29.8689 32.6914H48.1509V53.3984H27.4429V42.7964" stroke="#67D672" stroke-width="5" stroke-linecap="round" stroke-linejoin="round"/>
<path d="M26.9707 22.6194L38.1027 2.52344L49.2347 22.6194H26.9707Z" stroke="#67D672" stroke-width="5" stroke-linecap="round" stroke-linejoin="round"/>
</g>
<defs>
<clipPath id="clip0_6266_40059">
<rect width="51.735" height="55.8755" fill="white" transform="translate(0 0.0234375)"/>
</clipPath>
</defs>
</svg>
