<svg width="25" height="57" viewBox="0 0 25 57" fill="none" xmlns="http://www.w3.org/2000/svg">
<g clip-path="url(#clip0_6266_39993)">
<path d="M21.7249 39.5546V34.9313L19.7555 29.4294C19.0958 27.5864 19.1821 25.5587 19.9958 23.7784C20.5281 22.6139 20.7662 21.3364 20.6889 20.0584C20.6117 18.7803 20.2217 17.5408 19.553 16.4488L16.2645 11.0781H7.96034L4.67184 16.4488C4.00322 17.5407 3.61315 18.7802 3.53594 20.0583C3.45873 21.3364 3.69674 22.6138 4.22904 23.7783C5.04281 25.5586 5.12905 27.5864 4.46938 29.4293L2.5 34.9313V50.5481C2.5 51.3433 2.81589 52.1059 3.37817 52.6682C3.94045 53.2305 4.70306 53.5464 5.49825 53.5464H18.7266C19.5218 53.5464 20.2844 53.2305 20.8467 52.6682C21.409 52.1059 21.7249 51.3433 21.7249 50.5481V48.4344" stroke="#67D672" stroke-width="5" stroke-linecap="round" stroke-linejoin="round"/>
<path d="M7.86865 3.29297H16.3559" stroke="#67D672" stroke-width="5" stroke-linecap="round" stroke-linejoin="round"/>
<path d="M2.5 38.6562H11.7307" stroke="#67D672" stroke-width="5" stroke-linecap="round" stroke-linejoin="round"/>
</g>
<defs>
<clipPath id="clip0_6266_39993">
<rect width="24.2249" height="55.2548" fill="white" transform="translate(0 0.792969)"/>
</clipPath>
</defs>
</svg>
