<svg width="240" height="240" viewBox="0 0 240 240" fill="none" xmlns="http://www.w3.org/2000/svg">
<g clip-path="url(#clip0_6338_40234)">
<path d="M86.4003 0H76.8003V9.6H86.4003V0Z" fill="#006525"/>
<path d="M115.2 0H105.6V9.6H115.2V0Z" fill="#006525"/>
<path d="M124.8 0H115.2V9.6H124.8V0Z" fill="#006525"/>
<path d="M134.4 0H124.8V9.6H134.4V0Z" fill="#006525"/>
<path d="M144 0H134.4V9.6H144V0Z" fill="#006525"/>
<path d="M153.6 0H144V9.6H153.6V0Z" fill="#006525"/>
<path d="M163.2 0H153.6V9.6H163.2V0Z" fill="#006525"/>
<path d="M96.0004 9.6001H86.4004V19.2001H96.0004V9.6001Z" fill="#006525"/>
<path d="M105.6 9.6001H96V19.2001H105.6V9.6001Z" fill="#006525"/>
<path d="M144 9.6001H134.4V19.2001H144V9.6001Z" fill="#006525"/>
<path d="M96.0004 19.2002H86.4004V28.8002H96.0004V19.2002Z" fill="#006525"/>
<path d="M115.2 19.2002H105.6V28.8002H115.2V19.2002Z" fill="#006525"/>
<path d="M124.8 19.2002H115.2V28.8002H124.8V19.2002Z" fill="#006525"/>
<path d="M144 19.2002H134.4V28.8002H144V19.2002Z" fill="#006525"/>
<path d="M86.4003 28.8003H76.8003V38.4003H86.4003V28.8003Z" fill="#006525"/>
<path d="M105.6 28.8003H96V38.4003H105.6V28.8003Z" fill="#006525"/>
<path d="M115.2 28.8003H105.6V38.4003H115.2V28.8003Z" fill="#006525"/>
<path d="M134.4 28.8003H124.8V38.4003H134.4V28.8003Z" fill="#006525"/>
<path d="M144 28.8003H134.4V38.4003H144V28.8003Z" fill="#006525"/>
<path d="M163.2 28.8003H153.6V38.4003H163.2V28.8003Z" fill="#006525"/>
<path d="M86.4003 38.3999H76.8003V47.9999H86.4003V38.3999Z" fill="#006525"/>
<path d="M96.0004 38.3999H86.4004V47.9999H96.0004V38.3999Z" fill="#006525"/>
<path d="M105.6 38.3999H96V47.9999H105.6V38.3999Z" fill="#006525"/>
<path d="M115.2 38.3999H105.6V47.9999H115.2V38.3999Z" fill="#006525"/>
<path d="M144 38.3999H134.4V47.9999H144V38.3999Z" fill="#006525"/>
<path d="M153.6 38.3999H144V47.9999H153.6V38.3999Z" fill="#006525"/>
<path d="M86.4003 48H76.8003V57.6H86.4003V48Z" fill="#006525"/>
<path d="M105.6 48H96V57.6H105.6V48Z" fill="#006525"/>
<path d="M115.2 48H105.6V57.6H115.2V48Z" fill="#006525"/>
<path d="M163.2 48H153.6V57.6H163.2V48Z" fill="#006525"/>
<path d="M86.4003 57.6001H76.8003V67.2001H86.4003V57.6001Z" fill="#006525"/>
<path d="M105.6 57.6001H96V67.2001H105.6V57.6001Z" fill="#006525"/>
<path d="M124.8 57.6001H115.2V67.2001H124.8V57.6001Z" fill="#006525"/>
<path d="M144 57.6001H134.4V67.2001H144V57.6001Z" fill="#006525"/>
<path d="M163.2 57.6001H153.6V67.2001H163.2V57.6001Z" fill="#006525"/>
<path d="M86.4003 67.2002H76.8003V76.8002H86.4003V67.2002Z" fill="#006525"/>
<path d="M96.0004 67.2002H86.4004V76.8002H96.0004V67.2002Z" fill="#006525"/>
<path d="M105.6 67.2002H96V76.8002H105.6V67.2002Z" fill="#006525"/>
<path d="M115.2 67.2002H105.6V76.8002H115.2V67.2002Z" fill="#006525"/>
<path d="M144 67.2002H134.4V76.8002H144V67.2002Z" fill="#006525"/>
<path d="M163.2 67.2002H153.6V76.8002H163.2V67.2002Z" fill="#006525"/>
<path d="M9.6 76.8003H0V86.4003H9.6V76.8003Z" fill="#006525"/>
<path d="M47.9999 76.8003H38.3999V86.4003H47.9999V76.8003Z" fill="#006525"/>
<path d="M67.2001 76.8003H57.6001V86.4003H67.2001V76.8003Z" fill="#006525"/>
<path d="M76.8002 76.8003H67.2002V86.4003H76.8002V76.8003Z" fill="#006525"/>
<path d="M86.4003 76.8003H76.8003V86.4003H86.4003V76.8003Z" fill="#006525"/>
<path d="M96.0004 76.8003H86.4004V86.4003H96.0004V76.8003Z" fill="#006525"/>
<path d="M124.8 76.8003H115.2V86.4003H124.8V76.8003Z" fill="#006525"/>
<path d="M172.8 76.8003H163.2V86.4003H172.8V76.8003Z" fill="#006525"/>
<path d="M182.4 76.8003H172.8V86.4003H182.4V76.8003Z" fill="#006525"/>
<path d="M192 76.8003H182.4V86.4003H192V76.8003Z" fill="#006525"/>
<path d="M201.6 76.8003H192V86.4003H201.6V76.8003Z" fill="#006525"/>
<path d="M211.2 76.8003H201.6V86.4003H211.2V76.8003Z" fill="#006525"/>
<path d="M240 76.8003H230.4V86.4003H240V76.8003Z" fill="#006525"/>
<path d="M19.2001 86.4004H9.6001V96.0004H19.2001V86.4004Z" fill="#006525"/>
<path d="M76.8002 86.4004H67.2002V96.0004H76.8002V86.4004Z" fill="#006525"/>
<path d="M86.4003 86.4004H76.8003V96.0004H86.4003V86.4004Z" fill="#006525"/>
<path d="M96.0004 86.4004H86.4004V96.0004H96.0004V86.4004Z" fill="#006525"/>
<path d="M105.6 86.4004H96V96.0004H105.6V86.4004Z" fill="#006525"/>
<path d="M115.2 86.4004H105.6V96.0004H115.2V86.4004Z" fill="#006525"/>
<path d="M144 86.4004H134.4V96.0004H144V86.4004Z" fill="#006525"/>
<path d="M153.6 86.4004H144V96.0004H153.6V86.4004Z" fill="#006525"/>
<path d="M163.2 86.4004H153.6V96.0004H163.2V86.4004Z" fill="#006525"/>
<path d="M172.8 86.4004H163.2V96.0004H172.8V86.4004Z" fill="#006525"/>
<path d="M201.6 86.4004H192V96.0004H201.6V86.4004Z" fill="#006525"/>
<path d="M211.2 86.4004H201.6V96.0004H211.2V86.4004Z" fill="#006525"/>
<path d="M230.4 86.4004H220.8V96.0004H230.4V86.4004Z" fill="#006525"/>
<path d="M28.8002 96H19.2002V105.6H28.8002V96Z" fill="#006525"/>
<path d="M67.2001 96H57.6001V105.6H67.2001V96Z" fill="#006525"/>
<path d="M86.4003 96H76.8003V105.6H86.4003V96Z" fill="#006525"/>
<path d="M105.6 96H96V105.6H105.6V96Z" fill="#006525"/>
<path d="M115.2 96H105.6V105.6H115.2V96Z" fill="#006525"/>
<path d="M144 96H134.4V105.6H144V96Z" fill="#006525"/>
<path d="M153.6 96H144V105.6H153.6V96Z" fill="#006525"/>
<path d="M163.2 96H153.6V105.6H163.2V96Z" fill="#006525"/>
<path d="M192 96H182.4V105.6H192V96Z" fill="#006525"/>
<path d="M201.6 96H192V105.6H201.6V96Z" fill="#006525"/>
<path d="M211.2 96H201.6V105.6H211.2V96Z" fill="#006525"/>
<path d="M220.8 96H211.2V105.6H220.8V96Z" fill="#006525"/>
<path d="M9.6 105.6H0V115.2H9.6V105.6Z" fill="#006525"/>
<path d="M28.8002 105.6H19.2002V115.2H28.8002V105.6Z" fill="#006525"/>
<path d="M38.4003 105.6H28.8003V115.2H38.4003V105.6Z" fill="#006525"/>
<path d="M76.8002 105.6H67.2002V115.2H76.8002V105.6Z" fill="#006525"/>
<path d="M86.4003 105.6H76.8003V115.2H86.4003V105.6Z" fill="#006525"/>
<path d="M115.2 105.6H105.6V115.2H115.2V105.6Z" fill="#006525"/>
<path d="M124.8 105.6H115.2V115.2H124.8V105.6Z" fill="#006525"/>
<path d="M144 105.6H134.4V115.2H144V105.6Z" fill="#006525"/>
<path d="M153.6 105.6H144V115.2H153.6V105.6Z" fill="#006525"/>
<path d="M182.4 105.6H172.8V115.2H182.4V105.6Z" fill="#006525"/>
<path d="M192 105.6H182.4V115.2H192V105.6Z" fill="#006525"/>
<path d="M220.8 105.6H211.2V115.2H220.8V105.6Z" fill="#006525"/>
<path d="M230.4 105.6H220.8V115.2H230.4V105.6Z" fill="#006525"/>
<path d="M9.6 115.2H0V124.8H9.6V115.2Z" fill="#006525"/>
<path d="M19.2001 115.2H9.6001V124.8H19.2001V115.2Z" fill="#006525"/>
<path d="M28.8002 115.2H19.2002V124.8H28.8002V115.2Z" fill="#006525"/>
<path d="M47.9999 115.2H38.3999V124.8H47.9999V115.2Z" fill="#006525"/>
<path d="M57.6 115.2H48V124.8H57.6V115.2Z" fill="#006525"/>
<path d="M67.2001 115.2H57.6001V124.8H67.2001V115.2Z" fill="#006525"/>
<path d="M76.8002 115.2H67.2002V124.8H76.8002V115.2Z" fill="#006525"/>
<path d="M86.4003 115.2H76.8003V124.8H86.4003V115.2Z" fill="#006525"/>
<path d="M96.0004 115.2H86.4004V124.8H96.0004V115.2Z" fill="#006525"/>
<path d="M105.6 115.2H96V124.8H105.6V115.2Z" fill="#006525"/>
<path d="M115.2 115.2H105.6V124.8H115.2V115.2Z" fill="#006525"/>
<path d="M134.4 115.2H124.8V124.8H134.4V115.2Z" fill="#006525"/>
<path d="M144 115.2H134.4V124.8H144V115.2Z" fill="#006525"/>
<path d="M153.6 115.2H144V124.8H153.6V115.2Z" fill="#006525"/>
<path d="M172.8 115.2H163.2V124.8H172.8V115.2Z" fill="#006525"/>
<path d="M182.4 115.2H172.8V124.8H182.4V115.2Z" fill="#006525"/>
<path d="M211.2 115.2H201.6V124.8H211.2V115.2Z" fill="#006525"/>
<path d="M220.8 115.2H211.2V124.8H220.8V115.2Z" fill="#006525"/>
<path d="M230.4 115.2H220.8V124.8H230.4V115.2Z" fill="#006525"/>
<path d="M240 115.2H230.4V124.8H240V115.2Z" fill="#006525"/>
<path d="M9.6 124.8H0V134.4H9.6V124.8Z" fill="#006525"/>
<path d="M28.8002 124.8H19.2002V134.4H28.8002V124.8Z" fill="#006525"/>
<path d="M86.4003 124.8H76.8003V134.4H86.4003V124.8Z" fill="#006525"/>
<path d="M105.6 124.8H96V134.4H105.6V124.8Z" fill="#006525"/>
<path d="M124.8 124.8H115.2V134.4H124.8V124.8Z" fill="#006525"/>
<path d="M144 124.8H134.4V134.4H144V124.8Z" fill="#006525"/>
<path d="M153.6 124.8H144V134.4H153.6V124.8Z" fill="#006525"/>
<path d="M163.2 124.8H153.6V134.4H163.2V124.8Z" fill="#006525"/>
<path d="M172.8 124.8H163.2V134.4H172.8V124.8Z" fill="#006525"/>
<path d="M201.6 124.8H192V134.4H201.6V124.8Z" fill="#006525"/>
<path d="M230.4 124.8H220.8V134.4H230.4V124.8Z" fill="#006525"/>
<path d="M28.8002 134.4H19.2002V144H28.8002V134.4Z" fill="#006525"/>
<path d="M38.4003 134.4H28.8003V144H38.4003V134.4Z" fill="#006525"/>
<path d="M67.2001 134.4H57.6001V144H67.2001V134.4Z" fill="#006525"/>
<path d="M76.8002 134.4H67.2002V144H76.8002V134.4Z" fill="#006525"/>
<path d="M86.4003 134.4H76.8003V144H86.4003V134.4Z" fill="#006525"/>
<path d="M96.0004 134.4H86.4004V144H96.0004V134.4Z" fill="#006525"/>
<path d="M115.2 134.4H105.6V144H115.2V134.4Z" fill="#006525"/>
<path d="M124.8 134.4H115.2V144H124.8V134.4Z" fill="#006525"/>
<path d="M134.4 134.4H124.8V144H134.4V134.4Z" fill="#006525"/>
<path d="M144 134.4H134.4V144H144V134.4Z" fill="#006525"/>
<path d="M153.6 134.4H144V144H153.6V134.4Z" fill="#006525"/>
<path d="M163.2 134.4H153.6V144H163.2V134.4Z" fill="#006525"/>
<path d="M192 134.4H182.4V144H192V134.4Z" fill="#006525"/>
<path d="M201.6 134.4H192V144H201.6V134.4Z" fill="#006525"/>
<path d="M211.2 134.4H201.6V144H211.2V134.4Z" fill="#006525"/>
<path d="M220.8 134.4H211.2V144H220.8V134.4Z" fill="#006525"/>
<path d="M115.2 144H105.6V153.6H115.2V144Z" fill="#006525"/>
<path d="M134.4 144H124.8V153.6H134.4V144Z" fill="#006525"/>
<path d="M153.6 144H144V153.6H153.6V144Z" fill="#006525"/>
<path d="M182.4 144H172.8V153.6H182.4V144Z" fill="#006525"/>
<path d="M192 144H182.4V153.6H192V144Z" fill="#006525"/>
<path d="M201.6 144H192V153.6H201.6V144Z" fill="#006525"/>
<path d="M220.8 144H211.2V153.6H220.8V144Z" fill="#006525"/>
<path d="M230.4 144H220.8V153.6H230.4V144Z" fill="#006525"/>
<path d="M9.6 153.6H0V163.2H9.6V153.6Z" fill="#006525"/>
<path d="M19.2001 153.6H9.6001V163.2H19.2001V153.6Z" fill="#006525"/>
<path d="M28.8002 153.6H19.2002V163.2H28.8002V153.6Z" fill="#006525"/>
<path d="M57.6 153.6H48V163.2H57.6V153.6Z" fill="#006525"/>
<path d="M67.2001 153.6H57.6001V163.2H67.2001V153.6Z" fill="#006525"/>
<path d="M76.8002 153.6H67.2002V163.2H76.8002V153.6Z" fill="#006525"/>
<path d="M105.6 153.6H96V163.2H105.6V153.6Z" fill="#006525"/>
<path d="M124.8 153.6H115.2V163.2H124.8V153.6Z" fill="#006525"/>
<path d="M134.4 153.6H124.8V163.2H134.4V153.6Z" fill="#006525"/>
<path d="M163.2 153.6H153.6V163.2H163.2V153.6Z" fill="#006525"/>
<path d="M172.8 153.6H163.2V163.2H172.8V153.6Z" fill="#006525"/>
<path d="M182.4 153.6H172.8V163.2H182.4V153.6Z" fill="#006525"/>
<path d="M192 153.6H182.4V163.2H192V153.6Z" fill="#006525"/>
<path d="M201.6 153.6H192V163.2H201.6V153.6Z" fill="#006525"/>
<path d="M211.2 153.6H201.6V163.2H211.2V153.6Z" fill="#006525"/>
<path d="M220.8 153.6H211.2V163.2H220.8V153.6Z" fill="#006525"/>
<path d="M86.4003 163.2H76.8003V172.8H86.4003V163.2Z" fill="#006525"/>
<path d="M96.0004 163.2H86.4004V172.8H96.0004V163.2Z" fill="#006525"/>
<path d="M134.4 163.2H124.8V172.8H134.4V163.2Z" fill="#006525"/>
<path d="M144 163.2H134.4V172.8H144V163.2Z" fill="#006525"/>
<path d="M153.6 163.2H144V172.8H153.6V163.2Z" fill="#006525"/>
<path d="M163.2 163.2H153.6V172.8H163.2V163.2Z" fill="#006525"/>
<path d="M201.6 163.2H192V172.8H201.6V163.2Z" fill="#006525"/>
<path d="M86.4003 172.8H76.8003V182.4H86.4003V172.8Z" fill="#006525"/>
<path d="M96.0004 172.8H86.4004V182.4H96.0004V172.8Z" fill="#006525"/>
<path d="M105.6 172.8H96V182.4H105.6V172.8Z" fill="#006525"/>
<path d="M163.2 172.8H153.6V182.4H163.2V172.8Z" fill="#006525"/>
<path d="M182.4 172.8H172.8V182.4H182.4V172.8Z" fill="#006525"/>
<path d="M201.6 172.8H192V182.4H201.6V172.8Z" fill="#006525"/>
<path d="M96.0004 182.4H86.4004V192H96.0004V182.4Z" fill="#006525"/>
<path d="M124.8 182.4H115.2V192H124.8V182.4Z" fill="#006525"/>
<path d="M144 182.4H134.4V192H144V182.4Z" fill="#006525"/>
<path d="M163.2 182.4H153.6V192H163.2V182.4Z" fill="#006525"/>
<path d="M201.6 182.4H192V192H201.6V182.4Z" fill="#006525"/>
<path d="M211.2 182.4H201.6V192H211.2V182.4Z" fill="#006525"/>
<path d="M220.8 182.4H211.2V192H220.8V182.4Z" fill="#006525"/>
<path d="M230.4 182.4H220.8V192H230.4V182.4Z" fill="#006525"/>
<path d="M86.4003 192H76.8003V201.6H86.4003V192Z" fill="#006525"/>
<path d="M105.6 192H96V201.6H105.6V192Z" fill="#006525"/>
<path d="M115.2 192H105.6V201.6H115.2V192Z" fill="#006525"/>
<path d="M134.4 192H124.8V201.6H134.4V192Z" fill="#006525"/>
<path d="M144 192H134.4V201.6H144V192Z" fill="#006525"/>
<path d="M163.2 192H153.6V201.6H163.2V192Z" fill="#006525"/>
<path d="M172.8 192H163.2V201.6H172.8V192Z" fill="#006525"/>
<path d="M182.4 192H172.8V201.6H182.4V192Z" fill="#006525"/>
<path d="M192 192H182.4V201.6H192V192Z" fill="#006525"/>
<path d="M201.6 192H192V201.6H201.6V192Z" fill="#006525"/>
<path d="M211.2 192H201.6V201.6H211.2V192Z" fill="#006525"/>
<path d="M220.8 192H211.2V201.6H220.8V192Z" fill="#006525"/>
<path d="M230.4 192H220.8V201.6H230.4V192Z" fill="#006525"/>
<path d="M240 192H230.4V201.6H240V192Z" fill="#006525"/>
<path d="M96.0004 201.6H86.4004V211.2H96.0004V201.6Z" fill="#006525"/>
<path d="M105.6 201.6H96V211.2H105.6V201.6Z" fill="#006525"/>
<path d="M124.8 201.6H115.2V211.2H124.8V201.6Z" fill="#006525"/>
<path d="M153.6 201.6H144V211.2H153.6V201.6Z" fill="#006525"/>
<path d="M182.4 201.6H172.8V211.2H182.4V201.6Z" fill="#006525"/>
<path d="M192 201.6H182.4V211.2H192V201.6Z" fill="#006525"/>
<path d="M220.8 201.6H211.2V211.2H220.8V201.6Z" fill="#006525"/>
<path d="M230.4 201.6H220.8V211.2H230.4V201.6Z" fill="#006525"/>
<path d="M240 201.6H230.4V211.2H240V201.6Z" fill="#006525"/>
<path d="M105.6 211.2H96V220.8H105.6V211.2Z" fill="#006525"/>
<path d="M115.2 211.2H105.6V220.8H115.2V211.2Z" fill="#006525"/>
<path d="M124.8 211.2H115.2V220.8H124.8V211.2Z" fill="#006525"/>
<path d="M134.4 211.2H124.8V220.8H134.4V211.2Z" fill="#006525"/>
<path d="M144 211.2H134.4V220.8H144V211.2Z" fill="#006525"/>
<path d="M163.2 211.2H153.6V220.8H163.2V211.2Z" fill="#006525"/>
<path d="M172.8 211.2H163.2V220.8H172.8V211.2Z" fill="#006525"/>
<path d="M182.4 211.2H172.8V220.8H182.4V211.2Z" fill="#006525"/>
<path d="M211.2 211.2H201.6V220.8H211.2V211.2Z" fill="#006525"/>
<path d="M230.4 211.2H220.8V220.8H230.4V211.2Z" fill="#006525"/>
<path d="M96.0004 220.8H86.4004V230.4H96.0004V220.8Z" fill="#006525"/>
<path d="M115.2 220.8H105.6V230.4H115.2V220.8Z" fill="#006525"/>
<path d="M134.4 220.8H124.8V230.4H134.4V220.8Z" fill="#006525"/>
<path d="M182.4 220.8H172.8V230.4H182.4V220.8Z" fill="#006525"/>
<path d="M192 220.8H182.4V230.4H192V220.8Z" fill="#006525"/>
<path d="M201.6 220.8H192V230.4H201.6V220.8Z" fill="#006525"/>
<path d="M211.2 220.8H201.6V230.4H211.2V220.8Z" fill="#006525"/>
<path d="M220.8 220.8H211.2V230.4H220.8V220.8Z" fill="#006525"/>
<path d="M230.4 220.8H220.8V230.4H230.4V220.8Z" fill="#006525"/>
<path d="M86.4003 230.4H76.8003V240H86.4003V230.4Z" fill="#006525"/>
<path d="M96.0004 230.4H86.4004V240H96.0004V230.4Z" fill="#006525"/>
<path d="M105.6 230.4H96V240H105.6V230.4Z" fill="#006525"/>
<path d="M124.8 230.4H115.2V240H124.8V230.4Z" fill="#006525"/>
<path d="M134.4 230.4H124.8V240H134.4V230.4Z" fill="#006525"/>
<path d="M153.6 230.4H144V240H153.6V230.4Z" fill="#006525"/>
<path d="M220.8 230.4H211.2V240H220.8V230.4Z" fill="#006525"/>
<path d="M230.4 230.4H220.8V240H230.4V230.4Z" fill="#006525"/>
<path d="M240 230.4H230.4V240H240V230.4Z" fill="#006525"/>
<path d="M57.12 0H10.08H0V10.08V57.12V67.2H10.08H57.12H67.2V57.12V10.08V0H57.12ZM57.12 57.12H10.08V10.08H57.12V57.12Z" fill="#006525"/>
<path d="M229.92 0H182.88H172.8V10.08V57.12V67.2H182.88H229.92H240V57.12V10.08V0H229.92ZM229.92 57.12H182.88V10.08H229.92V57.12Z" fill="#006525"/>
<path d="M57.12 172.8H10.08H0V182.88V229.92V240H10.08H57.12H67.2V229.92V182.88V172.8H57.12ZM57.12 229.92H10.08V182.88H57.12V229.92Z" fill="#006525"/>
<path d="M48.0002 19.2002H19.2002V48.0002H48.0002V19.2002Z" fill="#006525"/>
<path d="M220.8 19.2002H192V48.0002H220.8V19.2002Z" fill="#006525"/>
<path d="M48.0002 192H19.2002V220.8H48.0002V192Z" fill="#006525"/>
</g>
<defs>
<clipPath id="clip0_6338_40234">
<rect width="240" height="240" fill="white"/>
</clipPath>
</defs>
</svg>
