<svg width="239" height="239" viewBox="0 0 239 239" fill="none" xmlns="http://www.w3.org/2000/svg">
<g clip-path="url(#clip0_6338_41717)">
<path d="M239 0H0V239H239V0Z" fill="white"/>
<path d="M107.138 16.4844H98.8965V24.7258H107.138V16.4844Z" fill="#006525"/>
<path d="M115.38 16.4844H107.138V24.7258H115.38V16.4844Z" fill="#006525"/>
<path d="M123.621 16.4844H115.379V24.7258H123.621V16.4844Z" fill="#006525"/>
<path d="M156.586 16.4844H148.345V24.7258H156.586V16.4844Z" fill="#006525"/>
<path d="M131.862 24.7266H123.621V32.9679H131.862V24.7266Z" fill="#006525"/>
<path d="M148.345 24.7266H140.104V32.9679H148.345V24.7266Z" fill="#006525"/>
<path d="M90.6554 32.9688H82.4141V41.2101H90.6554V32.9688Z" fill="#006525"/>
<path d="M98.8967 32.9688H90.6553V41.2101H98.8967V32.9688Z" fill="#006525"/>
<path d="M107.138 32.9688H98.8965V41.2101H107.138V32.9688Z" fill="#006525"/>
<path d="M115.38 32.9688H107.138V41.2101H115.38V32.9688Z" fill="#006525"/>
<path d="M140.104 32.9688H131.862V41.2101H140.104V32.9688Z" fill="#006525"/>
<path d="M156.586 32.9688H148.345V41.2101H156.586V32.9688Z" fill="#006525"/>
<path d="M90.6554 41.207H82.4141V49.4484H90.6554V41.207Z" fill="#006525"/>
<path d="M107.138 41.207H98.8965V49.4484H107.138V41.207Z" fill="#006525"/>
<path d="M115.38 41.207H107.138V49.4484H115.38V41.207Z" fill="#006525"/>
<path d="M123.621 41.207H115.379V49.4484H123.621V41.207Z" fill="#006525"/>
<path d="M131.862 41.207H123.621V49.4484H131.862V41.207Z" fill="#006525"/>
<path d="M140.104 41.207H131.862V49.4484H140.104V41.207Z" fill="#006525"/>
<path d="M90.6554 49.4492H82.4141V57.6906H90.6554V49.4492Z" fill="#006525"/>
<path d="M123.621 49.4492H115.379V57.6906H123.621V49.4492Z" fill="#006525"/>
<path d="M131.862 49.4492H123.621V57.6906H131.862V49.4492Z" fill="#006525"/>
<path d="M90.6554 57.6914H82.4141V65.9328H90.6554V57.6914Z" fill="#006525"/>
<path d="M107.138 57.6914H98.8965V65.9328H107.138V57.6914Z" fill="#006525"/>
<path d="M115.38 57.6914H107.138V65.9328H115.38V57.6914Z" fill="#006525"/>
<path d="M123.621 57.6914H115.379V65.9328H123.621V57.6914Z" fill="#006525"/>
<path d="M131.862 57.6914H123.621V65.9328H131.862V57.6914Z" fill="#006525"/>
<path d="M140.104 57.6914H131.862V65.9328H140.104V57.6914Z" fill="#006525"/>
<path d="M148.345 57.6914H140.104V65.9328H148.345V57.6914Z" fill="#006525"/>
<path d="M156.586 57.6914H148.345V65.9328H156.586V57.6914Z" fill="#006525"/>
<path d="M90.6554 65.9336H82.4141V74.175H90.6554V65.9336Z" fill="#006525"/>
<path d="M107.138 65.9336H98.8965V74.175H107.138V65.9336Z" fill="#006525"/>
<path d="M123.621 65.9336H115.379V74.175H123.621V65.9336Z" fill="#006525"/>
<path d="M140.104 65.9336H131.862V74.175H140.104V65.9336Z" fill="#006525"/>
<path d="M156.586 65.9336H148.345V74.175H156.586V65.9336Z" fill="#006525"/>
<path d="M90.6554 74.1758H82.4141V82.4172H90.6554V74.1758Z" fill="#006525"/>
<path d="M107.138 74.1758H98.8965V82.4172H107.138V74.1758Z" fill="#006525"/>
<path d="M115.38 74.1758H107.138V82.4172H115.38V74.1758Z" fill="#006525"/>
<path d="M123.621 74.1758H115.379V82.4172H123.621V74.1758Z" fill="#006525"/>
<path d="M140.104 74.1758H131.862V82.4172H140.104V74.1758Z" fill="#006525"/>
<path d="M24.7243 82.4141H16.4829V90.6554H24.7243V82.4141Z" fill="#006525"/>
<path d="M41.2072 82.4141H32.9658V90.6554H41.2072V82.4141Z" fill="#006525"/>
<path d="M49.4484 82.4141H41.207V90.6554H49.4484V82.4141Z" fill="#006525"/>
<path d="M57.6896 82.4141H49.4482V90.6554H57.6896V82.4141Z" fill="#006525"/>
<path d="M65.9313 82.4141H57.6899V90.6554H65.9313V82.4141Z" fill="#006525"/>
<path d="M74.1725 82.4141H65.9312V90.6554H74.1725V82.4141Z" fill="#006525"/>
<path d="M98.8967 82.4141H90.6553V90.6554H98.8967V82.4141Z" fill="#006525"/>
<path d="M123.621 82.4141H115.379V90.6554H123.621V82.4141Z" fill="#006525"/>
<path d="M131.862 82.4141H123.621V90.6554H131.862V82.4141Z" fill="#006525"/>
<path d="M140.104 82.4141H131.862V90.6554H140.104V82.4141Z" fill="#006525"/>
<path d="M148.345 82.4141H140.104V90.6554H148.345V82.4141Z" fill="#006525"/>
<path d="M173.069 82.4141H164.828V90.6554H173.069V82.4141Z" fill="#006525"/>
<path d="M181.311 82.4141H173.069V90.6554H181.311V82.4141Z" fill="#006525"/>
<path d="M189.552 82.4141H181.311V90.6554H189.552V82.4141Z" fill="#006525"/>
<path d="M197.793 82.4141H189.552V90.6554H197.793V82.4141Z" fill="#006525"/>
<path d="M206.035 82.4141H197.793V90.6554H206.035V82.4141Z" fill="#006525"/>
<path d="M57.6896 90.6562H49.4482V98.8976H57.6896V90.6562Z" fill="#006525"/>
<path d="M82.4137 90.6562H74.1724V98.8976H82.4137V90.6562Z" fill="#006525"/>
<path d="M90.6554 90.6562H82.4141V98.8976H90.6554V90.6562Z" fill="#006525"/>
<path d="M98.8967 90.6562H90.6553V98.8976H98.8967V90.6562Z" fill="#006525"/>
<path d="M107.138 90.6562H98.8965V98.8976H107.138V90.6562Z" fill="#006525"/>
<path d="M115.38 90.6562H107.138V98.8976H115.38V90.6562Z" fill="#006525"/>
<path d="M123.621 90.6562H115.379V98.8976H123.621V90.6562Z" fill="#006525"/>
<path d="M131.862 90.6562H123.621V98.8976H131.862V90.6562Z" fill="#006525"/>
<path d="M156.586 90.6562H148.345V98.8976H156.586V90.6562Z" fill="#006525"/>
<path d="M164.828 90.6562H156.586V98.8976H164.828V90.6562Z" fill="#006525"/>
<path d="M181.311 90.6562H173.069V98.8976H181.311V90.6562Z" fill="#006525"/>
<path d="M214.276 90.6562H206.035V98.8976H214.276V90.6562Z" fill="#006525"/>
<path d="M32.9655 98.8984H24.7241V107.14H32.9655V98.8984Z" fill="#006525"/>
<path d="M41.2072 98.8984H32.9658V107.14H41.2072V98.8984Z" fill="#006525"/>
<path d="M49.4484 98.8984H41.207V107.14H49.4484V98.8984Z" fill="#006525"/>
<path d="M74.1725 98.8984H65.9312V107.14H74.1725V98.8984Z" fill="#006525"/>
<path d="M82.4137 98.8984H74.1724V107.14H82.4137V98.8984Z" fill="#006525"/>
<path d="M90.6554 98.8984H82.4141V107.14H90.6554V98.8984Z" fill="#006525"/>
<path d="M115.38 98.8984H107.138V107.14H115.38V98.8984Z" fill="#006525"/>
<path d="M140.104 98.8984H131.862V107.14H140.104V98.8984Z" fill="#006525"/>
<path d="M148.345 98.8984H140.104V107.14H148.345V98.8984Z" fill="#006525"/>
<path d="M164.828 98.8984H156.586V107.14H164.828V98.8984Z" fill="#006525"/>
<path d="M173.069 98.8984H164.828V107.14H173.069V98.8984Z" fill="#006525"/>
<path d="M181.311 98.8984H173.069V107.14H181.311V98.8984Z" fill="#006525"/>
<path d="M189.552 98.8984H181.311V107.14H189.552V98.8984Z" fill="#006525"/>
<path d="M197.793 98.8984H189.552V107.14H197.793V98.8984Z" fill="#006525"/>
<path d="M214.276 98.8984H206.035V107.14H214.276V98.8984Z" fill="#006525"/>
<path d="M222.517 98.8984H214.276V107.14H222.517V98.8984Z" fill="#006525"/>
<path d="M32.9655 107.141H24.7241V115.382H32.9655V107.141Z" fill="#006525"/>
<path d="M41.2072 107.141H32.9658V115.382H41.2072V107.141Z" fill="#006525"/>
<path d="M65.9313 107.141H57.6899V115.382H65.9313V107.141Z" fill="#006525"/>
<path d="M98.8967 107.141H90.6553V115.382H98.8967V107.141Z" fill="#006525"/>
<path d="M140.104 107.141H131.862V115.382H140.104V107.141Z" fill="#006525"/>
<path d="M148.345 107.141H140.104V115.382H148.345V107.141Z" fill="#006525"/>
<path d="M156.586 107.141H148.345V115.382H156.586V107.141Z" fill="#006525"/>
<path d="M164.828 107.141H156.586V115.382H164.828V107.141Z" fill="#006525"/>
<path d="M181.311 107.141H173.069V115.382H181.311V107.141Z" fill="#006525"/>
<path d="M222.517 107.141H214.276V115.382H222.517V107.141Z" fill="#006525"/>
<path d="M32.9655 115.383H24.7241V123.624H32.9655V115.383Z" fill="#006525"/>
<path d="M41.2072 115.383H32.9658V123.624H41.2072V115.383Z" fill="#006525"/>
<path d="M49.4484 115.383H41.207V123.624H49.4484V115.383Z" fill="#006525"/>
<path d="M57.6896 115.383H49.4482V123.624H57.6896V115.383Z" fill="#006525"/>
<path d="M74.1725 115.383H65.9312V123.624H74.1725V115.383Z" fill="#006525"/>
<path d="M82.4137 115.383H74.1724V123.624H82.4137V115.383Z" fill="#006525"/>
<path d="M98.8967 115.383H90.6553V123.624H98.8967V115.383Z" fill="#006525"/>
<path d="M115.38 115.383H107.138V123.624H115.38V115.383Z" fill="#006525"/>
<path d="M123.621 115.383H115.379V123.624H123.621V115.383Z" fill="#006525"/>
<path d="M131.862 115.383H123.621V123.624H131.862V115.383Z" fill="#006525"/>
<path d="M164.828 115.383H156.586V123.624H164.828V115.383Z" fill="#006525"/>
<path d="M173.069 115.383H164.828V123.624H173.069V115.383Z" fill="#006525"/>
<path d="M181.311 115.383H173.069V123.624H181.311V115.383Z" fill="#006525"/>
<path d="M189.552 115.383H181.311V123.624H189.552V115.383Z" fill="#006525"/>
<path d="M206.035 115.383H197.793V123.624H206.035V115.383Z" fill="#006525"/>
<path d="M214.276 115.383H206.035V123.624H214.276V115.383Z" fill="#006525"/>
<path d="M222.517 115.383H214.276V123.624H222.517V115.383Z" fill="#006525"/>
<path d="M24.7243 123.621H16.4829V131.862H24.7243V123.621Z" fill="#006525"/>
<path d="M41.2072 123.621H32.9658V131.862H41.2072V123.621Z" fill="#006525"/>
<path d="M57.6896 123.621H49.4482V131.862H57.6896V123.621Z" fill="#006525"/>
<path d="M65.9313 123.621H57.6899V131.862H65.9313V123.621Z" fill="#006525"/>
<path d="M82.4137 123.621H74.1724V131.862H82.4137V123.621Z" fill="#006525"/>
<path d="M107.138 123.621H98.8965V131.862H107.138V123.621Z" fill="#006525"/>
<path d="M131.862 123.621H123.621V131.862H131.862V123.621Z" fill="#006525"/>
<path d="M156.586 123.621H148.345V131.862H156.586V123.621Z" fill="#006525"/>
<path d="M164.828 123.621H156.586V131.862H164.828V123.621Z" fill="#006525"/>
<path d="M181.311 123.621H173.069V131.862H181.311V123.621Z" fill="#006525"/>
<path d="M197.793 123.621H189.552V131.862H197.793V123.621Z" fill="#006525"/>
<path d="M214.276 123.621H206.035V131.862H214.276V123.621Z" fill="#006525"/>
<path d="M24.7243 131.863H16.4829V140.105H24.7243V131.863Z" fill="#006525"/>
<path d="M57.6896 131.863H49.4482V140.105H57.6896V131.863Z" fill="#006525"/>
<path d="M74.1725 131.863H65.9312V140.105H74.1725V131.863Z" fill="#006525"/>
<path d="M98.8967 131.863H90.6553V140.105H98.8967V131.863Z" fill="#006525"/>
<path d="M107.138 131.863H98.8965V140.105H107.138V131.863Z" fill="#006525"/>
<path d="M115.38 131.863H107.138V140.105H115.38V131.863Z" fill="#006525"/>
<path d="M123.621 131.863H115.379V140.105H123.621V131.863Z" fill="#006525"/>
<path d="M131.862 131.863H123.621V140.105H131.862V131.863Z" fill="#006525"/>
<path d="M140.104 131.863H131.862V140.105H140.104V131.863Z" fill="#006525"/>
<path d="M148.345 131.863H140.104V140.105H148.345V131.863Z" fill="#006525"/>
<path d="M164.828 131.863H156.586V140.105H164.828V131.863Z" fill="#006525"/>
<path d="M173.069 131.863H164.828V140.105H173.069V131.863Z" fill="#006525"/>
<path d="M181.311 131.863H173.069V140.105H181.311V131.863Z" fill="#006525"/>
<path d="M189.552 131.863H181.311V140.105H189.552V131.863Z" fill="#006525"/>
<path d="M197.793 131.863H189.552V140.105H197.793V131.863Z" fill="#006525"/>
<path d="M214.276 131.863H206.035V140.105H214.276V131.863Z" fill="#006525"/>
<path d="M222.517 131.863H214.276V140.105H222.517V131.863Z" fill="#006525"/>
<path d="M24.7243 140.105H16.4829V148.347H24.7243V140.105Z" fill="#006525"/>
<path d="M41.2072 140.105H32.9658V148.347H41.2072V140.105Z" fill="#006525"/>
<path d="M49.4484 140.105H41.207V148.347H49.4484V140.105Z" fill="#006525"/>
<path d="M57.6896 140.105H49.4482V148.347H57.6896V140.105Z" fill="#006525"/>
<path d="M65.9313 140.105H57.6899V148.347H65.9313V140.105Z" fill="#006525"/>
<path d="M115.38 140.105H107.138V148.347H115.38V140.105Z" fill="#006525"/>
<path d="M140.104 140.105H131.862V148.347H140.104V140.105Z" fill="#006525"/>
<path d="M148.345 140.105H140.104V148.347H148.345V140.105Z" fill="#006525"/>
<path d="M156.586 140.105H148.345V148.347H156.586V140.105Z" fill="#006525"/>
<path d="M164.828 140.105H156.586V148.347H164.828V140.105Z" fill="#006525"/>
<path d="M181.311 140.105H173.069V148.347H181.311V140.105Z" fill="#006525"/>
<path d="M189.552 140.105H181.311V148.347H189.552V140.105Z" fill="#006525"/>
<path d="M222.517 140.105H214.276V148.347H222.517V140.105Z" fill="#006525"/>
<path d="M24.7243 148.348H16.4829V156.589H24.7243V148.348Z" fill="#006525"/>
<path d="M41.2072 148.348H32.9658V156.589H41.2072V148.348Z" fill="#006525"/>
<path d="M74.1725 148.348H65.9312V156.589H74.1725V148.348Z" fill="#006525"/>
<path d="M82.4137 148.348H74.1724V156.589H82.4137V148.348Z" fill="#006525"/>
<path d="M90.6554 148.348H82.4141V156.589H90.6554V148.348Z" fill="#006525"/>
<path d="M115.38 148.348H107.138V156.589H115.38V148.348Z" fill="#006525"/>
<path d="M123.621 148.348H115.379V156.589H123.621V148.348Z" fill="#006525"/>
<path d="M131.862 148.348H123.621V156.589H131.862V148.348Z" fill="#006525"/>
<path d="M140.104 148.348H131.862V156.589H140.104V148.348Z" fill="#006525"/>
<path d="M148.345 148.348H140.104V156.589H148.345V148.348Z" fill="#006525"/>
<path d="M156.586 148.348H148.345V156.589H156.586V148.348Z" fill="#006525"/>
<path d="M164.828 148.348H156.586V156.589H164.828V148.348Z" fill="#006525"/>
<path d="M173.069 148.348H164.828V156.589H173.069V148.348Z" fill="#006525"/>
<path d="M181.311 148.348H173.069V156.589H181.311V148.348Z" fill="#006525"/>
<path d="M189.552 148.348H181.311V156.589H189.552V148.348Z" fill="#006525"/>
<path d="M206.035 148.348H197.793V156.589H206.035V148.348Z" fill="#006525"/>
<path d="M90.6554 156.586H82.4141V164.827H90.6554V156.586Z" fill="#006525"/>
<path d="M98.8967 156.586H90.6553V164.827H98.8967V156.586Z" fill="#006525"/>
<path d="M123.621 156.586H115.379V164.827H123.621V156.586Z" fill="#006525"/>
<path d="M131.862 156.586H123.621V164.827H131.862V156.586Z" fill="#006525"/>
<path d="M156.586 156.586H148.345V164.827H156.586V156.586Z" fill="#006525"/>
<path d="M189.552 156.586H181.311V164.827H189.552V156.586Z" fill="#006525"/>
<path d="M197.793 156.586H189.552V164.827H197.793V156.586Z" fill="#006525"/>
<path d="M98.8967 164.828H90.6553V173.07H98.8967V164.828Z" fill="#006525"/>
<path d="M107.138 164.828H98.8965V173.07H107.138V164.828Z" fill="#006525"/>
<path d="M140.104 164.828H131.862V173.07H140.104V164.828Z" fill="#006525"/>
<path d="M156.586 164.828H148.345V173.07H156.586V164.828Z" fill="#006525"/>
<path d="M173.069 164.828H164.828V173.07H173.069V164.828Z" fill="#006525"/>
<path d="M189.552 164.828H181.311V173.07H189.552V164.828Z" fill="#006525"/>
<path d="M206.035 164.828H197.793V173.07H206.035V164.828Z" fill="#006525"/>
<path d="M214.276 164.828H206.035V173.07H214.276V164.828Z" fill="#006525"/>
<path d="M222.517 164.828H214.276V173.07H222.517V164.828Z" fill="#006525"/>
<path d="M90.6554 173.07H82.4141V181.312H90.6554V173.07Z" fill="#006525"/>
<path d="M115.38 173.07H107.138V181.312H115.38V173.07Z" fill="#006525"/>
<path d="M140.104 173.07H131.862V181.312H140.104V173.07Z" fill="#006525"/>
<path d="M156.586 173.07H148.345V181.312H156.586V173.07Z" fill="#006525"/>
<path d="M189.552 173.07H181.311V181.312H189.552V173.07Z" fill="#006525"/>
<path d="M197.793 173.07H189.552V181.312H197.793V173.07Z" fill="#006525"/>
<path d="M214.276 173.07H206.035V181.312H214.276V173.07Z" fill="#006525"/>
<path d="M222.517 173.07H214.276V181.312H222.517V173.07Z" fill="#006525"/>
<path d="M90.6554 181.312H82.4141V189.554H90.6554V181.312Z" fill="#006525"/>
<path d="M98.8967 181.312H90.6553V189.554H98.8967V181.312Z" fill="#006525"/>
<path d="M115.38 181.312H107.138V189.554H115.38V181.312Z" fill="#006525"/>
<path d="M123.621 181.312H115.379V189.554H123.621V181.312Z" fill="#006525"/>
<path d="M131.862 181.312H123.621V189.554H131.862V181.312Z" fill="#006525"/>
<path d="M140.104 181.312H131.862V189.554H140.104V181.312Z" fill="#006525"/>
<path d="M148.345 181.312H140.104V189.554H148.345V181.312Z" fill="#006525"/>
<path d="M156.586 181.312H148.345V189.554H156.586V181.312Z" fill="#006525"/>
<path d="M164.828 181.312H156.586V189.554H164.828V181.312Z" fill="#006525"/>
<path d="M173.069 181.312H164.828V189.554H173.069V181.312Z" fill="#006525"/>
<path d="M181.311 181.312H173.069V189.554H181.311V181.312Z" fill="#006525"/>
<path d="M189.552 181.312H181.311V189.554H189.552V181.312Z" fill="#006525"/>
<path d="M206.035 181.312H197.793V189.554H206.035V181.312Z" fill="#006525"/>
<path d="M90.6554 189.555H82.4141V197.796H90.6554V189.555Z" fill="#006525"/>
<path d="M98.8967 189.555H90.6553V197.796H98.8967V189.555Z" fill="#006525"/>
<path d="M115.38 189.555H107.138V197.796H115.38V189.555Z" fill="#006525"/>
<path d="M123.621 189.555H115.379V197.796H123.621V189.555Z" fill="#006525"/>
<path d="M173.069 189.555H164.828V197.796H173.069V189.555Z" fill="#006525"/>
<path d="M189.552 189.555H181.311V197.796H189.552V189.555Z" fill="#006525"/>
<path d="M197.793 189.555H189.552V197.796H197.793V189.555Z" fill="#006525"/>
<path d="M206.035 189.555H197.793V197.796H206.035V189.555Z" fill="#006525"/>
<path d="M214.276 189.555H206.035V197.796H214.276V189.555Z" fill="#006525"/>
<path d="M222.517 189.555H214.276V197.796H222.517V189.555Z" fill="#006525"/>
<path d="M90.6554 197.793H82.4141V206.034H90.6554V197.793Z" fill="#006525"/>
<path d="M98.8967 197.793H90.6553V206.034H98.8967V197.793Z" fill="#006525"/>
<path d="M123.621 197.793H115.379V206.034H123.621V197.793Z" fill="#006525"/>
<path d="M197.793 197.793H189.552V206.034H197.793V197.793Z" fill="#006525"/>
<path d="M206.035 197.793H197.793V206.034H206.035V197.793Z" fill="#006525"/>
<path d="M222.517 197.793H214.276V206.034H222.517V197.793Z" fill="#006525"/>
<path d="M98.8967 206.035H90.6553V214.277H98.8967V206.035Z" fill="#006525"/>
<path d="M107.138 206.035H98.8965V214.277H107.138V206.035Z" fill="#006525"/>
<path d="M123.621 206.035H115.379V214.277H123.621V206.035Z" fill="#006525"/>
<path d="M140.104 206.035H131.862V214.277H140.104V206.035Z" fill="#006525"/>
<path d="M156.586 206.035H148.345V214.277H156.586V206.035Z" fill="#006525"/>
<path d="M164.828 206.035H156.586V214.277H164.828V206.035Z" fill="#006525"/>
<path d="M181.311 206.035H173.069V214.277H181.311V206.035Z" fill="#006525"/>
<path d="M189.552 206.035H181.311V214.277H189.552V206.035Z" fill="#006525"/>
<path d="M197.793 206.035H189.552V214.277H197.793V206.035Z" fill="#006525"/>
<path d="M222.517 206.035H214.276V214.277H222.517V206.035Z" fill="#006525"/>
<path d="M90.6554 214.277H82.4141V222.519H90.6554V214.277Z" fill="#006525"/>
<path d="M98.8967 214.277H90.6553V222.519H98.8967V214.277Z" fill="#006525"/>
<path d="M131.862 214.277H123.621V222.519H131.862V214.277Z" fill="#006525"/>
<path d="M140.104 214.277H131.862V222.519H140.104V214.277Z" fill="#006525"/>
<path d="M181.311 214.277H173.069V222.519H181.311V214.277Z" fill="#006525"/>
<path d="M189.552 214.277H181.311V222.519H189.552V214.277Z" fill="#006525"/>
<path d="M197.793 214.277H189.552V222.519H197.793V214.277Z" fill="#006525"/>
<path d="M206.035 214.277H197.793V222.519H206.035V214.277Z" fill="#006525"/>
<path d="M214.276 214.277H206.035V222.519H214.276V214.277Z" fill="#006525"/>
<path d="M222.517 214.277H214.276V222.519H222.517V214.277Z" fill="#006525"/>
<path d="M65.5191 16.4844H25.1364H16.4829V25.1378V65.5206V74.174H25.1364H65.5191H74.1726V65.5206V25.1378V16.4844H65.5191ZM65.5191 65.5206H25.1364V25.1378H65.5191V65.5206Z" fill="#006525"/>
<path d="M213.864 16.4844H173.481H164.828V25.1378V65.5206V74.174H173.481H213.864H222.517V65.5206V25.1378V16.4844H213.864ZM213.864 65.5206H173.481V25.1378H213.864V65.5206Z" fill="#006525"/>
<path d="M65.5191 164.828H25.1364H16.4829V173.482V213.864V222.518H25.1364H65.5191H74.1726V213.864V173.482V164.828H65.5191ZM65.5191 213.864H25.1364V173.482H65.5191V213.864Z" fill="#006525"/>
<path d="M57.69 32.9688H32.9658V57.6929H57.69V32.9688Z" fill="#006525"/>
<path d="M206.035 32.9688H181.311V57.6929H206.035V32.9688Z" fill="#006525"/>
<path d="M57.69 181.312H32.9658V206.037H57.69V181.312Z" fill="#006525"/>
</g>
<defs>
<clipPath id="clip0_6338_41717">
<rect width="239" height="239" fill="white"/>
</clipPath>
</defs>
</svg>
