<svg width="1306" height="112" viewBox="0 0 1306 112" fill="none" xmlns="http://www.w3.org/2000/svg">
<g  opacity="0.5">
<path d="M3.28271 36.7948L27.3275 4.41895L332.402 66.8152L313.307 102.491C311.885 105.148 309.769 107.368 307.184 108.916C304.599 110.465 301.643 111.282 298.63 111.282H12.9893C9.54439 111.282 6.24054 109.914 3.80459 107.478C1.36865 105.042 0.000152588 101.738 0.000152588 98.2931L0.000152588 46.7201C0.000151747 43.145 1.15111 39.6649 3.28271 36.7948Z" fill="#BEBEBE"/>
</g>
<g  opacity="0.5">
<path d="M327.217 36.7948L351.262 4.41895L656.336 66.8152L637.241 102.491C635.819 105.148 633.703 107.368 631.118 108.916C628.533 110.465 625.577 111.282 622.564 111.282H336.923C333.478 111.282 330.175 109.914 327.739 107.478C325.303 105.042 323.934 101.738 323.934 98.2931V46.7201C323.934 43.145 325.085 39.6649 327.217 36.7948Z" fill="#BEBEBE"/>
</g>
<g  opacity="0.5">
<path d="M651.234 36.7948L675.278 4.41895L980.353 66.8152L961.258 102.491C959.836 105.148 957.72 107.368 955.135 108.916C952.55 110.465 949.594 111.282 946.581 111.282H660.94C657.495 111.282 654.192 109.914 651.756 107.478C649.32 105.042 647.951 101.738 647.951 98.2931V46.7201C647.951 43.145 649.102 39.6649 651.234 36.7948Z" fill="#BEBEBE"/>
</g>
<g  opacity="0.5">
<path d="M975.003 36.7948L999.048 4.41895L1304.12 66.8152L1285.03 102.491C1283.61 105.148 1281.49 107.368 1278.9 108.916C1276.32 110.465 1273.36 111.282 1270.35 111.282H984.71C981.265 111.282 977.961 109.914 975.525 107.478C973.089 105.042 971.721 101.738 971.721 98.2931V46.7201C971.721 43.145 972.872 39.6649 975.003 36.7948Z" fill="#BEBEBE"/>
</g>
<path d="M997.863 21.6377H994.895C994.622 21.6377 994.352 21.6914 994.1 21.7958C993.848 21.9002 993.619 22.0532 993.426 22.2461C993.233 22.439 993.08 22.668 992.975 22.9201C992.871 23.1721 992.817 23.4423 992.817 23.7151V46.0741C992.817 46.3469 992.871 46.617 992.975 46.8691C993.08 47.1211 993.233 47.3501 993.426 47.543C993.619 47.7359 993.848 47.8889 994.1 47.9933C994.352 48.0977 994.622 48.1514 994.895 48.1514H997.863V21.6377Z" fill="#123322"/>
<path d="M985.681 21.6377H979.257C978.244 21.6377 977.423 22.4587 977.423 23.4714V46.3177C977.423 47.3305 978.244 48.1515 979.257 48.1515H985.681C986.693 48.1515 987.514 47.3305 987.514 46.3177V23.4714C987.514 22.4587 986.693 21.6377 985.681 21.6377Z" fill="#123322"/>
<path d="M1294.52 0.144043H1256.29V70.2117H1294.52L1303.19 67.4086C1303.73 67.2345 1304.2 66.8943 1304.53 66.4367C1304.86 65.9792 1305.04 65.428 1305.04 64.8621V5.49357C1305.04 4.92775 1304.86 4.37649 1304.53 3.91898C1304.2 3.46146 1303.73 3.12123 1303.19 2.94716L1294.52 0.144043Z" fill="#295D43"/>
<path d="M1265.36 70.2119L1005.44 70.2119C1003.43 70.2119 1001.51 69.4131 1000.08 67.9911C998.662 66.5692 997.863 64.6407 997.863 62.6297V7.72642C997.863 5.7155 998.662 3.78694 1000.08 2.36501C1001.51 0.943077 1003.43 0.144249 1005.44 0.144249L1265.36 0.144249V70.2119Z" fill="#1A5639"/>
<path d="M677.743 70.2119L978.594 70.2119C980.734 70.2119 982.469 68.477 982.469 66.3368V4.01935C982.469 1.8792 980.734 0.144257 978.594 0.144257L677.743 0.144257C675.603 0.144257 673.868 1.8792 673.868 4.01935V66.3368C673.868 68.477 675.603 70.2119 677.743 70.2119Z" fill="#103A24"/>
<path d="M997.863 59.1577L1265.36 59.1577V11.198L997.863 11.198V59.1577Z" fill="#28704A"/>
<path d="M1276.78 8.97852H1272.02C1271.05 8.97852 1270.26 9.76695 1270.26 10.7395V30.4168C1270.26 31.3894 1271.05 32.1778 1272.02 32.1778H1276.78C1277.75 32.1778 1278.54 31.3894 1278.54 30.4168V10.7395C1278.54 9.76695 1277.75 8.97852 1276.78 8.97852Z" fill="#123322"/>
<path d="M1276.78 38.1777H1272.02C1271.05 38.1777 1270.26 38.9662 1270.26 39.9388V59.616C1270.26 60.5886 1271.05 61.377 1272.02 61.377H1276.78C1277.75 61.377 1278.54 60.5886 1278.54 59.616V39.9388C1278.54 38.9662 1277.75 38.1777 1276.78 38.1777Z" fill="#123322"/>
<path d="M1283.13 0.144043V70.2117" stroke="#DEA30A" stroke-width="2" stroke-miterlimit="10"/>
<path d="M1293.74 0.144043V20.5781L1297.15 23.6721V46.6829L1293.74 49.7776V70.2117" stroke="#DEA30A" stroke-width="2" stroke-miterlimit="10"/>
<path d="M1285.69 0.144043H1290.15V12.0702C1290.15 12.3919 1290.02 12.7004 1289.79 12.9278C1289.56 13.1553 1289.26 13.2831 1288.93 13.2831H1286.9C1286.58 13.2831 1286.27 13.1553 1286.04 12.9278C1285.81 12.7004 1285.69 12.3919 1285.69 12.0702V0.144043Z" fill="#123322"/>
<path d="M1286.9 57.0728H1288.93C1289.26 57.0728 1289.56 57.2005 1289.79 57.428C1290.02 57.6554 1290.15 57.9639 1290.15 58.2856V70.2118H1285.69V58.2856C1285.69 57.9639 1285.81 57.6554 1286.04 57.428C1286.27 57.2005 1286.58 57.0728 1286.9 57.0728Z" fill="#123322"/>
<path d="M1254.09 29.5254H1265.36V40.8299H1254.09C1252.76 40.8299 1251.49 40.3043 1250.56 39.3686C1249.62 38.433 1249.1 37.1639 1249.1 35.8407V34.5146C1249.1 33.1914 1249.62 31.9224 1250.56 30.9867C1251.49 30.051 1252.76 29.5254 1254.09 29.5254Z" fill="#1A5639"/>
<path d="M1265.36 29.5254V40.8299" stroke="#DEA30A" stroke-width="3" stroke-miterlimit="10"/>
<path d="M997.863 8.73376V11.198H1265.36V0.144043H1006.45C1004.17 0.144043 1001.99 1.04903 1000.38 2.65991C998.768 4.2708 997.863 6.45563 997.863 8.73376Z" fill="#2C8246"/>
<path d="M993.945 28.5742H986.386C985.687 28.5742 985.12 29.1411 985.12 29.8404V39.9487C985.12 40.648 985.687 41.2149 986.386 41.2149H993.945C994.644 41.2149 995.211 40.648 995.211 39.9487V29.8404C995.211 29.1411 994.644 28.5742 993.945 28.5742Z" fill="#28704A"/>
<path d="M673.868 21.6377H670.9C670.627 21.6377 670.357 21.6914 670.105 21.7958C669.853 21.9002 669.624 22.0532 669.431 22.2461C669.238 22.439 669.085 22.668 668.981 22.9201C668.876 23.1721 668.823 23.4423 668.823 23.7151V46.0741C668.823 46.3469 668.876 46.617 668.981 46.8691C669.085 47.1211 669.238 47.3501 669.431 47.543C669.624 47.7359 669.853 47.8889 670.105 47.9933C670.357 48.0977 670.627 48.1514 670.9 48.1514H673.868V21.6377Z" fill="#123322"/>
<path d="M661.686 21.6377H655.262C654.25 21.6377 653.429 22.4587 653.429 23.4714V46.3177C653.429 47.3305 654.25 48.1515 655.262 48.1515H661.686C662.699 48.1515 663.52 47.3305 663.52 46.3177V23.4714C663.52 22.4587 662.699 21.6377 661.686 21.6377Z" fill="#123322"/>
<path d="M353.748 70.2119L654.599 70.2119C656.739 70.2119 658.474 68.477 658.474 66.3368V4.01935C658.474 1.8792 656.739 0.144257 654.599 0.144257L353.748 0.144257C351.608 0.144257 349.873 1.8792 349.873 4.01935V66.3368C349.873 68.477 351.608 70.2119 353.748 70.2119Z" fill="#103A24"/>
<path d="M669.951 28.5742H662.392C661.693 28.5742 661.126 29.1411 661.126 29.8404V39.9487C661.126 40.648 661.693 41.2149 662.392 41.2149H669.951C670.65 41.2149 671.217 40.648 671.217 39.9487V29.8404C671.217 29.1411 670.65 28.5742 669.951 28.5742Z" fill="#28704A"/>
<path d="M349.873 21.6377H346.905C346.632 21.6377 346.362 21.6914 346.11 21.7958C345.858 21.9002 345.629 22.0532 345.436 22.2461C345.243 22.439 345.09 22.668 344.985 22.9201C344.881 23.1721 344.827 23.4423 344.827 23.7151V46.0741C344.827 46.3469 344.881 46.617 344.985 46.8691C345.09 47.1211 345.243 47.3501 345.436 47.543C345.629 47.7359 345.858 47.8889 346.11 47.9933C346.362 48.0977 346.632 48.1514 346.905 48.1514H349.873V21.6377Z" fill="#123322"/>
<path d="M337.691 21.6377H331.267C330.255 21.6377 329.434 22.4587 329.434 23.4714V46.3177C329.434 47.3305 330.255 48.1515 331.267 48.1515H337.691C338.704 48.1515 339.525 47.3305 339.525 46.3177V23.4714C339.525 22.4587 338.704 21.6377 337.691 21.6377Z" fill="#123322"/>
<path d="M29.7535 70.2119L330.604 70.2119C332.744 70.2119 334.479 68.477 334.479 66.3368V4.01935C334.479 1.8792 332.744 0.144257 330.604 0.144257L29.7535 0.144257C27.6133 0.144257 25.8784 1.8792 25.8784 4.01935V66.3368C25.8784 68.477 27.6133 70.2119 29.7535 70.2119Z" fill="#103A24"/>
<path d="M345.956 28.5742H338.397C337.698 28.5742 337.131 29.1411 337.131 29.8404V39.9487C337.131 40.648 337.698 41.2149 338.397 41.2149H345.956C346.655 41.2149 347.222 40.648 347.222 39.9487V29.8404C347.222 29.1411 346.655 28.5742 345.956 28.5742Z" fill="#28704A"/>
<path d="M978.281 62.1528L963.249 66.4465V3.90918L978.281 8.15486V62.1528Z" fill="#A53D28"/>
<path d="M831.316 62.1528L816.284 66.4465V3.90918L831.316 8.15486V62.1528Z" fill="#CE9005"/>
<path d="M963.249 3.90967H824.661V66.4465H963.249V3.90967Z" fill="#BC5B35"/>
<path d="M816.284 3.90967H677.696V66.4465H816.284V3.90967Z" fill="#DEA30A"/>
<path d="M837.326 3.90967V66.4465" stroke="#A53D28" stroke-width="3" stroke-miterlimit="10"/>
<path d="M850.064 3.90967V66.4465" stroke="#A53D28" stroke-width="3" stroke-miterlimit="10"/>
<path d="M875.539 3.90967V66.4465" stroke="#A53D28" stroke-width="3" stroke-miterlimit="10"/>
<path d="M888.276 3.90967V66.4465" stroke="#A53D28" stroke-width="3" stroke-miterlimit="10"/>
<path d="M901.014 3.90967V66.4465" stroke="#A53D28" stroke-width="3" stroke-miterlimit="10"/>
<path d="M913.752 3.90967V66.4465" stroke="#A53D28" stroke-width="3" stroke-miterlimit="10"/>
<path d="M939.227 3.90967V66.4465" stroke="#A53D28" stroke-width="3" stroke-miterlimit="10"/>
<path d="M951.238 3.90967V66.4465" stroke="#A53D28" stroke-width="3" stroke-miterlimit="10"/>
<path d="M690.034 3.90967V66.4465" stroke="#D39409" stroke-width="3" stroke-miterlimit="10"/>
<path d="M702.771 3.90967V66.4465" stroke="#D39409" stroke-width="3" stroke-miterlimit="10"/>
<path d="M715.509 3.90967V66.4465" stroke="#D39409" stroke-width="3" stroke-miterlimit="10"/>
<path d="M728.247 3.90967V66.4465" stroke="#D39409" stroke-width="3" stroke-miterlimit="10"/>
<path d="M740.984 3.90967V66.4465" stroke="#D39409" stroke-width="3" stroke-miterlimit="10"/>
<path d="M753.722 3.90967V66.4465" stroke="#D39409" stroke-width="3" stroke-miterlimit="10"/>
<path d="M766.459 3.90967V66.4465" stroke="#D39409" stroke-width="3" stroke-miterlimit="10"/>
<path d="M779.197 3.90967V66.4465" stroke="#D39409" stroke-width="3" stroke-miterlimit="10"/>
<path d="M791.935 3.90967V66.4465" stroke="#D39409" stroke-width="3" stroke-miterlimit="10"/>
<path d="M803.946 3.90967V66.4465" stroke="#D39409" stroke-width="3" stroke-miterlimit="10"/>
<path d="M862.802 42.3282C866.907 42.3282 870.235 39.0001 870.235 34.8946C870.235 30.7891 866.907 27.4609 862.802 27.4609C858.696 27.4609 855.368 30.7891 855.368 34.8946C855.368 39.0001 858.696 42.3282 862.802 42.3282Z" fill="#A53D28"/>
<path d="M926.489 42.3282C930.595 42.3282 933.923 39.0001 933.923 34.8946C933.923 30.7891 930.595 27.4609 926.489 27.4609C922.384 27.4609 919.056 30.7891 919.056 34.8946C919.056 39.0001 922.384 42.3282 926.489 42.3282Z" fill="#A53D28"/>
<path d="M654.286 62.1528L639.255 66.4465V3.90918L654.286 8.15486V62.1528Z" fill="#1A5639"/>
<path d="M507.321 62.1528L492.29 66.4465V3.90918L507.321 8.15486V62.1528Z" fill="#1D5060"/>
<path d="M639.254 3.90967H500.666V66.4465H639.254V3.90967Z" fill="#28704A"/>
<path d="M492.289 3.90967H353.701V66.4465H492.289V3.90967Z" fill="#3A8191"/>
<path d="M490.037 6.16202V64.1942H355.953V6.16202H490.037ZM492.289 3.90967H353.701V66.4465H492.289V3.90967Z" fill="#2D6E7F"/>
<path d="M513.331 3.90967V66.4465" stroke="#1A5639" stroke-width="3" stroke-miterlimit="10"/>
<path d="M526.069 3.90967V66.4465" stroke="#1A5639" stroke-width="3" stroke-miterlimit="10"/>
<path d="M551.544 3.90967V66.4465" stroke="#1A5639" stroke-width="3" stroke-miterlimit="10"/>
<path d="M564.282 3.90967V66.4465" stroke="#1A5639" stroke-width="3" stroke-miterlimit="10"/>
<path d="M577.019 3.90967V66.4465" stroke="#1A5639" stroke-width="3" stroke-miterlimit="10"/>
<path d="M589.757 3.90967V66.4465" stroke="#1A5639" stroke-width="3" stroke-miterlimit="10"/>
<path d="M615.232 3.90967V66.4465" stroke="#1A5639" stroke-width="3" stroke-miterlimit="10"/>
<path d="M627.244 3.90967V66.4465" stroke="#1A5639" stroke-width="3" stroke-miterlimit="10"/>
<path d="M366.039 3.90967V66.4465" stroke="#2D6E7F" stroke-width="3" stroke-miterlimit="10"/>
<path d="M378.777 3.90967V66.4465" stroke="#2D6E7F" stroke-width="3" stroke-miterlimit="10"/>
<path d="M404.252 3.90967V66.4465" stroke="#2D6E7F" stroke-width="3" stroke-miterlimit="10"/>
<path d="M416.99 3.90967V66.4465" stroke="#2D6E7F" stroke-width="3" stroke-miterlimit="10"/>
<path d="M391.514 3.90967V66.4465" stroke="#2D6E7F" stroke-width="3" stroke-miterlimit="10"/>
<path d="M429.727 3.90967V66.4465" stroke="#2D6E7F" stroke-width="3" stroke-miterlimit="10"/>
<path d="M442.464 3.90967V66.4465" stroke="#2D6E7F" stroke-width="3" stroke-miterlimit="10"/>
<path d="M455.202 3.90967V66.4465" stroke="#2D6E7F" stroke-width="3" stroke-miterlimit="10"/>
<path d="M467.94 3.90967V66.4465" stroke="#2D6E7F" stroke-width="3" stroke-miterlimit="10"/>
<path d="M479.951 3.90967V66.4465" stroke="#2D6E7F" stroke-width="3" stroke-miterlimit="10"/>
<path d="M538.807 42.3282C542.912 42.3282 546.24 39.0001 546.24 34.8946C546.24 30.7891 542.912 27.4609 538.807 27.4609C534.701 27.4609 531.373 30.7891 531.373 34.8946C531.373 39.0001 534.701 42.3282 538.807 42.3282Z" fill="#1A5639"/>
<path d="M602.495 42.3282C606.6 42.3282 609.928 39.0001 609.928 34.8946C609.928 30.7891 606.6 27.4609 602.495 27.4609C598.389 27.4609 595.061 30.7891 595.061 34.8946C595.061 39.0001 598.389 42.3282 602.495 42.3282Z" fill="#1A5639"/>
<path d="M330.291 62.1528L315.26 66.4465V3.90918L330.291 8.15486V62.1528Z" fill="#A53D28"/>
<path d="M183.326 62.1528L168.295 66.4465V3.90918L183.326 8.15486V62.1528Z" fill="#CE9005"/>
<path d="M315.26 3.90967H176.671V66.4465H315.26V3.90967Z" fill="#BC5B35"/>
<path d="M168.294 3.90967H29.7061V66.4465H168.294V3.90967Z" fill="#DEA30A"/>
<path d="M189.337 3.90967V66.4465" stroke="#A53D28" stroke-width="3" stroke-miterlimit="10"/>
<path d="M202.074 3.90967V66.4465" stroke="#A53D28" stroke-width="3" stroke-miterlimit="10"/>
<path d="M227.549 3.90967V66.4465" stroke="#A53D28" stroke-width="3" stroke-miterlimit="10"/>
<path d="M240.287 3.90967V66.4465" stroke="#A53D28" stroke-width="3" stroke-miterlimit="10"/>
<path d="M253.024 3.90967V66.4465" stroke="#A53D28" stroke-width="3" stroke-miterlimit="10"/>
<path d="M265.762 3.90967V66.4465" stroke="#A53D28" stroke-width="3" stroke-miterlimit="10"/>
<path d="M291.237 3.90967V66.4465" stroke="#A53D28" stroke-width="3" stroke-miterlimit="10"/>
<path d="M303.248 3.90967V66.4465" stroke="#A53D28" stroke-width="3" stroke-miterlimit="10"/>
<path d="M42.0442 3.90967V66.4465" stroke="#CE9005" stroke-width="3" stroke-miterlimit="10"/>
<path d="M54.7817 3.90967V66.4465" stroke="#CE9005" stroke-width="3" stroke-miterlimit="10"/>
<path d="M67.5193 3.90967V66.4465" stroke="#CE9005" stroke-width="3" stroke-miterlimit="10"/>
<path d="M80.2572 3.90967V66.4465" stroke="#CE9005" stroke-width="3" stroke-miterlimit="10"/>
<path d="M118.47 3.90967V66.4465" stroke="#CE9005" stroke-width="3" stroke-miterlimit="10"/>
<path d="M131.207 3.90967V66.4465" stroke="#CE9005" stroke-width="3" stroke-miterlimit="10"/>
<path d="M143.945 3.90967V66.4465" stroke="#CE9005" stroke-width="3" stroke-miterlimit="10"/>
<path d="M155.956 3.90967V66.4465" stroke="#CE9005" stroke-width="3" stroke-miterlimit="10"/>
<path d="M214.812 42.3282C218.917 42.3282 222.245 39.0001 222.245 34.8946C222.245 30.7891 218.917 27.4609 214.812 27.4609C210.706 27.4609 207.378 30.7891 207.378 34.8946C207.378 39.0001 210.706 42.3282 214.812 42.3282Z" fill="#A53D28"/>
<path d="M278.5 42.3282C282.605 42.3282 285.933 39.0001 285.933 34.8946C285.933 30.7891 282.605 27.4609 278.5 27.4609C274.394 27.4609 271.066 30.7891 271.066 34.8946C271.066 39.0001 274.394 42.3282 278.5 42.3282Z" fill="#A53D28"/>
<path d="M715.509 14.1768H690.034V30.3617H715.509V14.1768Z" stroke="#FFE09C" stroke-width="3" stroke-miterlimit="10"/>
<path d="M479.951 23.1096H467.94L473.945 14.1768L479.951 23.1096Z" fill="#5EA1AD" stroke="#5EA1AD" stroke-width="3" stroke-linecap="round" stroke-linejoin="round"/>
<path d="M760.393 14.1768H728.247V18.9554H760.393V14.1768Z" fill="#FFE09C" stroke="#FFE09C" stroke-width="3" stroke-miterlimit="10"/>
<path d="M752.659 25.583H728.247V30.3616H752.659V25.583Z" fill="#FFE09C" stroke="#FFE09C" stroke-width="3" stroke-miterlimit="10"/>
<path d="M387.571 14.1768H369.981C367.804 14.1768 366.039 15.9419 366.039 18.1193V19.1671C366.039 21.3445 367.804 23.1097 369.981 23.1097H387.571C389.749 23.1097 391.514 21.3445 391.514 19.1671V18.1193C391.514 15.9419 389.749 14.1768 387.571 14.1768Z" stroke="#5EA1AD" stroke-width="3" stroke-miterlimit="10"/>
<path d="M99.1944 46.1839C105.273 46.1839 110.201 41.2563 110.201 35.1777C110.201 29.0991 105.273 24.1714 99.1944 24.1714C93.1158 24.1714 88.1881 29.0991 88.1881 35.1777C88.1881 41.2563 93.1158 46.1839 99.1944 46.1839Z" fill="#FFE09C" stroke="#FFE09C" stroke-width="3" stroke-miterlimit="10"/>
<path d="M92.9943 3.90967V66.4465" stroke="#CE9005" stroke-width="3" stroke-miterlimit="10"/>
<path d="M105.732 3.90967V66.4465" stroke="#CE9005" stroke-width="3" stroke-miterlimit="10"/>
<path d="M155.956 28.8027H143.945V40.9864H155.956V28.8027Z" stroke="#FFE09C" stroke-width="3" stroke-miterlimit="10"/>
</svg>
